<svg xmlns="http://www.w3.org/2000/svg" width="1002" height="402" viewBox="0 0 1002 402">
  <g id="Grupo_109419" data-name="Grupo 109419" transform="translate(-289 -1068)">
    <g id="Elipse_7009" data-name="Elipse 7009" transform="translate(289 1095)" fill="#fff" stroke="#4dd0e1" stroke-width="3">
      <circle cx="87.5" cy="87.5" r="87.5" stroke="none"/>
      <circle cx="87.5" cy="87.5" r="86" fill="none"/>
    </g>
    <g id="Elipse_7010" data-name="Elipse 7010" transform="translate(492 1295)" fill="#fff" stroke="#4dd0e1" stroke-width="3">
      <circle cx="87.5" cy="87.5" r="87.5" stroke="none"/>
      <circle cx="87.5" cy="87.5" r="86" fill="none"/>
    </g>
    <g id="Elipse_7011" data-name="Elipse 7011" transform="translate(703 1095)" fill="#fff" stroke="#4dd0e1" stroke-width="3">
      <circle cx="87.5" cy="87.5" r="87.5" stroke="none"/>
      <circle cx="87.5" cy="87.5" r="86" fill="none"/>
    </g>
    <g id="Elipse_7012" data-name="Elipse 7012" transform="translate(908 1295)" fill="#fff" stroke="#4dd0e1" stroke-width="3">
      <circle cx="87.5" cy="87.5" r="87.5" stroke="none"/>
      <circle cx="87.5" cy="87.5" r="86" fill="none"/>
    </g>
    <g id="Elipse_7013" data-name="Elipse 7013" transform="translate(1116 1095)" fill="#fff" stroke="#4dd0e1" stroke-width="3">
      <circle cx="87.5" cy="87.5" r="87.5" stroke="none"/>
      <circle cx="87.5" cy="87.5" r="86" fill="none"/>
    </g>
    <text id="_" data-name="+" transform="translate(375 1108)" fill="#fff" font-size="38" font-family="Roboto-Black, Roboto" font-weight="800"><tspan x="-10.149" y="0">+</tspan></text>
    <text id="_2" data-name="+" transform="translate(582 1308)" fill="#fff" font-size="38" font-family="Roboto-Black, Roboto" font-weight="800"><tspan x="-10.149" y="0">+</tspan></text>
    <text id="_3" data-name="+" transform="translate(793 1108)" fill="#fff" font-size="38" font-family="Roboto-Black, Roboto" font-weight="800"><tspan x="-10.149" y="0">+</tspan></text>
    <text id="_4" data-name="+" transform="translate(994 1308)" fill="#fff" font-size="38" font-family="Roboto-Black, Roboto" font-weight="800"><tspan x="-10.149" y="0">+</tspan></text>
    <text id="_5" data-name="+" transform="translate(1201 1108)" fill="#fff" font-size="38" font-family="Roboto-Black, Roboto" font-weight="800"><tspan x="-10.149" y="0">+</tspan></text>
    <g id="Grupo_108919" data-name="Grupo 108919" transform="translate(414.52 682.967)">
      <path id="Trazado_116012" data-name="Trazado 116012" d="M125,681.574v-4.628c.417.686.976,1.162,1.821.889s.982-.981.977-1.787c-.02-3.545-.01-7.09-.008-10.635,0-1.554.417-1.976,1.965-1.976q22.052,0,44.1,0c.267,0,.534.024.843.039,0,4.155.033,8.25-.017,12.345a4.958,4.958,0,0,0,1.5,3.911,2.685,2.685,0,0,0,2.989,2.946q6.381.009,12.761.008V689.2a24.8,24.8,0,0,0-8.3-1.539q-15.485-.005-30.97-.006a3.762,3.762,0,0,0-.463.014,1.293,1.293,0,0,0-1.215,1.193,1.242,1.242,0,0,0,.885,1.446,3.5,3.5,0,0,0,1.09.127q8.809.011,17.618.005h.9c-1.562,1.17-3.047,2.315-4.574,3.4a2.62,2.62,0,0,1-1.378.522c-4.172.04-8.345.02-12.518.029-.4,0-.916-.052-1.159.165-.39.349-.849.925-.809,1.362s.61.884,1.042,1.2c.229.166.659.071,1,.071q4.868.005,9.736,0c.263,0,.526.029.941.054a24.655,24.655,0,0,0-4.532,9.883h-1.035c-1.916,0-3.833-.016-5.749.008a1.39,1.39,0,1,0-.005,2.774c.309.014.618,0,.927,0h5.367v4.015h-.761c-1.854,0-3.709-.013-5.563.008a1.361,1.361,0,0,0-1.438,1.268,1.4,1.4,0,0,0,1.326,1.5,8.97,8.97,0,0,0,1.019.014h5.838a24.991,24.991,0,0,0,4.643,10.328H153.169c-.278,0-.558-.01-.834.014a1.378,1.378,0,0,0-.151,2.746,4.927,4.927,0,0,0,.924.042c4.142,0,8.283,0,12.425.008a1.752,1.752,0,0,1,.966.164c1.662,1.229,3.289,2.5,4.93,3.768h-.67q-8.855,0-17.71,0a4.051,4.051,0,0,0-.924.035,1.317,1.317,0,0,0-1.145,1.454,1.3,1.3,0,0,0,1.318,1.289c.215.017.433.006.649.006q15.114,0,30.229-.005a15.406,15.406,0,0,0,2.587-.133c2.056-.353,4.1-.8,6.174-1.208v15.025a8.2,8.2,0,0,1-1.692.36q-30.369.028-60.738,0a8.158,8.158,0,0,1-1.69-.361c-.009-.37-.026-.739-.026-1.109q0-33.269,0-66.537c0-.783-.072-1.488-.935-1.811S125.488,681,125,681.574Zm21.879,50.243c0-.987.017-1.974,0-2.96a3.132,3.132,0,0,0-3.235-3.2c-1.946-.023-3.893-.019-5.839,0a3.086,3.086,0,0,0-3.266,3.068c-.068,2.063-.068,4.133,0,6.2a3.067,3.067,0,0,0,3.176,3.066c2.007.04,4.017.048,6.024,0a3.116,3.116,0,0,0,3.141-3.2C146.895,733.791,146.879,732.8,146.879,731.817Zm0-39.322c0-1.017.018-2.035,0-3.053a3.115,3.115,0,0,0-3.151-3.191c-2.007-.042-4.017-.038-6.024,0a3.067,3.067,0,0,0-3.166,3.073c-.065,2.064-.067,4.133,0,6.2a3.073,3.073,0,0,0,3.183,3.058q2.965.047,5.932,0a3.137,3.137,0,0,0,3.225-3.217C146.894,694.407,146.879,693.451,146.878,692.5Zm-6.2,13.277c-.989,0-1.978-.019-2.966,0a3.043,3.043,0,0,0-3.18,3.039c-.069,2.063-.068,4.132,0,6.2a3.042,3.042,0,0,0,3.173,3.049q3.011.039,6.023,0a3.061,3.061,0,0,0,3.139-3.084q.056-3.051,0-6.1a3.057,3.057,0,0,0-3.131-3.09C142.72,705.752,141.7,705.775,140.68,705.773Z" transform="translate(0 -8.584)" fill="#fefefe"/>
      <path id="Trazado_116013" data-name="Trazado 116013" d="M191.935,741.665V726.64c-2.078.413-4.118.855-6.174,1.208a15.413,15.413,0,0,1-2.587.133q-15.114.013-30.229.005c-.216,0-.434.011-.649-.006a1.3,1.3,0,0,1-1.318-1.289,1.317,1.317,0,0,1,1.145-1.454,4.055,4.055,0,0,1,.924-.035q8.855,0,17.71,0h.67c-1.642-1.263-3.268-2.539-4.93-3.768a1.752,1.752,0,0,0-.966-.164q-6.213-.015-12.425-.008a4.927,4.927,0,0,1-.924-.042,1.378,1.378,0,0,1,.151-2.746c.276-.023.556-.014.834-.014h10.624a24.991,24.991,0,0,1-4.643-10.327h-5.838a8.97,8.97,0,0,1-1.019-.014,1.4,1.4,0,0,1-1.326-1.5,1.361,1.361,0,0,1,1.438-1.268c1.854-.021,3.709-.008,5.563-.008h.761v-4.015h-5.367c-.309,0-.619.011-.927,0a1.39,1.39,0,1,1,.005-2.774c1.916-.024,3.833-.008,5.749-.008h1.035a24.655,24.655,0,0,1,4.532-9.883c-.414-.024-.678-.053-.941-.054q-4.868,0-9.736,0c-.339,0-.769.1-1-.071-.432-.313-1-.762-1.042-1.2s.419-1.013.809-1.362c.243-.217.763-.164,1.159-.165,4.173-.01,8.345.01,12.518-.029a2.62,2.62,0,0,0,1.378-.522c1.527-1.086,3.012-2.232,4.574-3.4h-.9q-8.809,0-17.618-.005a3.5,3.5,0,0,1-1.09-.127,1.242,1.242,0,0,1-.885-1.446,1.293,1.293,0,0,1,1.215-1.193,3.75,3.75,0,0,1,.463-.014q15.485,0,30.97.006a24.8,24.8,0,0,1,8.3,1.539v-8.543c-4.174,0-8.268-.025-12.361.015a5.509,5.509,0,0,1-3.389-.938,4.958,4.958,0,0,1-1.5-3.911c.049-4.094.017-8.19.017-12.345-.31-.015-.576-.039-.843-.039q-22.052,0-44.1,0c-1.548,0-1.965.421-1.965,1.976,0,3.545-.012,7.09.008,10.635,0,.806-.133,1.515-.977,1.787s-1.4-.2-1.821-.889V655.22c1.032-2.532,2.981-3.2,5.606-3.186,14.956.08,29.912.044,44.869.025a2.911,2.911,0,0,1,2.067.857q8.191,8.223,16.43,16.4a2.508,2.508,0,0,1,.8,1.961c-.033,3.3,0,6.6-.025,9.9a1.137,1.137,0,0,0,.611,1.092,40.6,40.6,0,0,1,4.474,3.261,23.777,23.777,0,0,1,7.485,13.19c.25,1.2,0,1.659-1.07,2.1-1.163-.117-1.443-.379-1.678-1.576a21.7,21.7,0,1,0,.361,5.931,1.477,1.477,0,0,1,1.459-1.578c1.148.32,1.432.685,1.308,1.908-.105,1.039-.263,2.076-.466,3.1a24.008,24.008,0,0,1-3.31,8.121l3.363,3.384a1.532,1.532,0,0,1,2.252.34c2.295,2.284,4.56,4.6,6.882,6.852,1.523,1.479,3.016,2.954,3.543,5.11V735c-.068.088-.173.166-.2.265a6.667,6.667,0,0,1-11.421,2.639c-2.579-2.782-5.355-5.381-8.042-8.064-.918-.917-.977-1.277-.468-2.313l-3.36-3.37a2.985,2.985,0,0,1-.573.333c-1.02.348-1.173,1.079-1.164,2.071.048,5.211.026,10.423.016,15.634a6.786,6.786,0,0,1-.15,1.553,4.407,4.407,0,0,1-3.2,3.1H128.153A5.573,5.573,0,0,1,125,743.7V672.99c.488-.573.988-1.111,1.859-.784s.935,1.028.935,1.811q-.01,33.269,0,66.537c0,.37.017.739.026,1.109-.122,2.026.237,2.414,2.231,2.414h48.642q5.791,0,11.581,0c1.2,0,1.69-.5,1.7-1.674C191.975,742.155,191.948,741.91,191.935,741.665Zm12.462-14.62-1.4,1.309c2.747,2.8,5.373,5.616,8.153,8.267a3.537,3.537,0,0,0,4.978-.477,3.666,3.666,0,0,0-.058-5.222c-1.454-1.509-2.963-2.965-4.442-4.452-1.1-1.11-2.2-2.23-3.178-3.227ZM189.723,669.3,177.5,657.089c0,3.6-.023,7.258.018,10.917a1.27,1.27,0,0,0,1.413,1.288C182.544,669.305,186.157,669.3,189.723,669.3Zm9.413,53.157,2.7,2.795,3.176-3.113-2.719-2.8Z" fill="#020202"/>
      <path id="Trazado_116014" data-name="Trazado 116014" d="M200.44,1014.478c.013.245.04.491.037.736-.012,1.176-.5,1.672-1.7,1.674q-5.79.011-11.581,0H138.552c-1.995,0-2.354-.388-2.231-2.414a8.158,8.158,0,0,0,1.69.361q30.369.028,60.738,0A8.2,8.2,0,0,0,200.44,1014.478Z" transform="translate(-8.505 -272.813)" fill="#dfc8df"/>
      <path id="Trazado_116015" data-name="Trazado 116015" d="M175.745,921.142c0,.987.016,1.974,0,2.96a3.116,3.116,0,0,1-3.141,3.2c-2.007.05-4.017.042-6.024,0a3.067,3.067,0,0,1-3.176-3.066c-.067-2.064-.068-4.133,0-6.2a3.086,3.086,0,0,1,3.266-3.068c1.946-.018,3.893-.022,5.839,0a3.132,3.132,0,0,1,3.235,3.2C175.762,919.168,175.745,920.155,175.745,921.142Zm-9.5,1.385c-.025.3-.038.611-.077.914-.107.828.192,1.167,1.079,1.116,1.262-.071,2.532-.018,3.8-.018,2.005,0,2.005,0,1.876-2,.012-1.354.012-2.708.041-4.061.011-.507-.176-.728-.7-.724-1.789.014-3.579-.017-5.366.034a.922.922,0,0,0-.669.6C166.18,919.761,166.227,921.144,166.243,922.527Z" transform="translate(-28.866 -197.908)" fill="#040403"/>
      <path id="Trazado_116016" data-name="Trazado 116016" d="M175.746,761.847c0,.956.016,1.912,0,2.868a3.137,3.137,0,0,1-3.225,3.217q-2.965.042-5.932,0a3.073,3.073,0,0,1-3.183-3.058c-.069-2.064-.067-4.133,0-6.2a3.067,3.067,0,0,1,3.166-3.073c2.008-.037,4.017-.041,6.024,0a3.115,3.115,0,0,1,3.151,3.191C175.764,759.812,175.746,760.83,175.746,761.847Zm-2.823,1.29c.01-1.35.051-2.7,0-4.048-.009-.243-.371-.673-.579-.679-1.844-.054-3.69-.051-5.534,0a.852.852,0,0,0-.591.586c-.04,1.377,0,2.756.015,4.135-.023.3-.03.61-.072.911-.123.888.244,1.188,1.138,1.137,1.256-.071,2.518-.018,3.778-.018C173.041,765.158,173.041,765.158,172.923,763.137Z" transform="translate(-28.868 -77.935)" fill="#040403"/>
      <path id="Trazado_116017" data-name="Trazado 116017" d="M169.545,834.613c1.019,0,2.039-.022,3.058.006a3.057,3.057,0,0,1,3.131,3.09q.054,3.051,0,6.1a3.061,3.061,0,0,1-3.139,3.084q-3.011.045-6.023,0a3.042,3.042,0,0,1-3.173-3.049c-.067-2.063-.068-4.133,0-6.2a3.043,3.043,0,0,1,3.18-3.039C167.567,834.592,168.556,834.612,169.545,834.613Zm-3.3,7.619v1.884h4.971c1.824,0,1.824,0,1.7-1.875.012-1.383.017-2.766.042-4.149.008-.441-.1-.693-.614-.689-1.849.016-3.7-.013-5.546.032a.835.835,0,0,0-.591.563C166.176,839.409,166.224,840.82,166.247,842.232Z" transform="translate(-28.865 -137.422)" fill="#040403"/>
      <path id="Trazado_116018" data-name="Trazado 116018" d="M331.98,729.338a5.509,5.509,0,0,0,3.389.938c4.093-.041,8.187-.015,12.361-.015v2.031q-6.381,0-12.761-.008A2.685,2.685,0,0,1,331.98,729.338Z" transform="translate(-155.795 -58.188)" fill="#dfc8df"/>
      <path id="Trazado_116019" data-name="Trazado 116019" d="M317.447,791.491q.071,1.389.142,2.778a1.477,1.477,0,0,0-1.459,1.578,21.694,21.694,0,1,1-.361-5.931C316,791.111,316.283,791.374,317.447,791.491ZM280.21,803.1c-.709.951-.733,1.423,0,2.294,4.734,5.653,10.778,7.934,18,6.5a18.09,18.09,0,1,0-21.163-12.581c.337,1.127.745,1.4,1.963,1.33Z" transform="translate(-111.201 -90.672)" fill="#dfc8df"/>
      <path id="Trazado_116020" data-name="Trazado 116020" d="M349.5,684.688c-3.565,0-7.179.006-10.793,0a1.27,1.27,0,0,1-1.413-1.288c-.041-3.659-.018-7.318-.018-10.917Z" transform="translate(-159.775 -15.39)" fill="#dfc8df"/>
      <path id="Trazado_116021" data-name="Trazado 116021" d="M446.063,943.79l4.056-3.8c.982,1,2.075,2.118,3.178,3.227,1.478,1.486,2.987,2.943,4.442,4.452a3.666,3.666,0,0,1,.058,5.222,5.555,5.555,0,0,1-4.608-2.04C450.853,948.458,448.443,946.139,446.063,943.79Z" transform="translate(-241.666 -216.746)" fill="#fb4654"/>
      <path id="Trazado_116022" data-name="Trazado 116022" d="M441.813,955.361c2.38,2.349,4.79,4.668,7.127,7.059a5.555,5.555,0,0,0,4.608,2.04,3.537,3.537,0,0,1-4.978.477c-2.779-2.651-5.406-5.463-8.153-8.267Z" transform="translate(-237.416 -228.317)" fill="#f92b3a"/>
      <path id="Trazado_116023" data-name="Trazado 116023" d="M424.79,927.307l3.158-3.121,2.719,2.8-3.176,3.113Z" transform="translate(-225.654 -204.851)" fill="#dfc8df"/>
      <path id="Trazado_116024" data-name="Trazado 116024" d="M174.936,931.016c-.016-1.382-.063-2.765-.017-4.145a.922.922,0,0,1,.669-.6c1.787-.051,3.577-.019,5.366-.034.522,0,.708.217.7.724-.029,1.353-.029,2.707-.041,4.061Z" transform="translate(-37.56 -206.398)" fill="#97da7b"/>
      <path id="Trazado_116025" data-name="Trazado 116025" d="M174.748,945.551l6.675.009c.129,2,.129,2-1.876,2-1.266,0-2.536-.053-3.8.018-.886.05-1.186-.289-1.079-1.116C174.71,946.162,174.723,945.856,174.748,945.551Z" transform="translate(-37.372 -220.933)" fill="#7fcd5f"/>
      <path id="Trazado_116026" data-name="Trazado 116026" d="M174.926,771.641c-.014-1.379-.055-2.758-.015-4.135a.851.851,0,0,1,.591-.586c1.844-.047,3.69-.05,5.534,0,.209.006.571.436.579.679.047,1.348.007,2.7,0,4.048Z" transform="translate(-37.555 -86.449)" fill="#97da7b"/>
      <path id="Trazado_116027" data-name="Trazado 116027" d="M174.733,786.12l6.685.01c.117,2.021.117,2.021-1.841,2.021-1.26,0-2.522-.053-3.778.018-.894.05-1.26-.25-1.138-1.137C174.7,786.73,174.71,786.424,174.733,786.12Z" transform="translate(-37.363 -100.928)" fill="#7fcd5f"/>
      <path id="Trazado_116028" data-name="Trazado 116028" d="M174.915,850.753c-.023-1.412-.071-2.823-.042-4.234a.835.835,0,0,1,.591-.563c1.848-.044,3.7-.016,5.546-.032.51,0,.622.248.614.689-.024,1.383-.029,2.766-.042,4.149Z" transform="translate(-37.533 -145.943)" fill="#97da7b"/>
      <path id="Trazado_116029" data-name="Trazado 116029" d="M175.071,865.449l6.667.01c.129,1.875.129,1.875-1.7,1.875h-4.971Z" transform="translate(-37.689 -160.639)" fill="#7fcd5f"/>
      <path id="Trazado_116030" data-name="Trazado 116030" d="M289.824,811.681c-1.218.074-1.626-.2-1.963-1.33a18.157,18.157,0,1,1,21.163,12.581c-7.223,1.436-13.267-.846-18-6.5-.73-.872-.706-1.343,0-2.294,1.139-.406,1.456-.308,2.289.706a15.236,15.236,0,0,0,17.112,4.816,14.531,14.531,0,0,0,8.766-8.1h0l.176-.4-.005.011.165-.388a14.06,14.06,0,0,0,.975-7.413,15.356,15.356,0,0,0-29.318-4.248,15.674,15.674,0,0,0-.421,11.282Z" transform="translate(-122.018 -101.707)" fill="#040403"/>
      <path id="Trazado_116031" data-name="Trazado 116031" d="M298.1,882.467l.938-1.27a8.587,8.587,0,0,0,.661.877,34.444,34.444,0,0,0,4.141,4.15,15.807,15.807,0,0,0,11.96,2.958,16.233,16.233,0,0,0,10.494-5.774,10.758,10.758,0,0,1,1.176-1.059,14.531,14.531,0,0,1-8.766,8.1,15.236,15.236,0,0,1-17.112-4.816c-.834-1.014-1.151-1.112-2.289-.706Z" transform="translate(-130.292 -172.493)" fill="#f4cb57"/>
      <path id="Trazado_116032" data-name="Trazado 116032" d="M327.747,819.969a10.764,10.764,0,0,0-1.176,1.059,16.233,16.233,0,0,1-10.494,5.774,15.807,15.807,0,0,1-11.96-2.958,34.446,34.446,0,0,1-4.141-4.15,8.592,8.592,0,0,1-.661-.877,15.674,15.674,0,0,1,.421-11.282,15.356,15.356,0,0,1,29.318,4.248,14.06,14.06,0,0,1-.975,7.413l-.165.388.005-.011-.176.4ZM312,811.395a2.568,2.568,0,0,0-.354-.476,4.322,4.322,0,1,0-5.973,6.23q1.714,1.686,3.446,3.355a4.33,4.33,0,0,0,6.484-.074q3.511-3.551,6.981-7.145a4.317,4.317,0,0,0,.084-6.209,4.383,4.383,0,0,0-6.286.191C314.988,808.622,313.554,809.932,312,811.395Z" transform="translate(-130.571 -110.114)" fill="#fde079"/>
      <path id="Trazado_116033" data-name="Trazado 116033" d="M417.539,883.117l.165-.388Z" transform="translate(-220.196 -173.646)" fill="#f4cb57"/>
      <path id="Trazado_116034" data-name="Trazado 116034" d="M416.849,884.652l.176-.4Z" transform="translate(-219.676 -174.796)" fill="#f4cb57"/>
      <path id="Trazado_116035" data-name="Trazado 116035" d="M329.316,834.27c1.557-1.463,2.991-2.773,4.382-4.127a4.382,4.382,0,0,1,6.286-.191,4.317,4.317,0,0,1-.084,6.209q-3.469,3.593-6.981,7.145a4.33,4.33,0,0,1-6.484.074q-1.733-1.667-3.446-3.355a4.322,4.322,0,1,1,5.973-6.23A2.566,2.566,0,0,1,329.316,834.27Zm8.88-2.036a1.469,1.469,0,0,0-2.486-.148c-1.649,1.656-3.263,3.347-4.906,5.009a1.474,1.474,0,0,1-2.395.037c-.519-.481-1-1-1.535-1.465a1.456,1.456,0,0,0-2.481.652c.133.524.106,1.193.428,1.544,1.162,1.269,2.426,2.447,3.683,3.626a1.5,1.5,0,0,0,2.3-.017q3.609-3.639,7.164-7.33A1.4,1.4,0,0,0,338.2,832.233Z" transform="translate(-147.891 -132.988)" fill="#040403"/>
      <path id="Trazado_116036" data-name="Trazado 116036" d="M333.264,844.7a1.456,1.456,0,0,1,2.481-.652c.534.462,1.016.984,1.535,1.465a1.474,1.474,0,0,0,2.395-.037c1.643-1.662,3.257-3.353,4.906-5.009a1.469,1.469,0,0,1,2.486.148,1.612,1.612,0,0,1-.22.492c-2.116,2.19-4.2,4.411-6.384,6.535a2.819,2.819,0,0,1-4.124-.175C335.34,846.52,334.291,845.623,333.264,844.7Z" transform="translate(-156.762 -141.372)" fill="#97da7b"/>
      <path id="Trazado_116037" data-name="Trazado 116037" d="M333.264,847.033c1.027.92,2.076,1.817,3.075,2.766a2.819,2.819,0,0,0,4.124.175c2.181-2.124,4.267-4.345,6.384-6.535a1.612,1.612,0,0,0,.22-.492,1.4,1.4,0,0,1-.231,1.91q-3.563,3.683-7.164,7.33a1.5,1.5,0,0,1-2.3.017c-1.257-1.179-2.521-2.358-3.683-3.626C333.37,848.225,333.4,847.556,333.264,847.033Z" transform="translate(-156.762 -143.702)" fill="#7fcd5f"/>
    </g>
    <g id="Grupo_108920" data-name="Grupo 108920" transform="translate(586.338 463.641)">
      <path id="Trazado_116038" data-name="Trazado 116038" d="M425.1,737.143l.01-4.208a1.749,1.749,0,0,0,1.569-2.029c-.033-1.386,0-2.774-.009-4.161-.013-3.081-1.641-4.714-4.753-4.717q-16.484-.014-32.968,0c-3.154,0-4.784,1.659-4.786,4.814q-.006,7.9,0,15.791c0,3.468,1.532,5,5,5,8.749,0,17.5.082,26.246-.051,2.444-.037,4.411.427,6.02,2.334a2.8,2.8,0,0,0,3.476.812,3.028,3.028,0,0,0,1.773-3.119c-.034-2.774-.041-5.548,0-8.322A1.87,1.87,0,0,0,425.1,737.143Z" transform="translate(-170.828 -42.433)" fill="#fdfdfd"/>
      <path id="Trazado_116039" data-name="Trazado 116039" d="M245.181,760.413a1.733,1.733,0,0,1-2.018,1.571c-1.945-.021-3.891-.006-5.913-.006v2.364a15.165,15.165,0,0,1,1.937.354,4.414,4.414,0,0,1,3.06,4.478,4.256,4.256,0,0,1-3.533,4.063c-.076.016-.132.127-.2.194H219.732l-2.446-1.705-4.171,1.705H157.83a6.974,6.974,0,0,0-.9-.439,8.131,8.131,0,0,1-4.733-3.836,23.617,23.617,0,0,1-1.2-2.982v-2.988c.281-1.365.612-2.723.836-4.1,1.643-10.1,3.242-20.2,4.9-30.289a8.842,8.842,0,0,1,6.184-7.214,10.1,10.1,0,0,1,1.736-.5c4.493-.758,8.23-3.161,12-5.484.838-.516.768-1.187-.154-1.759a17.872,17.872,0,0,1-8.158-10.763,21.877,21.877,0,0,1-.522-3.893,1.066,1.066,0,0,0-.87-1.093c-3.111-1-4.885-3.83-4.2-6.7a3.792,3.792,0,0,1,.786-1.716,2.221,2.221,0,0,0,.4-2.322c-1.308-6.052-.341-11.567,3.946-16.27,1.077-1.181,1.534-1.265,2.94-.5a2.149,2.149,0,0,1-.519,2.6c-3.659,3.971-4.3,8.651-3.186,13.767a11.459,11.459,0,0,1,2.159-.147,17.2,17.2,0,0,1,2.014.611c1.334.33,2.68.611,4.021.912a3.692,3.692,0,0,0,.611.141,26.858,26.858,0,0,0,16.169-3.946c2.127-1.32,3.147-1.115,4.995.572a6.618,6.618,0,0,0,2.919,1.582,22.2,22.2,0,0,0,4.288.064,58.12,58.12,0,0,0-.019-6.711c-.318-2.891-1.672-5.352-4.55-6.451a14.125,14.125,0,0,1-4.789-2.978c-2.64-2.472-6.043-3.115-9.566-3.183a21.7,21.7,0,0,0-8.4,1.5,2.193,2.193,0,0,1-2.672-.535c-.1-1.637.1-1.971,1.635-2.524,6-2.161,12.014-2.589,17.913.218a29.156,29.156,0,0,1,4.282,3.092,4.82,4.82,0,0,0,1.315.843c5.063,1.5,7.564,5.128,8.055,10.141a43.34,43.34,0,0,1-.3,7.211,2.739,2.739,0,0,0,.45,2.137c2.272,3.013.7,7.267-3.124,8.522a1.232,1.232,0,0,0-1,1.326,17.175,17.175,0,0,1-8.544,14.278c-1.324.83-1.333,1.451-.005,2.258l3.372,2.05c.049-.958.026-1.828.151-2.676a4.063,4.063,0,0,1,4.293-3.726q4.7-.038,9.392-.044c14.337,0,28.674.065,43.01-.025a4.7,4.7,0,0,1,5.128,5.088c-.083,13.483-.036,26.966-.038,40.449,0,3.387-1.558,4.947-4.949,4.963-1.387.006-2.776.029-4.162,0a1.639,1.639,0,0,1-1.779-1.552c.447-1.357.8-1.622,2.226-1.634,1.209-.01,2.418.009,3.628,0,1.645-.007,1.832-.2,1.832-1.85q0-20.163,0-40.327c0-1.744-.14-1.887-1.884-1.887q-25.871,0-51.742,0c-1.638,0-1.835.2-1.836,1.836q0,15.79,0,31.579c0,3.094.063,6.187.07,9.281,0,.916.309,1.318,1.313,1.315,6.009-.018,12.019.023,18.029.042.272,0,.543-.025.754-.035.075-.112.111-.14.111-.169q.013-10.081,0-20.163a1.192,1.192,0,0,0-.367-.793,1.373,1.373,0,0,1-.416-1.81,2.69,2.69,0,0,1,1.579-.976,12.132,12.132,0,0,1,2.445-.042c3.663,0,7.327-.038,10.988.041a2.169,2.169,0,0,1,1.6.906c.228.413-.116,1.153-.237,1.744a6.459,6.459,0,0,0-.3,1.166q-.029,9.6-.012,19.2c0,.3.036.606.056.93h2.986c.96,0,1.921-.014,2.881,0C244.457,758.8,244.87,759.137,245.181,760.413ZM179.79,726.5l.184.114-.029-.248-2.779-7.33-3.9,2.307Zm3,36.708,3.165,2.556a9.6,9.6,0,0,1,6.324-4.148,3.551,3.551,0,0,0,2.658-1.78,12.554,12.554,0,0,1-3.419-6.142,1.124,1.124,0,0,0-.812-.673c-2.346-.04-4.693,0-7.039.013h-3.791a12.873,12.873,0,0,1-3.678,6.89,7.622,7.622,0,0,0,1.674,1.453C179.473,762.075,181.146,762.607,182.791,763.206Zm1.721-50.2c1.272-.065,2.557-.039,3.814-.213a14.71,14.71,0,0,0,11.547-10.523c.939-4,.449-8.059.5-12.1,0-.053-.083-.107-.143-.18a8.381,8.381,0,0,1-5.768-2.945c-1.948.931-3.752,1.92-5.65,2.673a30.764,30.764,0,0,1-13.266,1.937l-4.652-.844c0,2.543-.06,4.993.014,7.439a14.634,14.634,0,0,0,3.274,9.355A14.111,14.111,0,0,0,184.512,713.008Zm-19.423,11.323c-3.173.705-4.8,2.314-5.285,5.346q-2.767,17.147-5.5,34.3a5.3,5.3,0,0,0,4.917,6.22c.67.052,1.349,0,2.024-.007H174.7c0-2.012,0-3.928,0-5.844,0-2.03-.331-2.367-2.335-2.369-3.166,0-6.331.011-9.5-.009-1.223-.008-1.862-.582-1.866-1.571s.637-1.556,1.847-1.622c.446-.024.9,0,1.358,0,.806-5.448,1.592-10.752,2.376-16.057.239-1.617.444-3.239.716-4.85a1.653,1.653,0,0,1,1.813-1.564c.915.114,1.411.831,1.35,1.956-.01.178-.024.356-.049.531q-.9,6.062-1.8,12.123c-.383,2.583-.762,5.168-1.192,8.093,1.927-.272,3.773-.221,5.369-.828,2.723-1.036,3.546-3.6,4.005-6.235.31-1.778.687-2.156,2.5-2.157q6.189,0,12.378,0c2.176,0,2.493.268,2.836,2.41a8.722,8.722,0,0,0,2.083,4.7,15.034,15.034,0,0,0,1.733,1.39V725.347a17.479,17.479,0,0,1-1.557,1.2,2.2,2.2,0,0,0-1.066,2.221c.07,2.666.028,5.335.022,8,0,1.638-.527,2.39-1.633,2.373-1.09-.017-1.583-.764-1.586-2.423,0-1.779,0-3.557,0-5.336v-1.5c-1.541,1.32-2.933,2.323-4.09,3.547a3.624,3.624,0,0,1-5.573-.032,51.5,51.5,0,0,0-4.073-3.581c0,.684,0,1.027,0,1.37,0,2.1.018,4.2-.014,6.3a1.543,1.543,0,0,1-1.569,1.657,1.588,1.588,0,0,1-1.6-1.534,7.017,7.017,0,0,1-.019-.853c0-2.881.017-5.762-.021-8.643a1.738,1.738,0,0,0-.462-1.177c-1.45-1.257-2.954-2.454-4.466-3.636a1.257,1.257,0,0,0-.929-.263C168.145,723.429,166.62,723.892,165.089,724.331Zm68.8,40.074V738.057h-8.673v26.349Zm-37.3,5.8c5.3,0,10.452.039,15.6-.022a4.778,4.778,0,0,0,3.99-2.311c1.047-1.552.835-3.221.595-4.936-.109-.782-.385-.982-1.141-.977-4.87.032-9.739.016-14.609.017-.959,0-1.92-.022-2.879.015a1.42,1.42,0,0,0-1.552,1.522C196.58,765.712,196.591,767.912,196.591,770.207Zm-16.178-54.632c0,.791-.042,1.493.008,2.189.155,2.151.6,3.078,2.5,3.534a11.985,11.985,0,0,0,4.067.391c1.66-.19,3.479-.607,3.8-2.727a24.24,24.24,0,0,0,.029-3.449A18.637,18.637,0,0,1,180.413,715.575Zm48.963,54.644v.009q3.941,0,7.882,0c1.176,0,1.808-.486,1.78-1.337-.028-.819-.606-1.237-1.761-1.238q-7.935,0-15.87.01c-1.172,0-1.712.41-1.717,1.262s.551,1.289,1.7,1.293C224.051,770.224,226.714,770.219,229.376,770.219Zm-36.051-5.484c-2.435.009-5.613,2.858-5.749,5.424h5.749Zm-15.388,5.413H183.7a6.743,6.743,0,0,0-5.758-5.416Zm10.544-45.236h-5.623l2.632,6.708.331-.024Zm5.7-5.755-2.938,7.478.121.134,6.645-5.28ZM167.61,690.437a2.335,2.335,0,0,0-1.786,2.326,2.185,2.185,0,0,0,1.786,1.976Zm36.08,4.465c1.138-.572,1.842-1.243,1.754-2.437a2.353,2.353,0,0,0-1.754-2.083Zm18.186,69.512v-2.391h-2.006l.328,2.391Z" fill="#030303"/>
      <path id="Trazado_116040" data-name="Trazado 116040" d="M383.889,899.119c-.311-1.276-.723-1.611-2.082-1.636-.96-.018-1.92,0-2.881,0H375.94c-.02-.324-.055-.627-.056-.93q0-9.6.012-19.2a6.458,6.458,0,0,1,.3-1.166c.12-.59.465-1.331.237-1.744a2.169,2.169,0,0,0-1.6-.906c-3.661-.079-7.325-.041-10.988-.041a12.136,12.136,0,0,0-2.445.042,2.691,2.691,0,0,0-1.579.976,1.373,1.373,0,0,0,.416,1.81,1.192,1.192,0,0,1,.367.793q.021,10.081,0,20.163c0,.029-.036.057-.111.169-.211.01-.482.036-.754.035-6.01-.018-12.019-.06-18.029-.042-1,0-1.31-.4-1.313-1.315-.007-3.094-.068-6.187-.07-9.281q-.011-15.79,0-31.579c0-1.639.2-1.836,1.836-1.836q25.871,0,51.742,0c1.744,0,1.884.143,1.884,1.887q0,20.163,0,40.327c0,1.652-.187,1.843-1.832,1.85-1.209.006-2.418-.013-3.628,0-1.43.012-1.779.277-2.226,1.634ZM367.97,858.785a5.071,5.071,0,1,0,5.129,5.048A5.142,5.142,0,0,0,367.97,858.785Zm-20.057,34.874v-.024c.851,0,1.705.044,2.553-.012a1.43,1.43,0,0,0,1.441-1.537,1.4,1.4,0,0,0-1.412-1.556c-1.7-.066-3.405-.079-5.106-.035a1.577,1.577,0,0,0-.028,3.152C346.207,893.7,347.062,893.659,347.913,893.659Zm7.838-.014a1.619,1.619,0,0,0,1.6-1.533,1.566,1.566,0,0,0-1.641-1.578,1.462,1.462,0,0,0-1.518,1.549A1.58,1.58,0,0,0,355.75,893.645Z" transform="translate(-138.708 -138.705)" fill="#eee"/>
      <path id="Trazado_116041" data-name="Trazado 116041" d="M449.076,741.724q0,2.1-.01,4.208c-1.323.427-1.627.826-1.633,2.221-.01,2.2,0,4.4,0,6.6v1.471a9.941,9.941,0,0,1-.9-.786c-1.57-1.816-3.573-2.294-5.914-2.259-6.246.094-12.493.036-18.74.029-1.667,0-3.333-.036-5-.055,0-2.628-.01-5.256.008-7.883a5.764,5.764,0,0,1,.219-1.1c1.324,1.332,2.63,2.681,3.977,3.989.943.915,2.042.867,2.631-.082a1.631,1.631,0,0,0-.386-2.2c-.874-.854-1.771-1.684-2.726-2.589,1.051-1.017,1.939-1.834,2.777-2.7a1.608,1.608,0,0,0,.155-2.362,1.586,1.586,0,0,0-2.364.076c-1.395,1.361-2.742,2.77-4.11,4.159a3.81,3.81,0,0,1-.175-.8c-.007-2.523,0-5.046.011-7.569.423-.028.846-.079,1.269-.079q13.432-.007,26.864,0c.355,0,.711.01,1.066.005.916-.012,1.373.385,1.348,1.351-.036,1.421-.021,2.843-.005,4.264C447.448,740.959,447.812,741.4,449.076,741.724Zm-16.411-4.153.187-.232a6.145,6.145,0,0,0-1.454-1.28,1.344,1.344,0,0,0-1.8.882c-.481,1.142-.88,2.318-1.3,3.484-1.043,2.865-2.126,5.716-3.077,8.611a2.283,2.283,0,0,0,.384,1.8,1.636,1.636,0,0,0,1.517.315,2.361,2.361,0,0,0,1.113-1.285c1.432-3.778,2.8-7.581,4.183-11.378C432.518,738.194,432.581,737.878,432.665,737.571Zm4.711,5.711c-.989.956-1.872,1.775-2.714,2.633a1.588,1.588,0,0,0-.169,2.441,1.533,1.533,0,0,0,2.349-.14c1.212-1.148,2.384-2.34,3.557-3.529,1.008-1.023,1.007-1.8-.01-2.841q-1.638-1.679-3.32-3.315c-.942-.922-1.911-1.02-2.6-.293-.715.751-.6,1.612.384,2.6C435.625,741.619,436.43,742.37,437.376,743.282Z" transform="translate(-194.794 -51.222)" fill="#fcb50d"/>
      <path id="Trazado_116042" data-name="Trazado 116042" d="M425.109,732.935c-1.264-.321-1.627-.765-1.642-2.087-.016-1.421-.031-2.843.005-4.264.025-.966-.432-1.363-1.348-1.351-.355,0-.711-.005-1.066-.005q-13.432,0-26.864,0c-.423,0-.846.051-1.269.079-1.488-.026-2.976-.08-4.463-.067a1.031,1.031,0,0,0-1.1,1.166q0,8.419,0,16.839a1.033,1.033,0,0,0,1.18,1.173q2.181-.025,4.363-.056c1.667.019,3.333.053,5,.055,6.247.007,12.495.064,18.74-.029,2.341-.035,4.343.443,5.914,2.259a9.947,9.947,0,0,0,.9.786v-1.471c0-2.2-.007-4.4,0-6.6.006-1.395.311-1.794,1.633-2.221a1.87,1.87,0,0,1,1.586,2.146c-.046,2.773-.038,5.548,0,8.322a3.028,3.028,0,0,1-1.773,3.119,2.8,2.8,0,0,1-3.476-.812c-1.609-1.907-3.577-2.372-6.02-2.334-8.747.133-17.5.053-26.246.051-3.472,0-5-1.533-5-5q0-7.9,0-15.791c0-3.155,1.633-4.812,4.786-4.814q16.484-.014,32.968,0c3.112,0,4.74,1.637,4.753,4.717.006,1.387-.024,2.775.009,4.161A1.749,1.749,0,0,1,425.109,732.935Z" transform="translate(-170.828 -42.433)" fill="#050503"/>
      <path id="Trazado_116043" data-name="Trazado 116043" d="M218.125,697.37c-1.341-.3-2.687-.582-4.021-.912a17.2,17.2,0,0,0-2.014-.611,11.459,11.459,0,0,0-2.159.147c-1.116-5.117-.473-9.8,3.186-13.767a2.149,2.149,0,0,0,.519-2.6l3.476-2.2a2.194,2.194,0,0,0,2.673.535,21.7,21.7,0,0,1,8.4-1.505c-.61.389-1.2.819-1.834,1.161a15.568,15.568,0,0,0-8.108,9.5A21.011,21.011,0,0,0,218.125,697.37Z" transform="translate(-42.813 -9.047)" fill="#833c26"/>
      <path id="Trazado_116044" data-name="Trazado 116044" d="M187.189,885.794c1.531-.439,3.056-.9,4.6-1.293a1.257,1.257,0,0,1,.929.263c1.512,1.182,3.016,2.379,4.466,3.636a1.738,1.738,0,0,1,.462,1.177c.038,2.881.02,5.762.021,8.643a7.017,7.017,0,0,0,.019.853,1.588,1.588,0,0,0,1.6,1.534,1.543,1.543,0,0,0,1.569-1.657c.032-2.1.012-4.2.014-6.3,0-.343,0-.686,0-1.37a51.491,51.491,0,0,1,4.073,3.581,3.624,3.624,0,0,0,5.573.032c1.157-1.224,2.549-2.227,4.09-3.547v1.5c0,1.779,0,3.557,0,5.336,0,1.659.5,2.406,1.586,2.423,1.107.017,1.63-.735,1.633-2.373.005-2.668.048-5.337-.022-8a2.2,2.2,0,0,1,1.066-2.221,17.481,17.481,0,0,0,1.557-1.2v32.934a15.035,15.035,0,0,1-1.733-1.39,8.723,8.723,0,0,1-2.083-4.7c-.343-2.142-.66-2.41-2.836-2.41q-6.189,0-12.378,0c-1.816,0-2.193.379-2.5,2.157-.46,2.632-1.282,5.2-4.005,6.235-1.6.607-3.442.556-5.369.828.431-2.925.81-5.509,1.192-8.093q.9-6.062,1.8-12.123c.026-.176.04-.354.049-.531.061-1.125-.435-1.842-1.35-1.956a1.653,1.653,0,0,0-1.813,1.564c-.273,1.611-.478,3.233-.716,4.85-.784,5.3-1.57,10.609-2.376,16.057-.462,0-.912-.02-1.358,0-1.209.066-1.85.638-1.847,1.622s.643,1.563,1.866,1.571c3.166.02,6.331.006,9.5.009,2,0,2.334.339,2.335,2.369,0,1.916,0,3.832,0,5.844H183.346c-.291-.356-.59-.705-.873-1.067-1.841-2.364-1.319-5.021-.936-7.656.451-3.107.923-6.211,1.381-9.317.462-3.141.915-6.284,1.378-9.424s.912-6.283,1.4-9.42C186.172,891.774,186.691,888.786,187.189,885.794Z" transform="translate(-22.1 -161.463)" fill="#6fb3e6"/>
      <path id="Trazado_116045" data-name="Trazado 116045" d="M242.818,754.55a30.764,30.764,0,0,0,13.266-1.937c1.9-.754,3.7-1.743,5.65-2.673a8.381,8.381,0,0,0,5.768,2.945c.06.073.144.127.143.18-.052,4.036.438,8.1-.5,12.1A14.71,14.71,0,0,1,255.6,775.684c-1.257.173-2.542.147-3.814.213a20.963,20.963,0,0,1-5.375-4.588,14.1,14.1,0,0,1-3.1-6.8C242.919,761.219,242.962,757.874,242.818,754.55Z" transform="translate(-67.272 -62.889)" fill="#f5cd9b"/>
      <path id="Trazado_116046" data-name="Trazado 116046" d="M240.36,697.392a21.011,21.011,0,0,1,.116-10.253,15.568,15.568,0,0,1,8.108-9.5c.636-.342,1.224-.772,1.834-1.161,3.522.068,6.926.711,9.566,3.183a14.125,14.125,0,0,0,4.789,2.978c2.878,1.1,4.233,3.56,4.55,6.451a58.109,58.109,0,0,1,.019,6.711,22.191,22.191,0,0,1-4.288-.064,6.617,6.617,0,0,1-2.919-1.582c-1.848-1.686-2.868-1.891-4.995-.572a26.857,26.857,0,0,1-16.169,3.946A3.692,3.692,0,0,1,240.36,697.392Z" transform="translate(-65.048 -9.069)" fill="#92472b"/>
      <path id="Trazado_116047" data-name="Trazado 116047" d="M437.283,967.079H428.61V940.73h8.673Z" transform="translate(-203.394 -202.673)" fill="#eee"/>
      <path id="Trazado_116048" data-name="Trazado 116048" d="M173.945,889.388c-.5,2.992-1.017,5.98-1.488,8.976-.493,3.136-.942,6.279-1.4,9.42s-.915,6.284-1.378,9.424c-.458,3.106-.93,6.21-1.381,9.317-.382,2.634-.9,5.292.936,7.656.282.362.581.712.873,1.067-.675.005-1.354.06-2.024.007a5.3,5.3,0,0,1-4.917-6.22q2.737-17.152,5.5-34.3C169.149,891.7,170.772,890.093,173.945,889.388Z" transform="translate(-8.856 -165.057)" fill="#51a3d6"/>
      <path id="Trazado_116049" data-name="Trazado 116049" d="M321.527,1038.389c0-2.3-.011-4.494.005-6.693a1.42,1.42,0,0,1,1.552-1.522c.958-.037,1.919-.015,2.879-.015,4.87,0,9.74.015,14.609-.017.756,0,1.031.2,1.141.977.24,1.715.452,3.385-.595,4.936a4.778,4.778,0,0,1-3.99,2.311C331.979,1038.427,326.829,1038.389,321.527,1038.389Z" transform="translate(-124.936 -268.182)" fill="#6fb3e6"/>
      <path id="Trazado_116050" data-name="Trazado 116050" d="M267.02,996.665c2.347-.015,4.694-.053,7.039-.013a1.124,1.124,0,0,1,.812.673,12.554,12.554,0,0,0,3.419,6.142,3.552,3.552,0,0,1-2.658,1.78,9.6,9.6,0,0,0-6.324,4.148l-3.165-2.556a9.927,9.927,0,0,0-.668-1.749,4.647,4.647,0,0,1,.22-5.233A22.515,22.515,0,0,0,267.02,996.665Z" transform="translate(-83.353 -243.632)" fill="#a2d7f2"/>
      <path id="Trazado_116051" data-name="Trazado 116051" d="M230.006,764.871c.144,3.323.1,6.669.493,9.962a14.1,14.1,0,0,0,3.1,6.8,20.96,20.96,0,0,0,5.375,4.587,14.111,14.111,0,0,1-10.329-5.4,14.634,14.634,0,0,1-3.274-9.355c-.074-2.446-.014-4.9-.014-7.439Z" transform="translate(-54.46 -73.21)" fill="#e7b681"/>
      <path id="Trazado_116052" data-name="Trazado 116052" d="M260.977,856.463a18.638,18.638,0,0,0,10.4-.063,24.238,24.238,0,0,1-.029,3.449c-.317,2.12-2.136,2.537-3.8,2.727a11.983,11.983,0,0,1-4.067-.391c-1.895-.455-2.344-1.383-2.5-3.534C260.935,857.956,260.977,857.253,260.977,856.463Z" transform="translate(-80.564 -140.888)" fill="#e7b681"/>
      <path id="Trazado_116053" data-name="Trazado 116053" d="M417.626,1054c-2.663,0-5.326.005-7.988,0-1.147,0-1.7-.44-1.7-1.293s.546-1.26,1.717-1.262q7.936-.012,15.871-.01c1.155,0,1.734.419,1.761,1.238.028.851-.6,1.335-1.78,1.337q-3.941.008-7.882,0Z" transform="translate(-188.249 -283.779)" fill="#eee"/>
      <path id="Trazado_116054" data-name="Trazado 116054" d="M252.724,996.749a22.516,22.516,0,0,1-1.324,3.191,4.647,4.647,0,0,0-.22,5.233,9.926,9.926,0,0,1,.668,1.749c-1.645-.6-3.318-1.131-4.919-1.831a7.62,7.62,0,0,1-1.674-1.453,12.874,12.874,0,0,0,3.678-6.89Z" transform="translate(-69.057 -243.716)" fill="#6fb3e6"/>
      <path id="Trazado_116055" data-name="Trazado 116055" d="M293.564,1040.521v5.424h-5.749C287.951,1043.379,291.129,1040.53,293.564,1040.521Z" transform="translate(-100.239 -275.786)" fill="#e7b681"/>
      <path id="Trazado_116056" data-name="Trazado 116056" d="M251.762,1045.925v-5.416a6.743,6.743,0,0,1,5.758,5.416Z" transform="translate(-73.825 -275.778)" fill="#e7b681"/>
      <path id="Trazado_116057" data-name="Trazado 116057" d="M275.793,891.558l-2.659,6.683-.331.024-2.632-6.708Z" transform="translate(-87.311 -166.647)" fill="#eee"/>
      <path id="Trazado_116058" data-name="Trazado 116058" d="M304.484,870.03l3.828,2.333-6.645,5.28-.121-.134Z" transform="translate(-110.299 -150.874)" fill="#51a3d6"/>
      <path id="Trazado_116059" data-name="Trazado 116059" d="M240.81,877.041l-6.525-5.156,3.9-2.307,2.779,7.33A.981.981,0,0,0,240.81,877.041Z" transform="translate(-61.02 -150.542)" fill="#51a3d6"/>
      <path id="Trazado_116060" data-name="Trazado 116060" d="M208.216,762.6v4.3a2.185,2.185,0,0,1-1.786-1.976A2.335,2.335,0,0,1,208.216,762.6Z" transform="translate(-40.606 -72.168)" fill="#e7b681"/>
      <path id="Trazado_116061" data-name="Trazado 116061" d="M348.089,766.921V762.4a2.353,2.353,0,0,1,1.754,2.083C349.931,765.677,349.227,766.349,348.089,766.921Z" transform="translate(-144.4 -72.018)" fill="#e7b681"/>
      <path id="Trazado_116062" data-name="Trazado 116062" d="M258.848,897l.029.248-.184-.114A.98.98,0,0,1,258.848,897Z" transform="translate(-78.903 -170.631)" fill="#51a3d6"/>
      <path id="Trazado_116063" data-name="Trazado 116063" d="M429.974,873.483a5.071,5.071,0,1,1-5.024,5.151A5.138,5.138,0,0,1,429.974,873.483Zm1.866,5.112a1.875,1.875,0,0,0-1.786-1.879,1.95,1.95,0,0,0-1.852,1.84,1.829,1.829,0,0,0,1.755,1.784A1.794,1.794,0,0,0,431.84,878.595Z" transform="translate(-200.712 -153.404)" fill="#030303"/>
      <path id="Trazado_116064" data-name="Trazado 116064" d="M357.595,995.191c-.851,0-1.706.046-2.553-.012a1.577,1.577,0,0,1,.028-3.152c1.7-.044,3.406-.031,5.106.035a1.4,1.4,0,0,1,1.412,1.556,1.43,1.43,0,0,1-1.441,1.537c-.847.056-1.7.012-2.553.012Z" transform="translate(-148.39 -240.237)" fill="#050503"/>
      <path id="Trazado_116065" data-name="Trazado 116065" d="M393.769,995.357a1.58,1.58,0,0,1-1.556-1.562,1.462,1.462,0,0,1,1.518-1.549,1.566,1.566,0,0,1,1.641,1.578A1.619,1.619,0,0,1,393.769,995.357Z" transform="translate(-176.727 -240.417)" fill="#050503"/>
      <path id="Trazado_116066" data-name="Trazado 116066" d="M401.691,753.191q-2.181.028-4.363.056a1.033,1.033,0,0,1-1.18-1.173q0-8.42,0-16.839a1.031,1.031,0,0,1,1.1-1.166c1.487-.013,2.975.041,4.463.067-.007,2.523-.019,5.046-.011,7.569a3.81,3.81,0,0,0,.175.8q.023.852.045,1.7a5.764,5.764,0,0,0-.219,1.1C401.68,747.935,401.69,750.563,401.691,753.191Z" transform="translate(-179.61 -51.259)" fill="#ec9f03"/>
      <path id="Trazado_116067" data-name="Trazado 116067" d="M455.355,742.853c-.084.308-.146.623-.255.922-1.382,3.8-2.751,7.6-4.183,11.378a2.361,2.361,0,0,1-1.113,1.285,1.636,1.636,0,0,1-1.517-.315,2.283,2.283,0,0,1-.384-1.8c.951-2.895,2.034-5.747,3.077-8.611.424-1.166.823-2.342,1.3-3.484a1.344,1.344,0,0,1,1.8-.882,6.145,6.145,0,0,1,1.454,1.28Z" transform="translate(-217.485 -56.505)" fill="#050503"/>
      <path id="Trazado_116068" data-name="Trazado 116068" d="M484.307,753.53c-.946-.912-1.751-1.663-2.528-2.443-.985-.99-1.1-1.852-.384-2.6.693-.727,1.663-.63,2.6.293q1.676,1.642,3.32,3.315c1.017,1.043,1.018,1.818.01,2.841-1.172,1.19-2.344,2.381-3.557,3.529a1.533,1.533,0,0,1-2.349.14,1.588,1.588,0,0,1,.169-2.441C482.435,755.3,483.318,754.485,484.307,753.53Z" transform="translate(-241.725 -61.47)" fill="#050503"/>
      <path id="Trazado_116069" data-name="Trazado 116069" d="M417.606,754.387q-.022-.852-.045-1.7c1.367-1.389,2.715-2.8,4.11-4.159a1.585,1.585,0,0,1,2.364-.076,1.608,1.608,0,0,1-.155,2.362c-.839.864-1.726,1.681-2.777,2.7.955.905,1.852,1.735,2.726,2.589a1.631,1.631,0,0,1,.386,2.2c-.589.949-1.688,1-2.631.082C420.237,757.068,418.93,755.718,417.606,754.387Z" transform="translate(-195.299 -61.434)" fill="#050503"/>
      <path id="Trazado_116070" data-name="Trazado 116070" d="M440.757,887.455a1.794,1.794,0,0,1-1.883,1.745,1.829,1.829,0,0,1-1.755-1.784,1.95,1.95,0,0,1,1.852-1.84A1.875,1.875,0,0,1,440.757,887.455Z" transform="translate(-209.629 -162.264)" fill="#eee"/>
    </g>
    <g id="Grupo_108921" data-name="Grupo 108921" transform="translate(770.673 646.626)">
      <path id="Trazado_116071" data-name="Trazado 116071" d="M273.433,721.092a13,13,0,0,1-8.153,10.091c.191.819.349,1.662.6,2.475a.983.983,0,0,0,.671.461,39.052,39.052,0,0,1,22.737,13.82l4.08-12.265c-2.868-.455-4.855-1.945-5.232-4.911a5.322,5.322,0,0,1,2.977-5.512,16.387,16.387,0,1,1,19.378.01,5.815,5.815,0,0,1,3.034,5.761,41.138,41.138,0,0,0,.015,5.445,5.659,5.659,0,0,1-7.294,6.145v1.235c0,5.751-.183,11.51.047,17.251.278,6.954-3.761,12.807-10.91,14.339V790.03h21.686v3.643c-.275.015-.6.049-.923.049q-36.6,0-73.2,0a19.945,19.945,0,0,1-20.237-20.284,98.928,98.928,0,0,1,.247-11.788c1.486-12.284,8.146-20.852,19.44-25.811a27.842,27.842,0,0,1,4.957-1.548c.883-.2,1.3-.553,1.419-1.41.075-.555.234-1.1.368-1.7a13.372,13.372,0,0,1-5.459-3.982,12.941,12.941,0,0,1-2.678-6.088,7.632,7.632,0,0,1-5.222-2.12,7.36,7.36,0,0,1-1.481-8.373,3.018,3.018,0,0,0,.2-1.888c-1.811-6.743-1.016-13.074,3.122-18.772a20.389,20.389,0,0,1,17.042-8.815,42.73,42.73,0,0,1,9.8.616c11.805,2.682,18.6,14.284,15.591,26.21a4.416,4.416,0,0,0,.183,3.11,7.217,7.217,0,0,1-6.069,9.969C273.953,721.065,273.728,721.073,273.433,721.092ZM256.78,697.419a11.364,11.364,0,0,1-1.342-5.36h3.5c.818,4.889,3.007,6.791,7.949,7.27a8.66,8.66,0,0,1,3.557,1.306,7.083,7.083,0,0,1,3.172,5.793l2.852.591a3.786,3.786,0,0,0,.223-.529,17.543,17.543,0,0,0-11.568-20.834,27.756,27.756,0,0,0-13.809-.5,17.246,17.246,0,0,0-14.021,15.655,14.493,14.493,0,0,0,.65,6.223l2.915-.637c-.314-5.524,2.074-9.2,7.492-10.68l-.26-3.643h3.248l1.711,5.607,3.168,3.977L254.39,704.4a13.372,13.372,0,0,1-4.234-4.454.986.986,0,0,0-1.264-.565,5.41,5.41,0,0,0-4.379,5.223c-.035,4.995-.059,9.99.011,14.984.059,4.167,3.158,8.02,7.292,8.465a51.131,51.131,0,0,0,10.845-.008c4.017-.431,7.13-4.233,7.224-8.289.1-4.425.055-8.854.023-13.28a3.516,3.516,0,0,0-3.421-3.552A11.279,11.279,0,0,1,256.78,697.419Zm11.355,40.6a33.257,33.257,0,0,1-10.925,25.556,33.042,33.042,0,0,1-10.923-25.18,1.523,1.523,0,0,0-.364,0c-9.912,2.733-18.473,12.831-19.322,23.11-.345,4.173-.3,8.39-.234,12.584a15.889,15.889,0,0,0,6.1,12.4c4.6,3.834,10.045,3.835,15.588,3.518v-7.183c-1.727,0-3.386.006-5.045,0a9.083,9.083,0,0,1-9.414-9.455q-.016-9.307,0-18.614c0-.323.038-.646.056-.946h3.577v1.266c0,6.2-.017,12.41.008,18.614a5.414,5.414,0,0,0,5.455,5.494c1.778.028,3.557.03,5.333-.015a1.316,1.316,0,0,0,.992-.46c1.362-2.582,3.475-3.52,6.4-2.973v-7.374h10.921V790h3.581V764.645h7.292V753.832h3.609c0,2.567-.009,5.06.01,7.552a1.843,1.843,0,0,0,.234,1.057c1.038,1.318,2.137,2.588,3.214,3.875l.279-.038c-.731-3.709,1.067-6.865,2.043-10.2a27.731,27.731,0,0,1,.984-2.893,1.678,1.678,0,0,0-.309-1.843,34.1,34.1,0,0,0-12.44-10.518C272.726,739.781,270.487,738.992,268.136,738.017Zm45.376-25.991a12.711,12.711,0,1,0-12.728,12.667A12.749,12.749,0,0,0,313.511,712.026ZM295.24,741.583l-6.46,19.481h6.588V771.6a9.129,9.129,0,0,0,7.223-8.665c.069-5.371.022-10.744.021-16.116a4.546,4.546,0,0,0-.062-.539C298.491,746.836,296.809,745.771,295.24,741.583Zm-7.084,23.107v25.328h3.5V764.689Zm-36.391,25.4c2.465,0,4.77.014,7.074,0a3.634,3.634,0,1,0-.018-7.257c-1.122-.012-2.244,0-3.434,0a8.762,8.762,0,0,0-.041-2.133,2.195,2.195,0,0,0-1-1.334,1.632,1.632,0,0,0-1.5.3,3.723,3.723,0,0,0-1.03,2.063C251.7,784.472,251.764,787.226,251.764,790.087Zm21.861-21.765v21.694h3.5V768.323Zm7.268-.284V790.01h3.559c0-5.895,0-11.712-.01-17.529a1.167,1.167,0,0,0-.243-.706C283.145,770.552,282.063,769.353,280.894,768.039ZM299,728.329c0,4.332-.032,8.626.045,12.917a2.073,2.073,0,0,0,.986,1.377c1.207.721,2.563-.228,2.573-1.773.026-3.737.009-7.474.009-11.211v-1.311Zm-37.3,3.665h-8.986l-.621,2.636c1.616.809,3.124,1.579,4.65,2.312a1.081,1.081,0,0,0,.817.055c1.592-.758,3.162-1.563,4.78-2.374Zm48.178,1.757c0-1.168.025-2.337-.007-3.5a1.808,1.808,0,1,0-3.61,0c-.029,2.336-.025,4.673,0,7.009a1.814,1.814,0,1,0,3.615,0C309.9,736.088,309.88,734.919,309.879,733.751Zm-52.55,24.588c.867-1.2,1.728-2.338,2.521-3.523a1.276,1.276,0,0,0,.109-1q-.916-2.49-1.959-4.932a1.051,1.051,0,0,0-.788-.527,1.11,1.11,0,0,0-.791.524,14.952,14.952,0,0,0-.738,1.769c-1.657,4.149-1.657,4.149,1.376,7.524A2.392,2.392,0,0,0,257.33,758.339Zm5.309,13.645h-3.567v7.04l3.567.987ZM240.814,710.2a3.588,3.588,0,0,0,0,7.176Zm32.8.009v7.176a3.588,3.588,0,0,0,0-7.176Zm19.933,21.74a1.809,1.809,0,1,0-1.82-1.768A1.829,1.829,0,0,0,293.548,731.953Zm-41.636,18.054c1.676-3.192,1.628-4.061-.336-6.725-.4.374-1.143.8-1.09,1.069C250.847,746.176,251.375,747.968,251.912,750.007Zm10.772-6.526c-1.819,2.587-1.862,3.455-.176,6.456.473-1.735.832-3.3,1.336-4.818C264.241,743.921,263.713,743.567,262.684,743.481Zm-7.447-1.384a19.74,19.74,0,0,0,1.011,1.981,1.27,1.27,0,0,0,.909.558,1.47,1.47,0,0,0,1.018-.568,16.53,16.53,0,0,0,1.015-1.982A3.033,3.033,0,0,0,255.238,742.1Zm-2.453-3.054-2.759-1.375v2.47Zm11.661-1.411-2.761,1.428,2.761,1.1Z" transform="translate(-41.529)" fill="#030404"/>
      <path id="Trazado_116072" data-name="Trazado 116072" d="M205.048,780.6H187.017v-3.543h18.031Z" transform="translate(-16.695 -66.843)"/>
      <path id="Trazado_116073" data-name="Trazado 116073" d="M186.949,804.58v-3.5h18.072v3.5Z" transform="translate(-16.647 -83.582)"/>
      <path id="Trazado_116074" data-name="Trazado 116074" d="M205.15,753.153v3.5H187.079v-3.5Z" transform="translate(-16.738 -50.191)"/>
      <path id="Trazado_116075" data-name="Trazado 116075" d="M166.626,804.626h-3.5V801.09h3.5Z" transform="translate(-0.052 -83.592)"/>
      <path id="Trazado_116076" data-name="Trazado 116076" d="M163.185,777.049h3.5v3.542h-3.5Z" transform="translate(-0.089 -66.841)"/>
      <path id="Trazado_116077" data-name="Trazado 116077" d="M166.558,756.673c-1.143,0-2.2,0-3.26,0a.867.867,0,0,1-.242-.1v-3.48h3.5Z" transform="translate(0 -50.149)"/>
      <path id="Trazado_116078" data-name="Trazado 116078" d="M276.556,868.755c2.351.975,4.59,1.764,6.7,2.808A34.1,34.1,0,0,1,295.7,882.08a1.678,1.678,0,0,1,.309,1.843,27.725,27.725,0,0,0-.984,2.893c-.976,3.334-2.774,6.491-2.043,10.2l-.279.038c-1.077-1.287-2.176-2.557-3.214-3.875a1.843,1.843,0,0,1-.233-1.057c-.019-2.493-.01-4.986-.01-7.552h-3.609v10.813h-7.292v25.356h-3.581V899.1H263.842v7.374c-2.923-.547-5.036.391-6.4,2.973a1.316,1.316,0,0,1-.992.46c-1.777.045-3.556.043-5.333.015a5.414,5.414,0,0,1-5.455-5.494c-.025-6.2-.008-12.409-.008-18.614v-1.266h-3.577c-.019.3-.056.623-.056.946q0,9.307,0,18.614a9.083,9.083,0,0,0,9.414,9.455c1.659.007,3.318,0,5.045,0v7.183c-5.543.317-10.987.315-15.588-3.518a15.889,15.889,0,0,1-6.1-12.4c-.062-4.194-.111-8.41.234-12.584.85-10.279,9.41-20.377,19.322-23.11a1.519,1.519,0,0,1,.364,0,33.042,33.042,0,0,0,10.923,25.18A33.257,33.257,0,0,0,276.556,868.755Z" transform="translate(-49.949 -130.738)" fill="#4ec0e7"/>
      <path id="Trazado_116079" data-name="Trazado 116079" d="M306.917,734.872a11.279,11.279,0,0,0,9.707,5.5,3.516,3.516,0,0,1,3.421,3.552c.032,4.427.08,8.856-.023,13.28-.094,4.055-3.207,7.858-7.224,8.289a51.131,51.131,0,0,1-10.845.008c-4.134-.445-7.233-4.3-7.292-8.465-.07-4.994-.046-9.989-.011-14.984a5.409,5.409,0,0,1,4.379-5.223.986.986,0,0,1,1.264.565,13.373,13.373,0,0,0,4.234,4.454l1.828-2.736-3.168-3.977Zm-4.984,27.264c2.645,0,5.178.082,7.7-.019a7.088,7.088,0,0,0,6.706-7.19h-3.472c-.565,2.631-1.743,3.586-4.405,3.587q-3.264,0-6.532,0ZM316.423,745.8a1.81,1.81,0,1,0-1.78,1.815A1.824,1.824,0,0,0,316.423,745.8Zm-14.53.006a1.811,1.811,0,1,0-1.786,1.808A1.824,1.824,0,0,0,301.893,745.8Z" transform="translate(-91.666 -37.453)" fill="#eeceb2"/>
      <path id="Trazado_116080" data-name="Trazado 116080" d="M290.209,705.25l-3.73.266-1.711-5.607H281.52l.26,3.643c-5.418,1.483-7.806,5.157-7.492,10.68l-2.915.637a14.493,14.493,0,0,1-.65-6.223,17.246,17.246,0,0,1,14.021-15.655,27.756,27.756,0,0,1,13.809.5A17.543,17.543,0,0,1,310.12,714.32a3.787,3.787,0,0,1-.224.529l-2.852-.591a7.083,7.083,0,0,0-3.172-5.793,8.66,8.66,0,0,0-3.557-1.306c-4.941-.479-7.131-2.381-7.949-7.27h-3.5A11.364,11.364,0,0,0,290.209,705.25Z" transform="translate(-74.958 -7.831)" fill="#b07845"/>
      <path id="Trazado_116081" data-name="Trazado 116081" d="M463.858,753.728a12.711,12.711,0,1,1-12.636-12.758A12.748,12.748,0,0,1,463.858,753.728Zm-12.8,9.034a9.08,9.08,0,1,0-8.985-9.172A9.1,9.1,0,0,0,451.055,762.761Z" transform="translate(-191.875 -41.702)" fill="#e2e5e9"/>
      <path id="Trazado_116082" data-name="Trazado 116082" d="M447.171,880.515c1.57,4.188,3.251,5.253,7.31,4.7a4.542,4.542,0,0,1,.062.539c0,5.372.048,10.745-.021,16.116a9.129,9.129,0,0,1-7.223,8.665V900h-6.588Z" transform="translate(-193.46 -138.932)" fill="#4ec0e7"/>
      <path id="Trazado_116083" data-name="Trazado 116083" d="M438.652,956.716h3.5v25.328h-3.5Z" transform="translate(-192.025 -192.027)" fill="#fee9a6"/>
      <path id="Trazado_116084" data-name="Trazado 116084" d="M318.6,1015.649c0-2.861-.069-5.616.047-8.363a3.723,3.723,0,0,1,1.03-2.063,1.632,1.632,0,0,1,1.5-.3,2.2,2.2,0,0,1,1,1.334,8.762,8.762,0,0,1,.041,2.133c1.19,0,2.312-.01,3.434,0a3.634,3.634,0,1,1,.018,7.257C323.365,1015.663,321.06,1015.649,318.6,1015.649Z" transform="translate(-108.36 -225.562)" fill="#eeceb2"/>
      <path id="Trazado_116085" data-name="Trazado 116085" d="M390.736,968.7h3.5v21.694h-3.5Z" transform="translate(-158.639 -200.375)" fill="#fee9a6"/>
      <path id="Trazado_116086" data-name="Trazado 116086" d="M414.7,967.762c1.169,1.314,2.252,2.513,3.306,3.735a1.168,1.168,0,0,1,.243.706c.013,5.817.01,11.635.01,17.529H414.7Z" transform="translate(-175.339 -199.723)" fill="#4ec0e7"/>
      <path id="Trazado_116087" data-name="Trazado 116087" d="M474.408,836.807h3.613v1.311c0,3.737.017,7.474-.009,11.211-.011,1.545-1.367,2.493-2.573,1.773a2.072,2.072,0,0,1-.986-1.377C474.377,845.433,474.408,841.139,474.408,836.807Z" transform="translate(-216.934 -108.478)" fill="#959ea9"/>
      <path id="Trazado_116088" data-name="Trazado 116088" d="M329.337,848.893l.64,2.629c-1.618.811-3.188,1.616-4.78,2.374a1.081,1.081,0,0,1-.817-.056c-1.526-.733-3.034-1.5-4.65-2.312l.621-2.636Z" transform="translate(-109.164 -116.899)" fill="#eeceb2"/>
      <path id="Trazado_116089" data-name="Trazado 116089" d="M501.933,842.247c0,1.168.022,2.337-.005,3.5a1.814,1.814,0,1,1-3.615,0c-.023-2.336-.026-4.673,0-7.009a1.808,1.808,0,1,1,3.61,0C501.957,839.909,501.932,841.078,501.933,842.247Z" transform="translate(-233.582 -108.495)" fill="#eeceb2"/>
      <path id="Trazado_116090" data-name="Trazado 116090" d="M330.665,912.827a2.385,2.385,0,0,1-.27-.17c-3.032-3.375-3.033-3.375-1.376-7.524a14.949,14.949,0,0,1,.738-1.769,1.109,1.109,0,0,1,.791-.524,1.051,1.051,0,0,1,.788.527q1.045,2.439,1.959,4.932a1.276,1.276,0,0,1-.109,1C332.393,910.489,331.532,911.629,330.665,912.827Z" transform="translate(-114.865 -154.488)" fill="#fee9a6"/>
      <path id="Trazado_116091" data-name="Trazado 116091" d="M346.308,980.773V988.8l-3.567-.987v-7.04Z" transform="translate(-125.198 -208.789)" fill="#fee9a6"/>
      <path id="Trazado_116092" data-name="Trazado 116092" d="M274.3,777.035v7.176a3.588,3.588,0,0,1,0-7.176Z" transform="translate(-75.012 -66.831)" fill="#eeceb2"/>
      <path id="Trazado_116093" data-name="Trazado 116093" d="M390.7,777.051a3.588,3.588,0,0,1,0,7.176Z" transform="translate(-158.615 -66.837)" fill="#eeceb2"/>
      <path id="Trazado_116094" data-name="Trazado 116094" d="M452.255,840.447a1.809,1.809,0,1,1,1.795-1.793A1.828,1.828,0,0,1,452.255,840.447Z" transform="translate(-200.235 -108.494)" fill="#eeceb2"/>
      <path id="Trazado_116095" data-name="Trazado 116095" d="M315.846,892.844c-.537-2.039-1.065-3.831-1.426-5.656-.053-.268.692-.694,1.09-1.069C317.474,888.783,317.522,889.652,315.846,892.844Z" transform="translate(-105.463 -142.837)" fill="#acd47a"/>
      <path id="Trazado_116096" data-name="Trazado 116096" d="M351.429,886.774c1.029.087,1.557.441,1.16,1.637-.5,1.518-.862,3.083-1.336,4.818C349.567,890.229,349.61,889.361,351.429,886.774Z" transform="translate(-130.273 -143.293)" fill="#acd47a"/>
      <path id="Trazado_116097" data-name="Trazado 116097" d="M330.1,880.513a3.033,3.033,0,0,1,3.952-.012,16.529,16.529,0,0,1-1.015,1.982,1.47,1.47,0,0,1-1.018.568,1.27,1.27,0,0,1-.909-.558A19.736,19.736,0,0,1,330.1,880.513Z" transform="translate(-116.387 -138.416)" fill="#f5d16d"/>
      <path id="Trazado_116098" data-name="Trazado 116098" d="M315.665,868.979l-2.759,1.095V867.6Z" transform="translate(-104.41 -129.936)" fill="#97c962"/>
      <path id="Trazado_116099" data-name="Trazado 116099" d="M354.114,867.487v2.526l-2.761-1.1Z" transform="translate(-131.198 -129.855)" fill="#97c962"/>
      <path id="Trazado_116100" data-name="Trazado 116100" d="M318.749,808.218V804.6q3.271,0,6.532,0c2.662,0,3.841-.956,4.405-3.587h3.472a7.088,7.088,0,0,1-6.706,7.19C323.927,808.3,321.394,808.218,318.749,808.218Z" transform="translate(-108.481 -83.535)" fill="#030404"/>
      <path id="Trazado_116101" data-name="Trazado 116101" d="M358.211,766.746a1.81,1.81,0,1,1-1.785-1.807A1.829,1.829,0,0,1,358.211,766.746Z" transform="translate(-133.453 -58.402)" fill="#030404"/>
      <path id="Trazado_116102" data-name="Trazado 116102" d="M310.294,766.752a1.811,1.811,0,1,1-1.78-1.813A1.829,1.829,0,0,1,310.294,766.752Z" transform="translate(-100.066 -58.402)" fill="#030404"/>
      <path id="Trazado_116103" data-name="Trazado 116103" d="M459.4,771.109a9.08,9.08,0,1,1,9.17-8.988A9.108,9.108,0,0,1,459.4,771.109Zm.057-14.525a5.445,5.445,0,1,0,5.479,5.466A5.469,5.469,0,0,0,459.459,756.584Z" transform="translate(-200.222 -50.049)" fill="#030404"/>
      <path id="Trazado_116104" data-name="Trazado 116104" d="M467.809,764.935a5.445,5.445,0,1,1-5.409,5.422A5.466,5.466,0,0,1,467.809,764.935Z" transform="translate(-208.572 -58.4)" fill="#68d3f1"/>
    </g>
    <g id="Grupo_108922" data-name="Grupo 108922" transform="translate(1006.46 471.656)">
      <path id="Trazado_116105" data-name="Trazado 116105" d="M243.253,739.483v9.761c1.532,0,3.028-.007,4.524,0,1.412.008,2,.588,2.007,1.991.01,1.852,0,3.7,0,5.555,0,1.833-.488,2.33-2.29,2.33H213.643c0,.394,0,.725,0,1.056-.007,1.734-.516,2.233-2.281,2.237h-60.98c-2.021,0-2.453-.435-2.453-2.474q0-48.558,0-97.115c0-2.047.428-2.481,2.443-2.481h97.014c1.949,0,2.4.454,2.4,2.425q0,37.087,0,74.174c0,1.967-.452,2.421-2.4,2.423q-2,0-4,.014C243.354,739.382,243.328,739.421,243.253,739.483Zm1.807-36.367h1.371V676.872H210.392v2.615q-.007,11.722-.01,23.445c0,.054.069.108.143.216h7.238c2.02,0,2.452.437,2.453,2.476,0,1.757,0,3.514,0,5.465,2.853-2.448,5.544-4.718,8.183-7.047a3.476,3.476,0,0,1,2.5-.911C235.619,703.158,240.339,703.127,245.059,703.116Zm-5.155,3.325c-1.493,0-2.891,0-4.289,0-1.641.007-3.44-.393-4.879.153-1.476.56-2.6,2.046-3.877,3.135q-3.474,2.971-6.936,5.955a1.738,1.738,0,0,1-2.049.459,1.8,1.8,0,0,1-.951-1.884c.022-1.543.006-3.086.006-4.63v-3.19h-7.5c-1.889,0-2.358-.47-2.358-2.363q0-14.095,0-28.189c0-1.9.465-2.373,2.346-2.373h30.456v-3.24H157.859v33.416c1.115-3.133,3.333-4.063,6.286-3.835-.914-1.841-1.788-3.5-2.575-5.206a10.117,10.117,0,0,1,5.031-13.563,21.583,21.583,0,0,0,4.094-2.46,15.946,15.946,0,0,1,13.659-2.987,43.706,43.706,0,0,1,7.5,2.942c7.213,3.288,10.029,10.71,6.912,17.992-.454,1.06-.91,2.119-1.409,3.283.589,0,1.058-.009,1.527,0a4.935,4.935,0,0,1,.043,9.87c-.679.017-1.358,0-2.031,0a15.684,15.684,0,0,1-6.342,9.838,3.049,3.049,0,0,0-1.548,3.344,1.593,1.593,0,0,0,.092.244c2.595.44,5.222.87,7.843,1.336,1.666.3,2.062.877,1.8,2.581,2.471.741,4.949,1.493,7.434,2.219a4.736,4.736,0,0,0,1.3.188q15.81.015,31.62.006c.261,0,.522-.031.8-.049Zm-29.547,52.641v-.991q0-9.978,0-19.957a4.974,4.974,0,0,0-3.918-5.307c-2.844-.858-5.7-1.668-8.532-2.576-.772-.248-1.069-.02-1.416.618-1.93,3.547-3.893,7.076-5.861,10.6-.846,1.516-2.048,1.607-3.169.264-1.426-1.71-2.843-3.427-4.268-5.137-.2-.24-.429-.456-.82-.867v11.82h-3.243V735.71c-1.761,2.114-3.351,4.026-4.944,5.936-1.213,1.454-2.364,1.359-3.277-.28-1.949-3.5-3.9-6.993-5.82-10.508-.349-.64-.645-.859-1.415-.611-2.828.907-5.688,1.716-8.533,2.569a4.958,4.958,0,0,0-3.922,5.3q0,9.979,0,19.957c0,.33.028.661.042.978h9.868v-11.4h3.246v11.408H197.26V747.643h3.246v11.439Zm-59.092-95.414v67.239l3.236-1.434v-1.193q0-29.577,0-59.155c0-1.6.534-2.192,2.013-2.192q42.348,0,84.7,0c1.41,0,1.991.589,2,2,.011,1.5,0,3,0,4.529h3.224v-9.793Zm40.463,32.167c-7.35,5.419-14.617,5.363-21.806.062-1.658,2.509-2.707,5.108-2.3,8.134a20.96,20.96,0,0,1,.02,2.567,13.2,13.2,0,0,0,11.907,12.969,12.882,12.882,0,0,0,13.911-10.034c.591-2.979.333-6.127.447-9.2a1.116,1.116,0,0,0-.178-.471C193.083,698.548,192.427,697.236,191.728,695.834Zm-13.919-8.262c-.419-.553-.741-1.038-1.123-1.471a7.3,7.3,0,0,0-6.777-2.623,6.683,6.683,0,0,0-5.587,4.564c-1.109,2.972.19,5.436,1.606,7.871.109-.025.159-.023.169-.041.534-1.032,1.057-2.07,1.6-3.1a1.674,1.674,0,0,1,2.777-.669c.969.7,1.9,1.459,2.894,2.126a12.964,12.964,0,0,0,10.955,1.84c2.6-.675,4.6-2.346,6.687-3.891,1.245-.923,2.208-.7,2.908.664.493.964.966,1.938,1.485,2.981,2.492-4.373,1.473-10.071-2.542-12.816a23.7,23.7,0,0,0-11.1-4.472,12.4,12.4,0,0,0-7.746,1.877c4.515,2.649,5.448,3.432,6.4,5.412Zm65.406,18.9v1.206q0,11.361,0,22.721c0,1.9-.471,2.378-2.345,2.378H212.223l1.356,3.235h32.865V706.476Zm-29.548,42.709H233.3v-9.76H213.666Zm-50.815-22.122c-.32-1.631.131-2.274,1.711-2.551.336-.059.672-.122,1.009-.178l7-1.183a6.081,6.081,0,0,1,.008-.984,2.089,2.089,0,0,0-1.178-2.3,15.647,15.647,0,0,1-6.242-8.4c-.186-.571-.346-1.151-.442-1.474a32.754,32.754,0,0,1-4.237-.857c-1.35-.459-2.052-1.714-2.648-3.21v22.645ZM246.469,752.6H213.711v3.17h32.758Zm-62.653-20.385,4.918,5.9,5.909-10.675c-1.86-.3-3.573-.6-5.293-.846-.226-.032-.656.147-.711.318A8.506,8.506,0,0,1,183.816,732.213Zm-16.9-4.769,5.929,10.664,4.918-5.913a8.523,8.523,0,0,1-4.974-5.721Zm8.956-5.281c0,1.043-.063,1.97.013,2.885a4.949,4.949,0,0,0,4.413,4.422,4.819,4.819,0,0,0,5.185-3.58,25.9,25.9,0,0,0,.313-3.766A16.868,16.868,0,0,1,175.876,722.163Zm64.02,17.291h-3.185v9.7H239.9ZM164.32,703.149c-1.11.077-2.349-.4-2.981.847a2.065,2.065,0,0,0,.07,1.7c.671,1.133,1.855.656,2.911.743Zm32.924,3.291c1.149-.073,2.406.39,3.006-.886a2.052,2.052,0,0,0-.11-1.7c-.7-1.086-1.853-.658-2.9-.661Z" fill="#010101"/>
      <path id="Trazado_116106" data-name="Trazado 116106" d="M266.175,732.714v23c-.28.018-.541.049-.8.049q-15.81,0-31.62-.006a4.736,4.736,0,0,1-1.3-.188c-2.485-.726-4.963-1.479-7.434-2.219.26-1.7-.135-2.285-1.8-2.581-2.621-.465-5.249-.9-7.843-1.336a1.6,1.6,0,0,1-.092-.244,3.049,3.049,0,0,1,1.548-3.344A15.684,15.684,0,0,0,223.168,736c.673,0,1.353.015,2.031,0a4.935,4.935,0,0,0-.043-9.87c-.469-.01-.939,0-1.527,0,.5-1.164.956-2.223,1.409-3.283,3.117-7.282.3-14.7-6.912-17.992a43.706,43.706,0,0,0-7.5-2.942,15.946,15.946,0,0,0-13.659,2.987,21.583,21.583,0,0,1-4.094,2.46,10.117,10.117,0,0,0-5.031,13.563c.787,1.7,1.661,3.365,2.575,5.206-2.953-.229-5.17.7-6.286,3.835V696.548h82.014v3.24H235.688c-1.881,0-2.346.471-2.346,2.373q0,14.095,0,28.189c0,1.893.469,2.363,2.358,2.363h7.5v3.19c0,1.543.016,3.087-.006,4.63a1.8,1.8,0,0,0,.951,1.884,1.738,1.738,0,0,0,2.049-.459q3.46-2.987,6.936-5.955c1.273-1.089,2.4-2.575,3.877-3.135,1.439-.546,3.238-.146,4.879-.153C263.284,732.709,264.682,732.714,266.175,732.714Z" transform="translate(-26.271 -26.273)" fill="#f1f1f1"/>
      <path id="Trazado_116107" data-name="Trazado 116107" d="M219.05,943.756H209.2V932.317h-3.246v11.414H173.067V932.323h-3.246v11.4h-9.868c-.014-.317-.042-.648-.042-.978q0-9.979,0-19.958a4.958,4.958,0,0,1,3.922-5.3c2.846-.853,5.705-1.662,8.533-2.569.769-.247,1.066-.028,1.415.611,1.916,3.516,3.871,7.01,5.82,10.508.913,1.639,2.065,1.734,3.277.28,1.593-1.91,3.184-3.822,4.944-5.936v11.84h3.243V920.4c.391.411.62.627.82.866,1.426,1.71,2.842,3.427,4.268,5.137,1.121,1.344,2.323,1.253,3.169-.264,1.968-3.526,3.931-7.055,5.861-10.6.347-.638.644-.866,1.416-.618,2.828.909,5.688,1.718,8.532,2.576a4.974,4.974,0,0,1,3.918,5.307q0,9.978,0,19.957Z" transform="translate(-8.693 -184.674)" fill="#779fd3"/>
      <path id="Trazado_116108" data-name="Trazado 116108" d="M410.286,753.706c-4.72.011-9.44.042-14.16.015a3.476,3.476,0,0,0-2.5.911c-2.639,2.329-5.33,4.6-8.183,7.048,0-1.951,0-3.708,0-5.465,0-2.039-.433-2.476-2.453-2.476h-7.238c-.074-.108-.143-.162-.143-.216q0-11.722.01-23.445,16.822,0,33.645-.021c.8,0,1.049.212,1.045,1.035C410.277,738.63,410.288,746.168,410.286,753.706ZM408.4,738.979H378.934v3.179H408.4Zm-29.5,9.754h29.459v-3.159H378.908ZM397,732.371v3.2h11.382v-3.2Zm-11.476.008v3.2H393.6v-3.2Z" transform="translate(-165.227 -50.591)" fill="#779fd3"/>
      <path id="Trazado_116109" data-name="Trazado 116109" d="M160.089,672.459h95.174v9.793h-3.224c0-1.531.008-3.03,0-4.529-.01-1.41-.591-2-2-2q-42.347-.005-84.7,0c-1.479,0-2.013.593-2.013,2.192q0,29.577,0,59.155v1.193l-3.236,1.434Z" transform="translate(-8.824 -8.792)" fill="#b4b4b4"/>
      <path id="Trazado_116110" data-name="Trazado 116110" d="M243.6,789.728c.7,1.4,1.355,2.714,2.006,4.028a1.116,1.116,0,0,1,.178.471c-.114,3.072.144,6.22-.447,9.2a12.882,12.882,0,0,1-13.911,10.034,13.2,13.2,0,0,1-11.907-12.969,20.966,20.966,0,0,0-.02-2.567c-.412-3.026.638-5.625,2.3-8.134C228.986,795.091,236.253,795.147,243.6,789.728Z" transform="translate(-51.875 -93.894)" fill="#fdd9be"/>
      <path id="Trazado_116111" data-name="Trazado 116111" d="M220.076,735.557l2.6-1.748c-.951-1.98-1.883-2.763-6.4-5.412a12.4,12.4,0,0,1,7.746-1.877,23.694,23.694,0,0,1,11.1,4.472c4.014,2.744,5.033,8.442,2.542,12.816-.519-1.044-.992-2.018-1.484-2.981-.7-1.368-1.664-1.587-2.908-.664-2.085,1.546-4.085,3.217-6.687,3.891a12.964,12.964,0,0,1-10.955-1.84c-.992-.667-1.925-1.423-2.894-2.126a1.674,1.674,0,0,0-2.777.669c-.541,1.028-1.063,2.066-1.6,3.1-.01.018-.06.016-.169.041-1.416-2.435-2.715-4.9-1.606-7.871a6.683,6.683,0,0,1,5.587-4.564,7.3,7.3,0,0,1,6.777,2.623C219.335,734.519,219.657,735,220.076,735.557Z" transform="translate(-42.267 -47.985)" fill="#956846"/>
      <path id="Trazado_116112" data-name="Trazado 116112" d="M413.313,828.525h3.229v29.541H383.677l-1.356-3.235h28.647c1.874,0,2.345-.478,2.345-2.378q0-11.361,0-22.722Z" transform="translate(-170.098 -122.049)" fill="#b4b4b4"/>
      <path id="Trazado_116113" data-name="Trazado 116113" d="M189.051,847.668l-5.019,1.511V826.534c.6,1.5,1.3,2.75,2.648,3.21a32.775,32.775,0,0,0,4.237.857c.1.324.256.9.442,1.474a15.647,15.647,0,0,0,6.242,8.4,2.089,2.089,0,0,1,1.178,2.3,6.082,6.082,0,0,0-.008.984l-7,1.183c-.337.057-.673.119-1.009.178C189.182,845.394,188.732,846.037,189.051,847.668Z" transform="translate(-26.2 -120.604)" fill="#f1f1f1"/>
      <path id="Trazado_116114" data-name="Trazado 116114" d="M410.313,746.843c0-7.538-.009-15.076.023-22.614,0-.823-.243-1.037-1.045-1.035q-16.822.038-33.645.021V720.6h36.039v26.243Z" transform="translate(-165.253 -43.728)" fill="#5e87c9"/>
      <path id="Trazado_116115" data-name="Trazado 116115" d="M420.5,996.671v3.17H387.745v-3.17Z" transform="translate(-174.034 -244.073)" fill="#b4b4b4"/>
      <path id="Trazado_116116" data-name="Trazado 116116" d="M278.76,907.475a8.506,8.506,0,0,0,4.823-5.3c.054-.171.485-.35.711-.318,1.72.245,3.433.542,5.293.846l-5.909,10.675Z" transform="translate(-94.944 -175.263)" fill="#4b6ab2"/>
      <path id="Trazado_116117" data-name="Trazado 116117" d="M217.163,902.4l5.873-.97a8.523,8.523,0,0,0,4.974,5.721l-4.918,5.913Z" transform="translate(-50.243 -174.956)" fill="#4b6ab2"/>
      <path id="Trazado_116118" data-name="Trazado 116118" d="M249.748,885.612a16.869,16.869,0,0,0,9.924-.039,25.908,25.908,0,0,1-.313,3.766,4.819,4.819,0,0,1-5.185,3.58,4.949,4.949,0,0,1-4.413-4.423C249.685,887.581,249.748,886.655,249.748,885.612Z" transform="translate(-73.872 -163.448)" fill="#efb69f"/>
      <path id="Trazado_116119" data-name="Trazado 116119" d="M474.783,948.754v9.7H471.6v-9.7Z" transform="translate(-234.887 -209.299)" fill="#686868"/>
      <path id="Trazado_116120" data-name="Trazado 116120" d="M199.394,816.326v3.294c-1.056-.087-2.24.39-2.911-.743a2.065,2.065,0,0,1-.07-1.7C197.045,815.93,198.285,816.4,199.394,816.326Z" transform="translate(-35.075 -113.177)" fill="#ecb49d"/>
      <path id="Trazado_116121" data-name="Trazado 116121" d="M327.71,819.592v-3.246c1.043,0,2.2-.425,2.9.661a2.052,2.052,0,0,1,.11,1.7C330.116,819.982,328.859,819.519,327.71,819.592Z" transform="translate(-130.467 -113.152)" fill="#ecb49d"/>
      <path id="Trazado_116122" data-name="Trazado 116122" d="M417.2,762.584v3.179H387.732v-3.179Z" transform="translate(-174.025 -74.196)"/>
      <path id="Trazado_116123" data-name="Trazado 116123" d="M387.637,789.787v-3.159H417.1v3.159Z" transform="translate(-173.956 -91.644)"/>
      <path id="Trazado_116124" data-name="Trazado 116124" d="M453.6,738.494h11.382v3.2H453.6Z" transform="translate(-221.823 -56.713)"/>
      <path id="Trazado_116125" data-name="Trazado 116125" d="M411.758,738.523h8.081v3.2h-8.081Z" transform="translate(-191.461 -56.734)"/>
    </g>
    <g id="Grupo_108927" data-name="Grupo 108927" transform="translate(122.5 1003.933)">
      <g id="Grupo_108925" data-name="Grupo 108925" transform="translate(198 132.576)">
        <rect id="Rectngulo_40286" data-name="Rectngulo 40286" width="108.684" height="63.248" transform="translate(0 13.128)" fill="#f6f6f6"/>
        <path id="Trazado_116126" data-name="Trazado 116126" d="M543.315,141.961l1.485,2.844v10.382l-14.685-.068Z" transform="translate(-436.117 -139.305)" fill="#454145"/>
        <path id="Trazado_116127" data-name="Trazado 116127" d="M198,137.865c.151-.3.328-.585.45-.894a6.9,6.9,0,0,1,6.371-4.39c2.108-.019,4.217.016,6.325.026q-2.328,2.358-4.654,4.717-2.206,2.25-4.4,4.515l-.293.044-3.8.007Z" transform="translate(-198 -132.576)" fill="#554e55"/>
        <path id="Trazado_116128" data-name="Trazado 116128" d="M201.8,165.352l.293-.044,10.145.056-6.381,6.5-7.859.067v-2.754Z" transform="translate(-198 -156.044)" fill="#f6c402"/>
        <path id="Trazado_116129" data-name="Trazado 116129" d="M201.8,165.462l-3.8,3.821v-3.814Z" transform="translate(-198 -156.154)" fill="#454145"/>
        <path id="Trazado_116130" data-name="Trazado 116130" d="M345.486,171.43H327.073c.669-.678,1.344-1.351,2.007-2.034q2.165-2.23,4.32-4.468l.422-.218q8.349,0,16.7.021a6.014,6.014,0,0,1,1.184.241c-1.16,1.182-2.329,2.356-3.479,3.548C347.3,169.478,346.4,170.458,345.486,171.43Z" transform="translate(-290.541 -155.614)" fill="#454145"/>
        <path id="Trazado_116131" data-name="Trazado 116131" d="M225.768,171.414l6.381-6.5.366-.232q8.331.008,16.662.025a7.488,7.488,0,0,1,1.21.2l-2.119,2.194-4.164,4.317Z" transform="translate(-217.909 -155.598)" fill="#454145"/>
        <path id="Trazado_116132" data-name="Trazado 116132" d="M447.1,171.465l-18.3,0,6.372-6.5.3-.2q8.433,0,16.865,0a3.9,3.9,0,0,1,.968.258c-1.109,1.129-2.225,2.25-3.324,3.389C449.009,169.42,448.058,170.447,447.1,171.465Z" transform="translate(-363.474 -155.65)" fill="#454145"/>
        <path id="Trazado_116133" data-name="Trazado 116133" d="M493.459,148.478c.96-1.018,1.911-2.045,2.883-3.052,1.1-1.139,2.215-2.26,3.324-3.389l.268-.085a47.78,47.78,0,0,0,4.93-.3,8.85,8.85,0,0,0,7.077-8.958,6.143,6.143,0,0,1,5.094,2.622l-13.2,13.158Z" transform="translate(-409.835 -132.663)" fill="#f6c402"/>
        <path id="Trazado_116134" data-name="Trazado 116134" d="M408.878,165.407l-6.372,6.5-10.378,0c.912-.971,1.814-1.952,2.739-2.911,1.15-1.192,2.319-2.366,3.479-3.548l.266-.071Z" transform="translate(-337.184 -156.097)" fill="#f6c402"/>
        <path id="Trazado_116135" data-name="Trazado 116135" d="M290.552,171.416l4.164-4.317,2.119-2.194.415-.226a5.655,5.655,0,0,0,1.089.218c2.959.017,5.918.009,8.878.008q-2.16,2.235-4.32,4.468c-.663.683-1.338,1.356-2.007,2.034Z" transform="translate(-264.357 -155.592)" fill="#f6c402"/>
        <g id="Grupo_108924" data-name="Grupo 108924" transform="translate(0 76.376)">
          <path id="Trazado_116136" data-name="Trazado 116136" d="M199.5,416.026l-1.5-2.671V402.974c2.007-.027,4.015-.072,6.022-.078,2.822-.008,5.645.011,8.467.019-.311.337-.61.684-.932,1.008q-5.633,5.666-11.272,11.326Z" transform="translate(-198 -402.762)" fill="#554e55"/>
          <path id="Trazado_116137" data-name="Trazado 116137" d="M548.247,419.462c-.033.012-.089.017-.1.038-1.321,3.919-4.115,5.523-8.163,5.274-1.683-.1-3.377-.039-5.066-.051l4.253-4.391,1.239-1.236c.285-.258.581-.507.854-.777q3.492-3.451,6.978-6.909Z" transform="translate(-439.563 -408.869)" fill="#454145"/>
          <path id="Trazado_116138" data-name="Trazado 116138" d="M561.8,404.97q-3.488,3.455-6.978,6.909c-.274.27-.569.519-.854.777a2.65,2.65,0,0,1,.2-.786,6.92,6.92,0,0,0,1.066-4.1c-.055-1.192-.011-2.388-.011-3.583,0-1.464,0-1.464-1.394-1.618l7.974-.141Z" transform="translate(-453.116 -402.428)" fill="#f6c402"/>
          <path id="Trazado_116139" data-name="Trazado 116139" d="M456.713,402.887l18.345.042c-.316.333-.624.673-.947,1q-5.722,5.74-11.447,11.475l-.234.072-18.215.007q6.141-6.119,12.28-12.241A1.778,1.778,0,0,0,456.713,402.887Z" transform="translate(-374.528 -402.757)" fill="#554e55"/>
          <path id="Trazado_116140" data-name="Trazado 116140" d="M254.445,402.873l18.329.039c-.337.36-.665.729-1.012,1.078q-5.595,5.626-11.194,11.246l-.6.419a7.819,7.819,0,0,0-1.208-.189q-8.335-.03-16.671-.031,5.774-5.8,11.545-11.608C253.926,403.53,254.175,403.192,254.445,402.873Z" transform="translate(-229.609 -402.747)" fill="#554e55"/>
          <path id="Trazado_116141" data-name="Trazado 116141" d="M355.751,402.88l18.335.039c-.388.409-.768.827-1.165,1.226q-5.521,5.553-11.048,11.1l-.612.431a7.222,7.222,0,0,0-1.206-.206q-8.331-.028-16.662-.024c.233-.261.453-.534.7-.781q5.458-5.456,10.919-10.908C355.28,403.488,355.505,403.174,355.751,402.88Z" transform="translate(-302.242 -402.752)" fill="#554e55"/>
          <path id="Trazado_116142" data-name="Trazado 116142" d="M329.935,402.7c-.246.294-.471.608-.74.878q-5.455,5.458-10.919,10.908c-.247.247-.467.52-.7.781l-.163.025c-2.9,0-5.794,0-8.691-.018a8.681,8.681,0,0,1-1.337-.214q5.6-5.622,11.194-11.246c.347-.349.675-.718,1.012-1.078,1.582-.038,3.163-.1,4.745-.106C326.2,402.628,328.069,402.677,329.935,402.7Z" transform="translate(-276.426 -402.574)" fill="#fcd203"/>
          <path id="Trazado_116143" data-name="Trazado 116143" d="M228.624,402.7c-.27.319-.519.658-.813.953q-5.767,5.809-11.545,11.608a1.594,1.594,0,0,0-.16.028c-2.437,0-4.874.018-7.31-.013-.908-.011-1.815-.14-2.723-.215q5.637-5.662,11.272-11.326c.322-.324.622-.671.932-1.008,2.077-.034,4.153-.085,6.229-.1C225.879,402.621,227.252,402.672,228.624,402.7Z" transform="translate(-203.788 -402.571)" fill="#fcd203"/>
          <path id="Trazado_116144" data-name="Trazado 116144" d="M408.688,415.07q5.525-5.55,11.048-11.1c.4-.4.777-.817,1.165-1.226,1.44-.039,2.879-.107,4.319-.109,2.007,0,4.014.046,6.021.072a1.767,1.767,0,0,1-.219.354q-6.136,6.124-12.28,12.241l-.08-.022c-2.952,0-5.9.014-8.856,0A6.2,6.2,0,0,1,408.688,415.07Z" transform="translate(-349.057 -402.576)" fill="#fcd203"/>
          <path id="Trazado_116145" data-name="Trazado 116145" d="M509.4,415.4q5.724-5.737,11.447-11.475c.323-.325.631-.665.947-1a.188.188,0,0,1,.18-.031c1.394.154,1.394.154,1.394,1.618,0,1.194-.044,2.391.011,3.583a6.921,6.921,0,0,1-1.066,4.1,2.648,2.648,0,0,0-.2.786l-1.239,1.236c-.4.112-.8.2-1.191.34a6.788,6.788,0,0,1-1.764.654C515.08,415.335,512.237,415.351,509.4,415.4Z" transform="translate(-421.261 -402.758)" fill="#fcd203"/>
          <path id="Trazado_116146" data-name="Trazado 116146" d="M436.6,447.332l18.215-.007-2.995,3.138H433.6l2.926-3.152Z" transform="translate(-366.914 -434.608)" fill="#454145"/>
          <path id="Trazado_116147" data-name="Trazado 116147" d="M233.971,447.281a1.6,1.6,0,0,1,.16-.028q8.336.011,16.671.031a7.8,7.8,0,0,1,1.207.189l-2.792,2.948H230.991Z" transform="translate(-221.654 -434.566)" fill="#454145"/>
          <path id="Trazado_116148" data-name="Trazado 116148" d="M335.264,447.308l.163-.025q8.331.007,16.662.024a7.217,7.217,0,0,1,1.206.206l-2.781,2.93H332.283Z" transform="translate(-294.277 -434.588)" fill="#454145"/>
          <path id="Trazado_116149" data-name="Trazado 116149" d="M497.99,447.324l3-3.138.234-.072c2.841-.053,5.684-.068,8.523-.187a6.79,6.79,0,0,0,1.764-.654c.388-.138.793-.228,1.191-.34l-4.253,4.391Z" transform="translate(-413.084 -431.469)" fill="#f6c402"/>
          <path id="Trazado_116150" data-name="Trazado 116150" d="M308.812,446.783l-2.981,3.136H295.389l2.792-2.947.6-.419a8.681,8.681,0,0,0,1.337.214C303.018,446.787,305.915,446.78,308.812,446.783Z" transform="translate(-267.825 -434.063)" fill="#f6c402"/>
          <path id="Trazado_116151" data-name="Trazado 116151" d="M396.7,449.933l2.781-2.93.612-.431a6.2,6.2,0,0,0,1.119.208c2.952.014,5.9,0,8.856,0l-2.926,3.152Z" transform="translate(-340.46 -434.078)" fill="#f6c402"/>
          <path id="Trazado_116152" data-name="Trazado 116152" d="M214.115,446.774l-2.98,3.141a19.252,19.252,0,0,1-4.477-.371c-1.232-.39-2.249-1.454-3.361-2.221l.786-.777c.907.075,1.814.2,2.723.215C209.242,446.792,211.679,446.773,214.115,446.774Z" transform="translate(-201.798 -434.059)" fill="#f6c402"/>
        </g>
        <path id="Trazado_116153" data-name="Trazado 116153" d="M470.481,141.946l-.268.085a3.891,3.891,0,0,0-.968-.258q-8.432-.02-16.865,0c.256-.285.5-.582.769-.854q4.073-4.117,8.153-8.227h18.345c-.262.285-.513.58-.786.854Q474.674,137.748,470.481,141.946Z" transform="translate(-380.383 -132.657)" fill="#554e55"/>
        <path id="Trazado_116154" data-name="Trazado 116154" d="M369.069,141.94l-.266.071a6.017,6.017,0,0,0-1.184-.241q-8.349-.029-16.7-.021c.282-.309.552-.629.847-.926q4.032-4.072,8.071-8.137h18.353c-.311.335-.612.679-.933,1Q373.167,137.818,369.069,141.94Z" transform="translate(-307.64 -132.655)" fill="#554e55"/>
        <path id="Trazado_116155" data-name="Trazado 116155" d="M267.894,141.741l-.415.226a7.485,7.485,0,0,0-1.21-.2q-8.331-.028-16.662-.025c.332-.358.654-.726,1-1.073q3.955-4,7.919-7.984h18.3c-.359.382-.708.773-1.077,1.145Q271.823,137.79,267.894,141.741Z" transform="translate(-235.001 -132.656)" fill="#554e55"/>
        <path id="Trazado_116156" data-name="Trazado 116156" d="M415.038,141.94q4.1-4.124,8.19-8.251c.321-.324.623-.669.933-1h10.367q-4.077,4.113-8.153,8.227c-.269.272-.513.569-.769.854l-.3.2Z" transform="translate(-353.61 -132.655)" fill="#fcd203"/>
        <path id="Trazado_116157" data-name="Trazado 116157" d="M231.9,132.687q-3.96,3.991-7.919,7.984c-.344.347-.666.715-1,1.073l-.366.232-10.145-.056q2.2-2.259,4.4-4.515,2.32-2.366,4.654-4.717Z" transform="translate(-208.374 -132.656)" fill="#fcd203"/>
        <path id="Trazado_116158" data-name="Trazado 116158" d="M314.218,141.742q3.926-3.954,7.851-7.909c.369-.372.718-.763,1.077-1.145h10.378q-4.037,4.068-8.071,8.137c-.294.3-.565.616-.847.926l-.422.218c-2.959,0-5.918.009-8.878-.008A5.657,5.657,0,0,1,314.218,141.742Z" transform="translate(-281.325 -132.656)" fill="#fcd203"/>
        <path id="Trazado_116159" data-name="Trazado 116159" d="M516.334,141.948q4.191-4.2,8.38-8.4c.273-.274.524-.569.786-.854l2.84,0a8.85,8.85,0,0,1-7.077,8.958A47.782,47.782,0,0,1,516.334,141.948Z" transform="translate(-426.236 -132.658)" fill="#fcd203"/>
        <path id="Trazado_116160" data-name="Trazado 116160" d="M305.835,255.934h-2.33l1.142-3.058Z" transform="translate(-273.644 -218.827)" fill="#f3f6f7"/>
      </g>
      <g id="Grupo_108926" data-name="Grupo 108926" transform="translate(222.535 150.482)">
        <path id="Trazado_116161" data-name="Trazado 116161" d="M284.687,242.894c.6-.939.75-1.038,1.922-1.192v-.615q0-12.986,0-25.973a4.646,4.646,0,0,1,3.077-4.679,5.922,5.922,0,0,1,1.753-.288c1.193-.043,2.389-.013,3.523-.013,3.459-9.06,9.782-14.4,19.625-14.29,9.583.11,15.713,5.444,19.056,14.29,1.087,0,2.243,0,3.4,0a4.676,4.676,0,0,1,4.961,4.961q.011,12.986,0,25.973v.522a5.966,5.966,0,0,1,1.355.587,1.448,1.448,0,0,1,.53.971,27.148,27.148,0,0,1-.09,4.21,4.51,4.51,0,0,1-4.226,3.773c-.288.019-.578.029-.867.029q-24.411,0-48.822.01a4.866,4.866,0,0,1-4.707-2.629c-.194-.362-.33-.755-.493-1.134ZM337.333,211.9h-3.354l.3,2.063a5.159,5.159,0,0,0,.54,0c1.862-.205,3.4,1,3.377,3.393-.077,7.905-.029,15.812-.029,23.717a1.305,1.305,0,0,0,.016.457c.037.093.2.135.305.2h1.774v-.659q0-12.921,0-25.843a7.541,7.541,0,0,0-.031-.808A2.877,2.877,0,0,0,337.333,211.9ZM320.34,198.565l-.353-.141a31.76,31.76,0,0,0-4.053-.843,17.871,17.871,0,0,0-14.433,5.163,18.237,18.237,0,0,0-1,25.026,18.007,18.007,0,0,0,12.994,6.3,15.838,15.838,0,0,0,6.362-.885l.3-.1.029.007.019-.023a1.806,1.806,0,0,0,.281-.05,18.322,18.322,0,0,0,12.086-16.147A18,18,0,0,0,325.3,201.18a14.651,14.651,0,0,0-4.969-2.621Zm20.11,44.944c-.231-.007-.462-.02-.693-.02q-8.646,0-17.293,0c-.557,0-1.266-.181-1.627.091s-.353,1-.507,1.533c-.022.074-.035.15-.058.223a2.693,2.693,0,0,1-2.569,1.97q-3.412.039-6.824,0a2.642,2.642,0,0,1-2.5-1.893,9.223,9.223,0,0,1-.341-1.34c-.077-.464-.281-.6-.763-.6q-10.121.029-20.243.013h-.61c0,.938,0,1.82,0,2.7a3.1,3.1,0,0,0,4.024,3.146c0-.273-.006-.559,0-.844.016-.607.321-.96.831-.974.532-.015.876.352.9.977.012.3,0,.6,0,.879h2.062c.143-.714-.3-1.78.837-1.821,1.283-.046.812,1.119.971,1.84h2.054c0-.295,0-.561,0-.827.009-.673.332-1.058.879-1.05s.849.391.856,1.076c0,.265,0,.529,0,.79h25.1c0-.344,0-.65,0-.956a2.749,2.749,0,0,1,2.746-2.833q3.874-.049,7.75,0a2.739,2.739,0,0,1,2.725,2.791c.008.324,0,.647,0,.995H339.3a2.661,2.661,0,0,0,2.751-2.157,26.634,26.634,0,0,0,.037-3.715Zm-6.1-27.573c-.008.134-.02.269-.025.4a20.014,20.014,0,0,1-27.492,17.992c-6.692-2.727-10.746-7.79-12.2-14.878-.25-1.216-.306-2.471-.452-3.716-1.428-.162-2.025-.01-2.015,1.782.042,7.848.018,15.7.018,23.544v.686H334.21c.154,0,.307-.015.461-.023h1.736c.01-.134.023-.226.023-.319q0-12.258,0-24.517a1.373,1.373,0,0,0-2.061-1.118C334.34,215.786,334.358,215.88,334.355,215.936Zm-43.907,25.793v-.7q0-7.778,0-15.556c0-2.911-.012-5.821.007-8.732a2.734,2.734,0,0,1,2.788-2.78c.361-.006.721,0,1.1,0l.3-2.093c-1.016,0-2,0-2.975,0a2.976,2.976,0,0,0-3.311,3.324q0,12.954,0,25.907v.626Zm45.984,7.667c0-.353.009-.658,0-.962a1.019,1.019,0,0,0-1.072-1.1q-3.812-.025-7.623,0a1.011,1.011,0,0,0-1.047,1.07c-.013.323,0,.646,0,.995ZM309.674,243.5c.122.477.219.906.344,1.328a.956.956,0,0,0,.98.744q3.325.008,6.651,0a.936.936,0,0,0,.941-.716c.135-.436.23-.885.349-1.353Z" transform="translate(-284.687 -195.842)" fill="#030404"/>
        <path id="Trazado_116162" data-name="Trazado 116162" d="M348.548,237.411a15.839,15.839,0,0,1-6.363.885,18.007,18.007,0,0,1-12.994-6.3,18.237,18.237,0,0,1,1-25.026,17.871,17.871,0,0,1,14.433-5.163,31.754,31.754,0,0,1,4.053.843l.353.141-.007-.006a1.873,1.873,0,0,0,.328.3,19.04,19.04,0,0,1,6.226,5.308,18.783,18.783,0,0,1,3.872,12.653,19.11,19.11,0,0,1-9.358,15.475c-.4.249-.8.515-1.2.773l-.019.023-.029-.007Zm-5.581-27.863c-.522.03-1.061.054-1.6.094-.288.021-.574.063-.86.1a17.974,17.974,0,0,0-11.031,5.884,1.79,1.79,0,0,0,.113,2.593c.327.326.676.631,1.011.951,1.2,1.149,2.1,1.1,3.259-.078a12.585,12.585,0,0,1,18.458.185,1.831,1.831,0,0,0,2.841.112c.4-.365.794-.732,1.182-1.107a1.827,1.827,0,0,0,.084-2.764A18.167,18.167,0,0,0,342.967,209.548Zm8.579,12.57a6.863,6.863,0,0,0-.67-1.277,10.451,10.451,0,0,0-15.785.01,1.83,1.83,0,0,0,.119,2.642c.414.4.837.8,1.265,1.187a1.781,1.781,0,0,0,2.75-.112,4.947,4.947,0,0,1,7.56.016,1.762,1.762,0,0,0,2.665.156,11.849,11.849,0,0,0,1.379-1.315A7.674,7.674,0,0,0,351.547,222.118Zm-5.77,5.566a2.78,2.78,0,1,0-2.792,2.782A2.775,2.775,0,0,0,345.777,227.684Z" transform="translate(-313.376 -200.073)" fill="#6dd3a0"/>
        <path id="Trazado_116163" data-name="Trazado 116163" d="M353.619,292c-.154.008-.307.023-.461.023H311.133v-.686c0-7.848.024-15.7-.018-23.544-.01-1.792.586-1.944,2.015-1.782.146,1.245.2,2.5.452,3.716,1.458,7.088,5.512,12.15,12.2,14.878a20.015,20.015,0,0,0,27.492-17.992c0-.135.016-.269.025-.4a4.029,4.029,0,0,1,.3,1.062Q353.632,279.639,353.619,292Z" transform="translate(-303.635 -246.119)" fill="#69aaef"/>
        <path id="Trazado_116164" data-name="Trazado 116164" d="M343.7,369.932h-1.134c0-.347.007-.671,0-.995a2.739,2.739,0,0,0-2.725-2.791q-3.874-.054-7.75,0a2.749,2.749,0,0,0-2.746,2.833c0,.306,0,.612,0,.956h-25.1c0-.261,0-.525,0-.79-.008-.686-.314-1.068-.856-1.076s-.87.377-.879,1.05c0,.266,0,.532,0,.827H300.45c-.159-.72.313-1.886-.971-1.84-1.141.041-.694,1.107-.837,1.821h-2.062c0-.279.01-.579,0-.879-.025-.625-.37-.992-.9-.977-.51.014-.815.367-.831.974-.008.285,0,.57,0,.844a3.1,3.1,0,0,1-4.024-3.146c0-.882,0-1.764,0-2.7h.61q10.121,0,20.243-.013c.482,0,.686.132.763.6a9.217,9.217,0,0,0,.341,1.34,2.642,2.642,0,0,0,2.5,1.893q3.412.043,6.824,0a2.694,2.694,0,0,0,2.569-1.97c.023-.073.036-.149.058-.223.154-.53.153-1.267.507-1.533s1.071-.09,1.627-.091q8.647,0,17.293,0c.231,0,.462.013.693.02,0,.883.039,1.767,0,2.648a4.105,4.105,0,0,1-.912,2.714A1.989,1.989,0,0,0,343.7,369.932Z" transform="translate(-289.084 -316.393)" fill="#c3d1db"/>
        <path id="Trazado_116165" data-name="Trazado 116165" d="M299.722,282.332h-2.1v-.626q0-12.954,0-25.907a2.976,2.976,0,0,1,3.311-3.324c.98,0,1.96,0,2.975,0l-.3,2.093c-.374,0-.734-.005-1.1,0a2.734,2.734,0,0,0-2.788,2.78c-.02,2.911-.007,5.821-.007,8.732q0,7.778,0,15.556Z" transform="translate(-293.961 -236.445)" fill="#9ca9b7"/>
        <path id="Trazado_116166" data-name="Trazado 116166" d="M410.172,239.948c.4-.258.793-.524,1.2-.773a19.11,19.11,0,0,0,9.358-15.475,18.783,18.783,0,0,0-3.872-12.653,19.04,19.04,0,0,0-6.226-5.308,1.874,1.874,0,0,1-.328-.3,14.645,14.645,0,0,1,4.969,2.621,18,18,0,0,1,7.268,15.687A18.322,18.322,0,0,1,410.453,239.9,1.808,1.808,0,0,1,410.172,239.948Z" transform="translate(-374.656 -202.726)" fill="#45c98b"/>
        <path id="Trazado_116167" data-name="Trazado 116167" d="M470.7,252.577a2.877,2.877,0,0,1,2.9,2.517,7.541,7.541,0,0,1,.031.808q0,12.921,0,25.843v.659h-1.774c0-8.7-.015-17.394.017-26.091a4.812,4.812,0,0,0-1.131-3.571C470.706,252.706,470.71,252.633,470.7,252.577Z" transform="translate(-418.05 -236.519)" fill="#8d9cac"/>
        <path id="Trazado_116168" data-name="Trazado 116168" d="M460.481,291.758q0-12.364-.012-24.728a4.03,4.03,0,0,0-.3-1.062c0-.057-.015-.15.011-.164a1.373,1.373,0,0,1,2.061,1.118q.009,12.259,0,24.517c0,.093-.013.186-.023.319Z" transform="translate(-410.497 -245.874)" fill="#4595eb"/>
        <path id="Trazado_116169" data-name="Trazado 116169" d="M442.811,379.791h-9.747c0-.349-.011-.672,0-.995a1.011,1.011,0,0,1,1.047-1.07q3.811-.029,7.623,0a1.019,1.019,0,0,1,1.072,1.1C442.82,379.133,442.811,379.438,442.811,379.791Z" transform="translate(-391.066 -326.237)" fill="#c3d1db"/>
        <path id="Trazado_116170" data-name="Trazado 116170" d="M462.2,252.579c.014.056.01.128.044.165a4.812,4.812,0,0,1,1.131,3.571c-.032,8.7-.017,17.394-.017,26.091-.106-.065-.269-.107-.305-.2a1.3,1.3,0,0,1-.016-.457c0-7.906-.048-15.812.029-23.717.023-2.392-1.515-3.6-3.377-3.393a5.158,5.158,0,0,1-.54,0l-.3-2.063Z" transform="translate(-409.552 -236.521)" fill="#9ca9b7"/>
        <path id="Trazado_116171" data-name="Trazado 116171" d="M372.971,364.237h9.265c-.119.468-.215.917-.349,1.353a.936.936,0,0,1-.941.716q-3.326.014-6.651,0a.956.956,0,0,1-.98-.744C373.19,365.143,373.093,364.714,372.971,364.237Z" transform="translate(-347.984 -316.576)" fill="#c3d1db"/>
        <path id="Trazado_116172" data-name="Trazado 116172" d="M477.656,370.13a1.987,1.987,0,0,1,.24-.51,4.105,4.105,0,0,0,.912-2.714c.034-.881,0-1.765,0-2.648h1.641a26.643,26.643,0,0,1-.037,3.715A2.661,2.661,0,0,1,477.656,370.13Z" transform="translate(-423.04 -316.591)" fill="#9ca9b7"/>
        <path id="Trazado_116173" data-name="Trazado 116173" d="M409.762,205.107l-.353-.141Z" transform="translate(-374.109 -202.384)" fill="#45c98b"/>
        <path id="Trazado_116174" data-name="Trazado 116174" d="M408.956,327.514l.3-.1Z" transform="translate(-373.784 -290.176)" fill="#45c98b"/>
        <path id="Trazado_116175" data-name="Trazado 116175" d="M353.792,229.321A18.167,18.167,0,0,1,367.25,235.3a1.827,1.827,0,0,1-.083,2.764c-.388.376-.784.742-1.182,1.107a1.831,1.831,0,0,1-2.841-.112,12.585,12.585,0,0,0-18.458-.185c-1.16,1.18-2.054,1.227-3.259.078-.335-.319-.684-.624-1.011-.951a1.79,1.79,0,0,1-.114-2.593,17.974,17.974,0,0,1,11.031-5.884c.286-.042.572-.084.86-.1C352.731,229.375,353.271,229.351,353.792,229.321Zm5.583,2.763a15.781,15.781,0,0,0-10.251-.306,16.078,16.078,0,0,0-7.6,4.866c.44.416.858.812,1.278,1.207.067.063.144.114.308.243a4.97,4.97,0,0,1,.393-.509,14.362,14.362,0,0,1,20.375-.3l.734.8,1.586-1.516-1.2-1.091A15.365,15.365,0,0,0,359.375,232.084Z" transform="translate(-324.201 -219.845)" fill="#030404"/>
        <path id="Trazado_116176" data-name="Trazado 116176" d="M376.586,261.39a7.68,7.68,0,0,1-.718,1.307,11.851,11.851,0,0,1-1.379,1.315,1.762,1.762,0,0,1-2.665-.156,4.947,4.947,0,0,0-7.559-.016,1.781,1.781,0,0,1-2.75.112c-.427-.389-.851-.784-1.265-1.187a1.83,1.83,0,0,1-.119-2.642,10.451,10.451,0,0,1,15.785-.01A6.867,6.867,0,0,1,376.586,261.39Zm-6.356-2.846a8.427,8.427,0,0,0-8.836,2.9l1.331,1.255a17.575,17.575,0,0,1,2.535-1.727,6.5,6.5,0,0,1,7.3,1.119l.659.742,1.532-1.45A8.5,8.5,0,0,0,370.23,258.544Z" transform="translate(-338.415 -239.344)" fill="#020303"/>
        <path id="Trazado_116177" data-name="Trazado 116177" d="M385.083,286.361a2.78,2.78,0,1,1-2.8-2.777A2.777,2.777,0,0,1,385.083,286.361Zm-3.71,0c-.012.662.309,1.033.907,1.045a1.046,1.046,0,0,0,.061-2.09C381.723,285.3,381.387,285.661,381.373,286.364Z" transform="translate(-352.682 -258.75)" fill="#020303"/>
        <path id="Trazado_116178" data-name="Trazado 116178" d="M368.254,241.712a14.362,14.362,0,0,0-20.375.3,4.97,4.97,0,0,0-.393.509c-.164-.128-.241-.18-.308-.243-.42-.394-.838-.791-1.278-1.207a16.078,16.078,0,0,1,7.6-4.866,15.781,15.781,0,0,1,10.251.306,2.165,2.165,0,0,0,.419.417,17.428,17.428,0,0,1,4.245,3.479A.761.761,0,0,1,368.254,241.712Z" transform="translate(-328.575 -224.274)" fill="#fcfcfc"/>
        <path id="Trazado_116179" data-name="Trazado 116179" d="M413.468,244.283a.761.761,0,0,0,.159-1.3,17.428,17.428,0,0,0-4.245-3.479,2.166,2.166,0,0,1-.419-.417,15.364,15.364,0,0,1,5.623,3.392l1.2,1.091-1.586,1.516Z" transform="translate(-373.789 -226.844)" fill="#c3d1db"/>
        <path id="Trazado_116180" data-name="Trazado 116180" d="M377.041,266.472a6.5,6.5,0,0,0-7.3-1.119,17.576,17.576,0,0,0-2.535,1.727l-1.331-1.255a8.427,8.427,0,0,1,8.836-2.9c.164.147.33.292.493.44.645.586,1.321,1.142,1.922,1.77C377.557,265.583,377.486,266,377.041,266.472Z" transform="translate(-342.896 -243.722)" fill="#fcfcfc"/>
        <path id="Trazado_116181" data-name="Trazado 116181" d="M399.424,267.228c.445-.474.517-.89.085-1.34-.6-.628-1.277-1.184-1.922-1.77-.163-.148-.329-.294-.493-.44a8.5,8.5,0,0,1,4.522,2.842l-1.532,1.45Z" transform="translate(-365.279 -244.478)" fill="#c3d1db"/>
        <path id="Trazado_116182" data-name="Trazado 116182" d="M386.057,290.755c.014-.7.35-1.066.968-1.045a1.046,1.046,0,0,1-.061,2.09C386.367,291.788,386.045,291.417,386.057,290.755Z" transform="translate(-357.366 -263.142)" fill="#c3d1db"/>
      </g>
    </g>
    <line id="Lnea_178" data-name="Lnea 178" x2="81" y2="77" transform="translate(440.5 1240.5)" fill="none" stroke="#4dd0e1" stroke-width="3"/>
    <line id="Lnea_180" data-name="Lnea 180" x2="81" y2="77" transform="translate(856 1240.5)" fill="none" stroke="#4dd0e1" stroke-width="3"/>
    <line id="Lnea_179" data-name="Lnea 179" x1="83" y2="80" transform="translate(641.5 1240.5)" fill="none" stroke="#4dd0e1" stroke-width="3"/>
    <line id="Lnea_181" data-name="Lnea 181" x1="83" y2="80" transform="translate(1057 1240.5)" fill="none" stroke="#4dd0e1" stroke-width="3"/>
  </g>
</svg>
