<svg xmlns="http://www.w3.org/2000/svg" xmlns:xlink="http://www.w3.org/1999/xlink" width="420" height="381.886" viewBox="0 0 420 381.886">
  <defs>
    <radialGradient id="radial-gradient" cx="-0.095" cy="0.312" r="0.861" gradientTransform="translate(-0.366) scale(1.732 1)" gradientUnits="objectBoundingBox">
      <stop offset="0" stop-color="#274f89"/>
      <stop offset="1" stop-color="#173d7a"/>
    </radialGradient>
    <linearGradient id="linear-gradient" y1="0.5" x2="1.319" y2="0.5" gradientUnits="objectBoundingBox">
      <stop offset="0" stop-color="#d4ecff"/>
      <stop offset="0.239" stop-color="#d0e9fd"/>
      <stop offset="0.46" stop-color="#c5e2f9"/>
      <stop offset="0.675" stop-color="#b2d5f1"/>
      <stop offset="0.884" stop-color="#98c4e7"/>
      <stop offset="1" stop-color="#86b8e0"/>
    </linearGradient>
    <radialGradient id="radial-gradient-2" cx="-1.237" cy="-0.578" r="1.555" gradientTransform="translate(-0.366) scale(1.732 1)" gradientUnits="objectBoundingBox">
      <stop offset="0" stop-color="#699dd1"/>
      <stop offset="0.266" stop-color="#6296cb"/>
      <stop offset="0.641" stop-color="#5084bd"/>
      <stop offset="1" stop-color="#396caa"/>
    </radialGradient>
    <radialGradient id="radial-gradient-3" cx="0.967" cy="0.944" r="1.063" gradientTransform="translate(-0.095) scale(1.19 1)" gradientUnits="objectBoundingBox">
      <stop offset="0" stop-color="#86b8e0"/>
      <stop offset="0.116" stop-color="#98c4e7"/>
      <stop offset="0.325" stop-color="#b2d5f1"/>
      <stop offset="0.54" stop-color="#c5e2f9"/>
      <stop offset="0.761" stop-color="#d0e9fd"/>
      <stop offset="1" stop-color="#d4ecff"/>
    </radialGradient>
    <radialGradient id="radial-gradient-4" cx="0.892" cy="0.72" r="0.788" gradientTransform="translate(-0.09) scale(1.18 1)" gradientUnits="objectBoundingBox">
      <stop offset="0" stop-color="#173d7a"/>
      <stop offset="1" stop-color="#274f89"/>
    </radialGradient>
    <radialGradient id="radial-gradient-5" cx="1.127" cy="0.6" r="2.077" gradientTransform="translate(0.211) scale(0.577 1)" xlink:href="#radial-gradient-3"/>
    <radialGradient id="radial-gradient-6" cx="-0.062" cy="0.839" r="0.382" gradientTransform="translate(-0.723) scale(2.447 1)" xlink:href="#radial-gradient-2"/>
    <radialGradient id="radial-gradient-7" cx="-0.169" cy="1.053" r="0.384" gradientTransform="translate(-0.689) scale(2.377 1)" xlink:href="#radial-gradient-2"/>
    <radialGradient id="radial-gradient-8" cx="-0.062" cy="0.839" r="0.382" gradientTransform="translate(-0.723) scale(2.447 1)" xlink:href="#radial-gradient-2"/>
    <radialGradient id="radial-gradient-9" cx="-0.169" cy="1.053" r="0.384" gradientTransform="translate(-0.689) scale(2.377 1)" xlink:href="#radial-gradient-2"/>
    <radialGradient id="radial-gradient-10" cx="0.5" cy="0.5" r="0.471" gradientTransform="translate(-0.069) scale(1.139 1)" xlink:href="#radial-gradient-2"/>
    <linearGradient id="linear-gradient-2" x1="0" y1="0.5" x2="1" y2="0.5" xlink:href="#linear-gradient"/>
    <radialGradient id="radial-gradient-11" cx="1.002" cy="0.908" r="1.092" gradientTransform="translate(0.007) scale(0.987 1)" xlink:href="#radial-gradient-4"/>
  </defs>
  <g id="Grupo_109420" data-name="Grupo 109420" transform="translate(-955.709 -1066)">
    <g id="Grupo_109318" data-name="Grupo 109318" transform="translate(700.948 1013.279)">
      <g id="Grupo_109293" data-name="Grupo 109293" transform="translate(501.841 393.229)">
        <path id="Trazado_117107" data-name="Trazado 117107" d="M445.211,323.747a9.013,9.013,0,0,1-4.078,7.063c-2.251,1.3-4.077.245-4.077-2.354a9.015,9.015,0,0,1,4.077-7.063C443.386,320.093,445.211,321.148,445.211,323.747Z" transform="translate(-437.056 -297.945)" fill="#fff"/>
        <path id="Trazado_117108" data-name="Trazado 117108" d="M454.962,318.117a9.011,9.011,0,0,1-4.078,7.063c-2.251,1.3-4.077.245-4.077-2.354a9.013,9.013,0,0,1,4.077-7.062C453.137,314.463,454.962,315.517,454.962,318.117Z" transform="translate(-433.591 -299.946)" fill="#fff"/>
        <path id="Trazado_117109" data-name="Trazado 117109" d="M464.713,312.488a9.01,9.01,0,0,1-4.078,7.062c-2.251,1.3-4.077.247-4.077-2.354a9.013,9.013,0,0,1,4.077-7.062C462.888,308.834,464.713,309.887,464.713,312.488Z" transform="translate(-430.125 -301.946)" fill="#fff"/>
        <path id="Trazado_117110" data-name="Trazado 117110" d="M474.464,306.858a9.013,9.013,0,0,1-4.077,7.062c-2.253,1.3-4.078.247-4.078-2.354a9.01,9.01,0,0,1,4.078-7.062C472.639,303.2,474.464,304.257,474.464,306.858Z" transform="translate(-426.66 -303.947)" fill="#fff"/>
      </g>
      <g id="Grupo_109295" data-name="Grupo 109295" transform="translate(608.868 183.574)">
        <g id="Grupo_109294" data-name="Grupo 109294" transform="translate(0 0)">
          <path id="Trazado_117111" data-name="Trazado 117111" d="M548.357,230.688,517.738,213.01l30.618-17.677,30.619,17.678Z" transform="translate(-515.409 -132.892)" fill="#7dc3ea"/>
          <path id="Trazado_117112" data-name="Trazado 117112" d="M548.968,223.832a2.333,2.333,0,0,1-1.164-.312l-30.618-17.678a2.326,2.326,0,0,1,0-4.032L547.8,184.133a2.325,2.325,0,0,1,2.327,0l30.62,17.677a2.328,2.328,0,0,1,0,4.032L550.131,223.52A2.323,2.323,0,0,1,548.968,223.832ZM523,203.825l25.964,14.991,25.962-14.991-25.964-14.988Z" transform="translate(-516.02 -136.983)" fill="#fff"/>
          <path id="Trazado_117113" data-name="Trazado 117113" d="M570.947,197.659l-30.618,17.678V179.983l30.618-17.677Z" transform="translate(-507.381 -144.629)" fill="url(#radial-gradient)"/>
          <path id="Trazado_117114" data-name="Trazado 117114" d="M548.357,184.618,517.739,166.94l30.617-17.677,30.618,17.677Z" transform="translate(-515.409 -149.264)" fill="url(#linear-gradient)"/>
          <path id="Trazado_117115" data-name="Trazado 117115" d="M548.357,215.337l-30.618-17.678V162.306l30.618,17.677Z" transform="translate(-515.409 -144.629)" fill="url(#radial-gradient-2)"/>
        </g>
        <path id="Trazado_117116" data-name="Trazado 117116" d="M534.438,191.229l-8.564-4.944V176.4l8.564,4.944Z" transform="translate(-512.518 -139.621)" fill="#fff"/>
      </g>
      <g id="Grupo_109300" data-name="Grupo 109300" transform="translate(254.761 52.721)">
        <path id="Trazado_117117" data-name="Trazado 117117" d="M427.832,379.454l-168.4-97.224c-4.764-2.75-4.166-7.555,1.335-10.731l114.667-66.181c5.5-3.176,13.821-3.521,18.585-.77l168.4,97.224c4.764,2.75,4.166,7.555-1.335,10.731L446.417,378.684C440.917,381.859,432.6,382.2,427.832,379.454Z" transform="translate(-254.244 0.576)" fill="#7dc3ea"/>
        <path id="Trazado_117118" data-name="Trazado 117118" d="M436.441,370.088a18.446,18.446,0,0,1-9.078-2.127l-168.4-97.226c-2.711-1.564-4.2-3.826-4.2-6.369,0-2.911,2.02-5.747,5.538-7.779l114.667-66.181c6.137-3.546,15.168-3.883,20.559-.771l168.4,97.226c2.711,1.564,4.2,3.826,4.2,6.37,0,2.911-2.02,5.747-5.538,7.777L447.921,367.19A23.468,23.468,0,0,1,436.441,370.088Zm-7.106-5.545c4.141,2.391,11.747,2.037,16.614-.77l114.667-66.181c2.231-1.288,3.562-2.919,3.562-4.362,0-1.376-1.212-2.364-2.228-2.952l-168.4-97.224c-4.142-2.392-11.748-2.039-16.614.77L262.271,260c-2.231,1.29-3.563,2.919-3.563,4.362,0,1.376,1.213,2.364,2.23,2.952Z" transform="translate(-254.761 -4.82)" fill="#fff"/>
        <g id="Grupo_109299" data-name="Grupo 109299" transform="translate(1.974)">
          <path id="Trazado_117119" data-name="Trazado 117119" d="M566.773,150.988l-168.4-97.226a6.8,6.8,0,0,0-5.706-.7l.011-.018-.306.115c-.024.011-.05.019-.075.028l-6.086,2.329,5.462,2.674c-.024.1-.056.2-.079.3L361.841,193.8c-1.372,6.248,1.377,13.543,6.14,16.294L532.33,304.985l-.586,6.964,6.651-2.578c2.235-1.045,4.024-3.409,4.763-6.774l29.756-135.316C574.286,161.033,571.537,153.738,566.773,150.988Z" transform="translate(-218.805 -52.721)" fill="#173d7a"/>
          <path id="Trazado_117120" data-name="Trazado 117120" d="M564.228,150.988,395.83,53.762a6.8,6.8,0,0,0-5.706-.7l.011-.018-.306.115c-.024.011-.05.019-.075.028l-6.086,2.329,5.462,2.674c-.024.1-.056.2-.079.3l-20.4,92.746,82.4,64.194,118.5-57.731A13.066,13.066,0,0,0,564.228,150.988Z" transform="translate(-216.26 -52.721)" fill="#396caa"/>
          <path id="Trazado_117121" data-name="Trazado 117121" d="M511.584,144.179,524.4,138.72c.234-4.965-1.82-10.094-5.194-12.835l-20.291,8.535Z" transform="translate(-169.965 -26.72)" fill="#274f89"/>
          <path id="Trazado_117122" data-name="Trazado 117122" d="M528.644,310.672l-168.4-97.226c-4.763-2.75-7.512-10.045-6.14-16.293L383.859,61.837c1.373-6.248,6.347-9.084,11.111-6.334l168.4,97.226c4.764,2.75,7.513,10.045,6.14,16.293L539.754,304.339C538.381,310.587,533.407,313.422,528.644,310.672Z" transform="translate(-221.555 -52.106)" fill="url(#radial-gradient-3)"/>
          <path id="Trazado_117123" data-name="Trazado 117123" d="M555.493,152.289l-168.4-97.224a6.656,6.656,0,0,0-6.631-.289,6.921,6.921,0,0,1,5.014.881l168.4,97.223c4.764,2.751,7.513,10.046,6.14,16.294L530.261,304.489c-.708,3.222-2.38,5.512-4.48,6.622,2.842-.622,5.216-3.2,6.1-7.213l29.755-135.315C563.006,162.335,560.257,155.039,555.493,152.289Z" transform="translate(-212.062 -52.257)" fill="#fff"/>
          <path id="Trazado_117124" data-name="Trazado 117124" d="M523.177,298.984,364.8,207.59c-4.359-2.517-6.875-9.192-5.618-14.911L386.609,67.967c1.256-5.717,5.809-8.313,10.168-5.8l158.375,91.394c4.359,2.517,6.874,9.192,5.618,14.909L533.345,293.187C532.089,298.905,527.537,301.5,523.177,298.984Z" transform="translate(-219.739 -49.704)" fill="#fff"/>
          <path id="Trazado_117125" data-name="Trazado 117125" d="M523.177,298.984,364.8,207.59c-4.359-2.517-6.875-9.192-5.618-14.911L386.609,67.967c1.256-5.717,5.809-8.313,10.168-5.8l158.375,91.394c4.359,2.517,6.874,9.192,5.618,14.909L533.345,293.187C532.089,298.905,527.537,301.5,523.177,298.984Z" transform="translate(-219.739 -49.704)" fill="url(#radial-gradient-4)"/>
          <path id="Trazado_117126" data-name="Trazado 117126" d="M524.558,298.374,366.182,206.98c-4.359-2.516-6.875-9.192-5.618-14.909L387.99,67.358a8.769,8.769,0,0,1,3.99-6.015c-2.51.647-4.585,3-5.371,6.576L359.184,192.632c-1.256,5.718,1.259,12.394,5.618,14.911l158.375,91.394a6.09,6.09,0,0,0,6.176.218A6.312,6.312,0,0,1,524.558,298.374Z" transform="translate(-219.739 -49.657)" fill="#5793ce"/>
          <path id="Trazado_117127" data-name="Trazado 117127" d="M565.629,270.393l-23.018-3.04L394.019,181.564c-4.764-2.75-13.085-2.406-18.585.77L270.142,243.1l-13.92-1.838v7.9l.014,0c-.091,1.824.949,3.581,3.2,4.878l168.4,97.224c4.764,2.751,13.085,2.406,18.585-.77l114.667-66.181c3.094-1.786,4.638-4.088,4.547-6.25h0Z" transform="translate(-256.215 -7.592)" fill="#173d7a"/>
          <path id="Trazado_117128" data-name="Trazado 117128" d="M453.982,208.218l-10.557-6.1H327.361l-57.219,33.013-13.92-1.838v7.9l.014,0c-.091,1.824.949,3.581,3.2,4.878L427.83,343.3a17.421,17.421,0,0,0,9.592,1.8Z" transform="translate(-256.215 0.374)" fill="#396caa"/>
          <path id="Trazado_117129" data-name="Trazado 117129" d="M262.4,225.94l-6.178-.816v7.9l.014,0c-.091,1.824.949,3.581,3.2,4.878l2.968,1.713Z" transform="translate(-256.215 8.548)" fill="#5793ce"/>
          <path id="Trazado_117130" data-name="Trazado 117130" d="M384.085,311.741c4.516,1.712,10.972,1.339,15.792-.981V293.145H384.085Z" transform="translate(-210.775 32.722)" fill="#274f89"/>
          <path id="Trazado_117131" data-name="Trazado 117131" d="M427.832,346.811l-168.4-97.225c-4.764-2.75-4.166-7.555,1.335-10.731l114.667-66.181c5.5-3.176,13.821-3.52,18.585-.77l168.4,97.225c4.764,2.75,4.166,7.555-1.335,10.731L446.417,346.041C440.917,349.216,432.6,349.562,427.832,346.811Z" transform="translate(-256.217 -11.025)" fill="url(#radial-gradient-5)"/>
          <path id="Trazado_117132" data-name="Trazado 117132" d="M561.081,257.726,446.414,323.907c-5.5,3.176-13.821,3.52-18.585.77l-168.4-97.224a6.267,6.267,0,0,1-2.962-3.239c-.745,2.253.2,4.532,2.962,6.124l168.4,97.224c4.764,2.751,13.085,2.406,18.585-.77l114.667-66.181c3.7-2.135,5.168-5,4.3-7.491A8.954,8.954,0,0,1,561.081,257.726Z" transform="translate(-256.214 8.225)" fill="#fff"/>
          <g id="Grupo_109296" data-name="Grupo 109296" transform="translate(66.806 165.01)">
            <path id="Trazado_117133" data-name="Trazado 117133" d="M313.539,207.949l-7.62-4.4c-.611-.354-.534-.97.172-1.378l8.993-5.192a2.659,2.659,0,0,1,2.387-.1l7.62,4.4c.611.354.534.97-.172,1.378l-8.993,5.192A2.659,2.659,0,0,1,313.539,207.949Z" transform="translate(-305.507 -166.584)" fill="#5793ce"/>
            <path id="Trazado_117134" data-name="Trazado 117134" d="M322.22,212.961l-7.619-4.4c-.613-.352-.535-.97.171-1.377l8.993-5.192a2.656,2.656,0,0,1,2.387-.1l7.62,4.4c.611.354.535.97-.172,1.378l-8.993,5.192A2.655,2.655,0,0,1,322.22,212.961Z" transform="translate(-302.422 -164.803)" fill="#5793ce"/>
            <path id="Trazado_117135" data-name="Trazado 117135" d="M330.9,217.973l-7.62-4.4c-.611-.352-.535-.969.171-1.377L332.447,207a2.651,2.651,0,0,1,2.387-.1l7.619,4.4c.613.354.535.97-.171,1.378l-8.994,5.192A2.648,2.648,0,0,1,330.9,217.973Z" transform="translate(-299.336 -163.022)" fill="#5793ce"/>
            <path id="Trazado_117136" data-name="Trazado 117136" d="M342.908,213.615l-7.619-4.4c-.613-.354-.535-.97.171-1.378l7.549-4.359a2.655,2.655,0,0,1,2.387-.1l7.62,4.4c.611.354.534.97-.172,1.378l-7.549,4.359A2.655,2.655,0,0,1,342.908,213.615Z" transform="translate(-295.069 -164.274)" fill="#5793ce"/>
            <path id="Trazado_117137" data-name="Trazado 117137" d="M351.59,218.627l-7.62-4.4c-.611-.352-.535-.97.171-1.377l7.551-4.359a2.648,2.648,0,0,1,2.385-.1l7.62,4.4c.611.354.535.97-.171,1.378l-7.549,4.359A2.655,2.655,0,0,1,351.59,218.627Z" transform="translate(-291.984 -162.493)" fill="#5793ce"/>
            <path id="Trazado_117138" data-name="Trazado 117138" d="M360.271,223.639l-7.62-4.4c-.611-.352-.534-.969.172-1.377l7.549-4.359a2.651,2.651,0,0,1,2.387-.1l7.619,4.4c.613.354.535.97-.171,1.378l-7.55,4.359A2.651,2.651,0,0,1,360.271,223.639Z" transform="translate(-288.899 -160.712)" fill="#5793ce"/>
            <path id="Trazado_117139" data-name="Trazado 117139" d="M368.952,228.651l-7.619-4.4c-.613-.354-.535-.97.171-1.378l7.549-4.359a2.651,2.651,0,0,1,2.387-.1l7.62,4.4c.611.352.534.969-.172,1.377l-7.55,4.359A2.651,2.651,0,0,1,368.952,228.651Z" transform="translate(-285.814 -158.93)" fill="#5793ce"/>
            <path id="Trazado_117140" data-name="Trazado 117140" d="M377.634,233.663l-7.62-4.4c-.611-.354-.535-.97.172-1.378l7.55-4.359a2.652,2.652,0,0,1,2.385-.1l7.62,4.4c.611.352.535.97-.171,1.378l-7.55,4.358A2.651,2.651,0,0,1,377.634,233.663Z" transform="translate(-282.728 -157.149)" fill="#5793ce"/>
            <path id="Trazado_117141" data-name="Trazado 117141" d="M386.315,238.676l-7.62-4.4c-.611-.354-.534-.97.172-1.378l7.549-4.359a2.655,2.655,0,0,1,2.387-.1l7.619,4.4c.613.354.535.97-.171,1.378l-7.55,4.359A2.659,2.659,0,0,1,386.315,238.676Z" transform="translate(-279.643 -155.368)" fill="#5793ce"/>
            <path id="Trazado_117142" data-name="Trazado 117142" d="M395,243.688l-7.619-4.4c-.613-.352-.535-.97.171-1.377l7.549-4.359a2.651,2.651,0,0,1,2.387-.1l7.62,4.4c.611.354.535.97-.172,1.378l-7.549,4.359A2.655,2.655,0,0,1,395,243.688Z" transform="translate(-276.558 -153.587)" fill="#5793ce"/>
            <path id="Trazado_117143" data-name="Trazado 117143" d="M403.678,248.7l-7.62-4.4c-.611-.352-.535-.969.172-1.377l7.55-4.359a2.651,2.651,0,0,1,2.387-.1l7.619,4.4c.611.354.535.971-.171,1.378l-7.55,4.359A2.651,2.651,0,0,1,403.678,248.7Z" transform="translate(-273.473 -151.805)" fill="#5793ce"/>
            <path id="Trazado_117144" data-name="Trazado 117144" d="M412.359,253.712l-7.62-4.4c-.611-.352-.534-.969.172-1.377l7.549-4.359a2.651,2.651,0,0,1,2.387-.1l7.619,4.4c.613.352.535.969-.171,1.377l-7.549,4.359A2.651,2.651,0,0,1,412.359,253.712Z" transform="translate(-270.388 -150.024)" fill="#5793ce"/>
            <path id="Trazado_117145" data-name="Trazado 117145" d="M421.04,258.724l-7.619-4.4c-.611-.354-.535-.97.171-1.378l7.549-4.359a2.655,2.655,0,0,1,2.387-.1l7.62,4.4c.611.352.535.97-.172,1.378l-7.549,4.358A2.651,2.651,0,0,1,421.04,258.724Z" transform="translate(-267.302 -148.243)" fill="#5793ce"/>
            <path id="Trazado_117146" data-name="Trazado 117146" d="M355.7,211.242l-7.62-4.4c-.611-.354-.535-.97.172-1.378l7.549-4.358a2.651,2.651,0,0,1,2.387-.1l7.619,4.4c.611.354.535.97-.171,1.378l-7.549,4.359A2.655,2.655,0,0,1,355.7,211.242Z" transform="translate(-290.524 -165.117)" fill="#5793ce"/>
            <path id="Trazado_117147" data-name="Trazado 117147" d="M346.889,206.155l-7.62-4.4c-.611-.354-.535-.97.172-1.378l7.549-4.358a2.651,2.651,0,0,1,2.387-.1l7.619,4.4c.613.354.535.97-.171,1.378l-7.549,4.359A2.655,2.655,0,0,1,346.889,206.155Z" transform="translate(-293.655 -166.925)" fill="#5793ce"/>
            <path id="Trazado_117148" data-name="Trazado 117148" d="M340.368,202.39l-16.41-9.474c-.611-.352-.535-.969.172-1.377l7.549-4.359a2.648,2.648,0,0,1,2.385-.1l16.411,9.474c.611.352.535.97-.172,1.378l-7.55,4.358A2.651,2.651,0,0,1,340.368,202.39Z" transform="translate(-299.096 -170.067)" fill="#5793ce"/>
            <path id="Trazado_117149" data-name="Trazado 117149" d="M345.726,195.726l-13.317-7.689c-.613-.352-.535-.97.171-1.378l7.549-4.358a2.651,2.651,0,0,1,2.387-.1l13.318,7.688c.611.354.534.97-.172,1.378l-7.549,4.359A2.655,2.655,0,0,1,345.726,195.726Z" transform="translate(-296.093 -171.801)" fill="#5793ce"/>
            <path id="Trazado_117150" data-name="Trazado 117150" d="M364.381,216.254l-7.619-4.4c-.613-.352-.535-.969.171-1.377l7.549-4.359a2.651,2.651,0,0,1,2.387-.1l7.619,4.4c.613.354.535.97-.171,1.378l-7.549,4.359A2.651,2.651,0,0,1,364.381,216.254Z" transform="translate(-287.438 -163.336)" fill="#5793ce"/>
            <path id="Trazado_117151" data-name="Trazado 117151" d="M373.062,221.266l-7.619-4.4c-.613-.352-.535-.969.171-1.377l7.549-4.359a2.651,2.651,0,0,1,2.387-.1l7.62,4.4c.611.352.535.969-.172,1.377l-7.549,4.359A2.651,2.651,0,0,1,373.062,221.266Z" transform="translate(-284.353 -161.555)" fill="#5793ce"/>
            <path id="Trazado_117152" data-name="Trazado 117152" d="M381.744,226.278l-7.62-4.4c-.611-.354-.535-.97.172-1.378l7.55-4.359a2.651,2.651,0,0,1,2.387-.1l7.619,4.4c.613.352.535.969-.171,1.377l-7.55,4.359A2.651,2.651,0,0,1,381.744,226.278Z" transform="translate(-281.268 -159.774)" fill="#5793ce"/>
            <path id="Trazado_117153" data-name="Trazado 117153" d="M390.425,231.29l-7.619-4.4c-.613-.354-.535-.97.171-1.378l7.549-4.359a2.655,2.655,0,0,1,2.387-.1l7.619,4.4c.613.352.535.97-.171,1.378l-7.549,4.358A2.651,2.651,0,0,1,390.425,231.29Z" transform="translate(-278.183 -157.992)" fill="#5793ce"/>
            <path id="Trazado_117154" data-name="Trazado 117154" d="M399.106,236.3l-7.619-4.4c-.611-.354-.535-.97.171-1.378l7.55-4.359a2.659,2.659,0,0,1,2.387-.1l7.62,4.4c.611.354.535.97-.172,1.378l-7.549,4.359A2.659,2.659,0,0,1,399.106,236.3Z" transform="translate(-275.097 -156.211)" fill="#5793ce"/>
            <path id="Trazado_117155" data-name="Trazado 117155" d="M407.788,241.315l-7.62-4.4c-.611-.352-.534-.97.172-1.378l7.549-4.358a2.651,2.651,0,0,1,2.387-.1l7.619,4.4c.613.354.535.97-.171,1.378l-7.549,4.359A2.655,2.655,0,0,1,407.788,241.315Z" transform="translate(-272.012 -154.43)" fill="#5793ce"/>
            <path id="Trazado_117156" data-name="Trazado 117156" d="M416.469,246.327l-7.619-4.4c-.613-.352-.535-.969.171-1.377l7.549-4.359a2.651,2.651,0,0,1,2.387-.1l7.62,4.4c.611.354.534.97-.172,1.378l-7.55,4.359A2.651,2.651,0,0,1,416.469,246.327Z" transform="translate(-268.927 -152.649)" fill="#5793ce"/>
            <path id="Trazado_117157" data-name="Trazado 117157" d="M425.151,251.339l-7.62-4.4c-.611-.354-.535-.97.171-1.378l7.549-4.359a2.651,2.651,0,0,1,2.387-.1l7.62,4.4c.611.352.535.969-.172,1.377l-7.55,4.359A2.648,2.648,0,0,1,425.151,251.339Z" transform="translate(-265.842 -150.868)" fill="#5793ce"/>
            <path id="Trazado_117158" data-name="Trazado 117158" d="M433.832,256.351l-7.62-4.4c-.611-.354-.534-.97.172-1.378l7.549-4.359a2.655,2.655,0,0,1,2.387-.1l7.619,4.4c.613.352.535.97-.171,1.377l-7.549,4.359A2.651,2.651,0,0,1,433.832,256.351Z" transform="translate(-262.756 -149.086)" fill="#5793ce"/>
            <path id="Trazado_117159" data-name="Trazado 117159" d="M451.626,266.625,435,257.027c-.613-.352-.535-.97.171-1.377l7.549-4.359a2.651,2.651,0,0,1,2.387-.1l16.625,9.6c.611.354.535.97-.172,1.378l-7.549,4.359A2.655,2.655,0,0,1,451.626,266.625Z" transform="translate(-259.633 -147.283)" fill="#5793ce"/>
            <path id="Trazado_117160" data-name="Trazado 117160" d="M467.849,256.475l-14.032-8.1c-.611-.354-.535-.97.172-1.378l7.549-4.359a2.655,2.655,0,0,1,2.387-.1l14.031,8.1c.613.354.535.97-.171,1.378l-7.55,4.359A2.655,2.655,0,0,1,467.849,256.475Z" transform="translate(-252.947 -150.358)" fill="#5793ce"/>
            <path id="Trazado_117161" data-name="Trazado 117161" d="M379.584,215.273l-7.62-4.4c-.611-.354-.534-.97.172-1.378l7.55-4.359a2.655,2.655,0,0,1,2.387-.1l7.619,4.4c.613.352.535.97-.171,1.377l-7.549,4.359A2.651,2.651,0,0,1,379.584,215.273Z" transform="translate(-282.035 -163.685)" fill="#5793ce"/>
            <path id="Trazado_117162" data-name="Trazado 117162" d="M370.687,210.136l-7.62-4.4c-.611-.354-.535-.97.172-1.378L370.789,200a2.655,2.655,0,0,1,2.387-.1l7.619,4.4c.611.352.535.97-.171,1.377l-7.549,4.359A2.651,2.651,0,0,1,370.687,210.136Z" transform="translate(-285.197 -165.51)" fill="#5793ce"/>
            <path id="Trazado_117163" data-name="Trazado 117163" d="M361.789,205l-7.619-4.4c-.613-.354-.535-.97.171-1.378l7.549-4.359a2.655,2.655,0,0,1,2.387-.1l7.62,4.4c.611.354.534.97-.172,1.378l-7.549,4.358A2.651,2.651,0,0,1,361.789,205Z" transform="translate(-288.359 -167.336)" fill="#5793ce"/>
            <path id="Trazado_117164" data-name="Trazado 117164" d="M352.892,199.863l-7.619-4.4c-.613-.354-.535-.97.171-1.378l7.55-4.359a2.659,2.659,0,0,1,2.387-.1l7.619,4.4c.613.354.535.97-.171,1.378l-7.549,4.359A2.655,2.655,0,0,1,352.892,199.863Z" transform="translate(-291.521 -169.161)" fill="#5793ce"/>
            <path id="Trazado_117165" data-name="Trazado 117165" d="M388.265,220.285l-7.619-4.4c-.613-.354-.535-.97.171-1.378l7.549-4.359a2.655,2.655,0,0,1,2.387-.1l7.62,4.4c.611.352.534.97-.172,1.378l-7.549,4.358A2.651,2.651,0,0,1,388.265,220.285Z" transform="translate(-278.95 -161.903)" fill="#5793ce"/>
            <path id="Trazado_117166" data-name="Trazado 117166" d="M396.947,225.3l-7.62-4.4c-.611-.354-.535-.97.171-1.378l7.551-4.359a2.65,2.65,0,0,1,2.387-.1l7.619,4.4c.611.354.535.97-.171,1.378l-7.55,4.359A2.655,2.655,0,0,1,396.947,225.3Z" transform="translate(-275.865 -160.122)" fill="#5793ce"/>
            <path id="Trazado_117167" data-name="Trazado 117167" d="M405.628,230.31l-7.62-4.4c-.611-.352-.534-.97.172-1.378l7.549-4.358a2.651,2.651,0,0,1,2.387-.1l7.619,4.4c.613.354.535.97-.171,1.378l-7.549,4.359A2.655,2.655,0,0,1,405.628,230.31Z" transform="translate(-272.78 -158.341)" fill="#5793ce"/>
            <path id="Trazado_117168" data-name="Trazado 117168" d="M414.309,235.322l-7.619-4.4c-.613-.352-.535-.969.171-1.377l7.55-4.359a2.651,2.651,0,0,1,2.387-.1l7.62,4.4c.611.354.535.97-.172,1.378l-7.549,4.359A2.655,2.655,0,0,1,414.309,235.322Z" transform="translate(-269.695 -156.56)" fill="#5793ce"/>
            <path id="Trazado_117169" data-name="Trazado 117169" d="M422.991,240.334l-7.62-4.4c-.611-.352-.535-.969.172-1.377l7.549-4.359a2.651,2.651,0,0,1,2.387-.1l7.619,4.4c.611.352.535.969-.171,1.377l-7.549,4.359A2.651,2.651,0,0,1,422.991,240.334Z" transform="translate(-266.609 -154.779)" fill="#5793ce"/>
            <path id="Trazado_117170" data-name="Trazado 117170" d="M431.672,245.346l-7.619-4.4c-.613-.354-.535-.97.171-1.378l7.549-4.359a2.655,2.655,0,0,1,2.387-.1l7.619,4.4c.613.352.535.97-.171,1.377l-7.55,4.359A2.651,2.651,0,0,1,431.672,245.346Z" transform="translate(-263.524 -152.997)" fill="#5793ce"/>
            <path id="Trazado_117171" data-name="Trazado 117171" d="M440.353,250.358l-7.619-4.4c-.611-.354-.535-.97.171-1.378l7.549-4.359a2.655,2.655,0,0,1,2.387-.1l7.62,4.4c.611.354.535.97-.172,1.378l-7.549,4.358A2.651,2.651,0,0,1,440.353,250.358Z" transform="translate(-260.439 -151.216)" fill="#5793ce"/>
            <path id="Trazado_117172" data-name="Trazado 117172" d="M449.035,255.371l-7.62-4.4c-.611-.352-.535-.97.172-1.378l7.549-4.359a2.659,2.659,0,0,1,2.387-.1l7.619,4.4c.613.354.535.97-.171,1.378l-7.549,4.359A2.655,2.655,0,0,1,449.035,255.371Z" transform="translate(-257.354 -149.435)" fill="#5793ce"/>
            <path id="Trazado_117173" data-name="Trazado 117173" d="M457.716,260.383l-7.62-4.4c-.611-.352-.534-.971.172-1.377l7.549-4.359a2.651,2.651,0,0,1,2.387-.1l7.62,4.4c.611.354.534.97-.172,1.378l-7.549,4.359A2.655,2.655,0,0,1,457.716,260.383Z" transform="translate(-254.268 -147.653)" fill="#5793ce"/>
            <path id="Trazado_117174" data-name="Trazado 117174" d="M375.013,202.876l-7.62-4.4c-.611-.352-.535-.97.172-1.377l7.549-4.359a2.651,2.651,0,0,1,2.387-.1l7.619,4.4c.611.354.535.97-.171,1.378l-7.549,4.359A2.655,2.655,0,0,1,375.013,202.876Z" transform="translate(-283.66 -168.091)" fill="#5793ce"/>
            <path id="Trazado_117175" data-name="Trazado 117175" d="M366.375,197.889l-7.62-4.4c-.611-.354-.535-.97.171-1.378l7.549-4.359a2.66,2.66,0,0,1,2.387-.1l7.62,4.4c.611.354.535.97-.172,1.378l-7.55,4.359A2.652,2.652,0,0,1,366.375,197.889Z" transform="translate(-286.73 -169.863)" fill="#5793ce"/>
            <path id="Trazado_117176" data-name="Trazado 117176" d="M357.736,192.9l-7.619-4.4c-.613-.354-.535-.97.171-1.378l7.549-4.359a2.655,2.655,0,0,1,2.387-.1l7.62,4.4c.611.352.535.97-.172,1.378l-7.549,4.358A2.651,2.651,0,0,1,357.736,192.9Z" transform="translate(-289.8 -171.635)" fill="#5793ce"/>
            <path id="Trazado_117177" data-name="Trazado 117177" d="M349.1,187.914l-7.619-4.4c-.613-.354-.535-.97.171-1.378l7.549-4.359a2.651,2.651,0,0,1,2.387-.1l7.62,4.4c.611.352.534.969-.172,1.377l-7.55,4.359A2.651,2.651,0,0,1,349.1,187.914Z" transform="translate(-292.87 -173.408)" fill="#5793ce"/>
            <path id="Trazado_117178" data-name="Trazado 117178" d="M357.981,182.021l-7.62-4.4c-.611-.352-.534-.97.172-1.378l2.5-1.441a2.655,2.655,0,0,1,2.387-.1l7.62,4.4c.611.354.534.97-.172,1.378l-2.5,1.441A2.655,2.655,0,0,1,357.981,182.021Z" transform="translate(-289.713 -174.465)" fill="#5793ce"/>
            <path id="Trazado_117179" data-name="Trazado 117179" d="M369.254,188.529l-7.62-4.4c-.611-.352-.535-.969.172-1.377l2.5-1.441a2.651,2.651,0,0,1,2.387-.1l7.619,4.4c.613.354.535.97-.171,1.378l-2.5,1.441A2.651,2.651,0,0,1,369.254,188.529Z" transform="translate(-285.707 -172.152)" fill="#5793ce"/>
            <path id="Trazado_117180" data-name="Trazado 117180" d="M377.856,193.5l-7.62-4.4c-.611-.354-.534-.97.172-1.378l2.5-1.441a2.655,2.655,0,0,1,2.387-.1l7.62,4.4c.611.352.534.97-.172,1.377l-2.5,1.442A2.659,2.659,0,0,1,377.856,193.5Z" transform="translate(-282.649 -170.387)" fill="#5793ce"/>
            <path id="Trazado_117181" data-name="Trazado 117181" d="M386.458,198.462l-7.62-4.4c-.611-.352-.534-.969.172-1.377l2.5-1.441a2.651,2.651,0,0,1,2.387-.1l7.62,4.4c.611.354.534.97-.172,1.378l-2.5,1.441A2.651,2.651,0,0,1,386.458,198.462Z" transform="translate(-279.592 -168.622)" fill="#5793ce"/>
            <path id="Trazado_117182" data-name="Trazado 117182" d="M395.06,203.429l-7.619-4.4c-.613-.354-.535-.97.171-1.378l2.5-1.441a2.655,2.655,0,0,1,2.387-.1l7.62,4.4c.611.352.535.969-.172,1.377l-2.5,1.441A2.655,2.655,0,0,1,395.06,203.429Z" transform="translate(-276.535 -166.857)" fill="#5793ce"/>
            <path id="Trazado_117183" data-name="Trazado 117183" d="M443.085,231.155l-7.62-4.4c-.611-.354-.535-.97.172-1.378l2.5-1.441a2.655,2.655,0,0,1,2.387-.1l7.619,4.4c.613.352.535.969-.171,1.377l-2.5,1.441A2.651,2.651,0,0,1,443.085,231.155Z" transform="translate(-259.468 -157.003)" fill="#5793ce"/>
            <path id="Trazado_117184" data-name="Trazado 117184" d="M451.687,236.122l-7.62-4.4c-.611-.352-.534-.969.172-1.377l2.5-1.441a2.651,2.651,0,0,1,2.387-.1l7.62,4.4c.611.354.534.97-.172,1.378l-2.5,1.441A2.651,2.651,0,0,1,451.687,236.122Z" transform="translate(-256.411 -155.238)" fill="#5793ce"/>
            <path id="Trazado_117185" data-name="Trazado 117185" d="M460.289,241.089l-7.62-4.4c-.611-.354-.534-.97.172-1.378l2.5-1.441a2.651,2.651,0,0,1,2.387-.1l7.62,4.4c.611.352.535.97-.172,1.377l-2.5,1.441A2.655,2.655,0,0,1,460.289,241.089Z" transform="translate(-253.354 -153.474)" fill="#5793ce"/>
            <path id="Trazado_117186" data-name="Trazado 117186" d="M468.891,246.055l-7.619-4.4c-.613-.352-.535-.97.171-1.377l2.5-1.442a2.655,2.655,0,0,1,2.387-.1l7.62,4.4c.611.354.535.97-.171,1.378l-2.5,1.441A2.655,2.655,0,0,1,468.891,246.055Z" transform="translate(-250.297 -151.708)" fill="#5793ce"/>
            <path id="Trazado_117187" data-name="Trazado 117187" d="M383.694,207.888l-7.619-4.4c-.613-.352-.535-.969.171-1.377l7.55-4.359a2.651,2.651,0,0,1,2.387-.1l7.619,4.4c.613.352.535.969-.171,1.377l-7.549,4.359A2.651,2.651,0,0,1,383.694,207.888Z" transform="translate(-280.575 -166.309)" fill="#5793ce"/>
            <path id="Trazado_117188" data-name="Trazado 117188" d="M392.375,212.9l-7.619-4.4c-.613-.354-.535-.97.171-1.378l7.549-4.359a2.655,2.655,0,0,1,2.387-.1l7.62,4.4c.611.352.535.97-.172,1.377l-7.549,4.359A2.651,2.651,0,0,1,392.375,212.9Z" transform="translate(-277.49 -164.528)" fill="#5793ce"/>
            <path id="Trazado_117189" data-name="Trazado 117189" d="M401.057,217.912l-7.62-4.4c-.611-.354-.535-.97.172-1.378l7.549-4.359a2.655,2.655,0,0,1,2.387-.1l7.619,4.4c.611.352.535.97-.171,1.378l-7.549,4.358A2.651,2.651,0,0,1,401.057,217.912Z" transform="translate(-274.404 -162.747)" fill="#5793ce"/>
            <path id="Trazado_117190" data-name="Trazado 117190" d="M409.738,222.925l-7.619-4.4c-.613-.354-.535-.97.171-1.378l7.549-4.359a2.659,2.659,0,0,1,2.387-.1l7.619,4.4c.613.354.535.97-.171,1.378l-7.549,4.359A2.659,2.659,0,0,1,409.738,222.925Z" transform="translate(-271.319 -160.966)" fill="#5793ce"/>
            <path id="Trazado_117191" data-name="Trazado 117191" d="M418.419,227.937l-7.619-4.4c-.613-.352-.535-.97.171-1.377l7.549-4.359a2.651,2.651,0,0,1,2.387-.1l7.62,4.4c.611.354.535.97-.172,1.378l-7.549,4.359A2.655,2.655,0,0,1,418.419,227.937Z" transform="translate(-268.234 -159.184)" fill="#5793ce"/>
            <path id="Trazado_117192" data-name="Trazado 117192" d="M427.1,232.949l-7.62-4.4c-.611-.352-.534-.969.172-1.377l7.55-4.359a2.651,2.651,0,0,1,2.387-.1l7.619,4.4c.613.354.535.97-.171,1.378l-7.549,4.359A2.651,2.651,0,0,1,427.1,232.949Z" transform="translate(-265.149 -157.403)" fill="#5793ce"/>
            <path id="Trazado_117193" data-name="Trazado 117193" d="M435.782,237.961l-7.619-4.4c-.613-.354-.535-.97.171-1.378l7.549-4.359a2.655,2.655,0,0,1,2.387-.1l7.619,4.4c.613.352.535.969-.171,1.377l-7.55,4.359A2.651,2.651,0,0,1,435.782,237.961Z" transform="translate(-262.063 -155.622)" fill="#5793ce"/>
            <path id="Trazado_117194" data-name="Trazado 117194" d="M444.463,242.973l-7.619-4.4c-.611-.354-.535-.97.171-1.378l7.549-4.359a2.655,2.655,0,0,1,2.387-.1l7.62,4.4c.611.352.535.97-.172,1.378l-7.55,4.358A2.651,2.651,0,0,1,444.463,242.973Z" transform="translate(-258.978 -153.84)" fill="#5793ce"/>
            <path id="Trazado_117195" data-name="Trazado 117195" d="M453.145,247.985l-7.62-4.4c-.611-.354-.534-.97.172-1.378l7.55-4.359a2.655,2.655,0,0,1,2.387-.1l7.619,4.4c.613.354.535.97-.171,1.378l-7.549,4.358A2.651,2.651,0,0,1,453.145,247.985Z" transform="translate(-255.893 -152.059)" fill="#5793ce"/>
            <path id="Trazado_117196" data-name="Trazado 117196" d="M337.947,210.751l-22.44-12.956c-.611-.352-.534-.97.172-1.377l7.549-4.359a2.651,2.651,0,0,1,2.387-.1l22.44,12.955c.611.354.535.97-.172,1.378l-7.549,4.359A2.655,2.655,0,0,1,337.947,210.751Z" transform="translate(-302.099 -168.333)" fill="#5793ce"/>
            <path id="Trazado_117197" data-name="Trazado 117197" d="M444.6,272.327l-22.44-12.956c-.613-.354-.535-.97.171-1.377l7.549-4.359a2.651,2.651,0,0,1,2.387-.1l22.44,12.955c.613.354.535.97-.171,1.378l-7.549,4.359A2.655,2.655,0,0,1,444.6,272.327Z" transform="translate(-264.197 -146.45)" fill="#5793ce"/>
            <path id="Trazado_117198" data-name="Trazado 117198" d="M406,261.329l-7.62-4.4c-.611-.352-.534-.97.172-1.378l8.993-5.192a2.655,2.655,0,0,1,2.387-.1l7.62,4.4c.611.354.534.97-.172,1.378l-8.993,5.192A2.655,2.655,0,0,1,406,261.329Z" transform="translate(-272.649 -147.614)" fill="#5793ce"/>
            <path id="Trazado_117199" data-name="Trazado 117199" d="M344.149,225.621l-12.186-7.036c-.611-.352-.534-.969.172-1.377l8.993-5.192a2.651,2.651,0,0,1,2.387-.1l12.185,7.034c.613.354.535.97-.171,1.378l-8.993,5.192A2.651,2.651,0,0,1,344.149,225.621Z" transform="translate(-296.251 -161.24)" fill="#5793ce"/>
            <path id="Trazado_117200" data-name="Trazado 117200" d="M398.828,257.19l-12.185-7.034c-.611-.354-.535-.97.171-1.378l8.994-5.192a2.655,2.655,0,0,1,2.387-.1l12.185,7.036c.611.352.535.97-.171,1.377l-8.994,5.192A2.651,2.651,0,0,1,398.828,257.19Z" transform="translate(-276.819 -150.021)" fill="#5793ce"/>
            <path id="Trazado_117201" data-name="Trazado 117201" d="M356.674,232.853l-12.185-7.036c-.613-.354-.535-.97.171-1.378l8.993-5.192a2.659,2.659,0,0,1,2.387-.1l12.186,7.036c.611.354.535.97-.172,1.378l-8.993,5.192A2.655,2.655,0,0,1,356.674,232.853Z" transform="translate(-291.8 -158.67)" fill="#5793ce"/>
            <path id="Trazado_117202" data-name="Trazado 117202" d="M355.993,219.121l52.979,30.587a.725.725,0,0,1,0,1.374l-9.171,5.3a2.641,2.641,0,0,1-2.381,0l-52.978-30.588Z" transform="translate(-291.67 -158.595)" fill="#5793ce"/>
            <path id="Trazado_117203" data-name="Trazado 117203" d="M429.756,267.5l8.487,4.9c.5.289.438.794-.141,1.129l-3.679,2.124a2.177,2.177,0,0,1-1.957.081l-8.486-4.9c-.5-.29-.439-.8.14-1.13l3.678-2.124A2.178,2.178,0,0,1,429.756,267.5Z" transform="translate(-263.523 -141.471)" fill="#5793ce"/>
            <path id="Trazado_117204" data-name="Trazado 117204" d="M421,262.449l8.487,4.9c.5.289.439.8-.14,1.129l-3.68,2.124a2.17,2.17,0,0,1-1.956.081l-8.487-4.9c-.5-.29-.438-.8.141-1.13l3.678-2.124A2.174,2.174,0,0,1,421,262.449Z" transform="translate(-266.634 -143.267)" fill="#5793ce"/>
            <path id="Trazado_117205" data-name="Trazado 117205" d="M412.321,257.436l8.487,4.9c.5.289.439.794-.141,1.129l-3.679,2.124a2.17,2.17,0,0,1-1.956.081l-8.487-4.9c-.5-.29-.439-.8.14-1.13l3.68-2.124A2.179,2.179,0,0,1,412.321,257.436Z" transform="translate(-269.719 -145.048)" fill="#5793ce"/>
            <path id="Trazado_117206" data-name="Trazado 117206" d="M425.8,259.681l8.486,4.9c.5.29.439.8-.14,1.129l-3.68,2.124a2.17,2.17,0,0,1-1.956.081l-8.487-4.9c-.5-.289-.438-.8.141-1.129l3.678-2.124A2.173,2.173,0,0,1,425.8,259.681Z" transform="translate(-264.93 -144.25)" fill="#5793ce"/>
          </g>
          <g id="Grupo_109297" data-name="Grupo 109297" transform="translate(178.654 60.172)">
            <path id="Trazado_117207" data-name="Trazado 117207" d="M411.762,112.285l-19.138-11.049.815-4.12,19.138,11.049Z" transform="translate(-386.394 -97.116)" fill="#d4ecff"/>
            <path id="Trazado_117208" data-name="Trazado 117208" d="M410.23,119.35,391.092,108.3l.815-4.12,19.138,11.049Z" transform="translate(-386.939 -94.605)" fill="#fff"/>
            <path id="Trazado_117209" data-name="Trazado 117209" d="M479.531,217.343l-19.138-11.049.815-4.12,19.138,11.049Z" transform="translate(-362.31 -59.78)" fill="#d4ecff"/>
            <path id="Trazado_117210" data-name="Trazado 117210" d="M407.166,133.48l-19.138-11.049.815-4.12,19.138,11.049Z" transform="translate(-388.028 -89.584)" fill="#d4ecff"/>
          </g>
          <path id="Trazado_117211" data-name="Trazado 117211" d="M480.883,181.163l-70.8-40.874.911-4.6,70.8,40.874Z" transform="translate(-201.534 -23.236)" fill="#d4ecff"/>
          <path id="Trazado_117212" data-name="Trazado 117212" d="M456.571,183.657l-49.419-28.532.911-4.6,49.419,28.532Z" transform="translate(-202.577 -17.964)" fill="#d4ecff"/>
          <path id="Trazado_117213" data-name="Trazado 117213" d="M451.373,172.391l-42.753-24.684.911-4.6,42.753,24.684Z" transform="translate(-202.056 -20.6)" fill="#fff"/>
          <g id="Grupo_109298" data-name="Grupo 109298" transform="translate(234.745 107.708)">
            <path id="Trazado_117214" data-name="Trazado 117214" d="M434.91,136.779a2.668,2.668,0,0,1-3.844,1.185,3.346,3.346,0,0,1-1.377-4.2,2.667,2.667,0,0,1,3.844-1.185A3.347,3.347,0,0,1,434.91,136.779Z" transform="translate(-429.412 -132.187)" fill="#ff2c9c"/>
            <path id="Trazado_117215" data-name="Trazado 117215" d="M441.7,140.7a2.668,2.668,0,0,1-3.844,1.185,3.346,3.346,0,0,1-1.376-4.2,2.667,2.667,0,0,1,3.843-1.183A3.344,3.344,0,0,1,441.7,140.7Z" transform="translate(-426.997 -130.793)" fill="#fff"/>
            <path id="Trazado_117216" data-name="Trazado 117216" d="M448.5,144.624a2.668,2.668,0,0,1-3.844,1.183,3.346,3.346,0,0,1-1.376-4.2,2.667,2.667,0,0,1,3.843-1.183A3.344,3.344,0,0,1,448.5,144.624Z" transform="translate(-424.583 -129.4)" fill="#d4ecff"/>
            <path id="Trazado_117217" data-name="Trazado 117217" d="M455.288,148.546a2.667,2.667,0,0,1-3.843,1.183,3.344,3.344,0,0,1-1.377-4.2,2.668,2.668,0,0,1,3.844-1.183A3.345,3.345,0,0,1,455.288,148.546Z" transform="translate(-422.169 -128.006)" fill="#ff2c9c"/>
          </g>
          <path id="Trazado_117218" data-name="Trazado 117218" d="M466.457,181.1l-21.377-12.342.911-4.6L467.368,176.5Z" transform="translate(-189.098 -13.119)" fill="#ff2c9c"/>
        </g>
      </g>
      <path id="Trazado_117219" data-name="Trazado 117219" d="M367.921,282.731l-55.78-32.2c-1.363-.788-1.193-2.162.382-3.071l29.41-16.98a5.911,5.911,0,0,1,5.32-.221l55.78,32.205c1.364.786,1.193,2.162-.382,3.07l-29.411,16.982A5.915,5.915,0,0,1,367.921,282.731Z" transform="translate(20.065 62.904)" fill="#fff"/>
      <g id="Grupo_109317" data-name="Grupo 109317" transform="translate(278.221 69.746)">
        <path id="Trazado_117220" data-name="Trazado 117220" d="M424.887,320.78l-151.1-87.136,44.035-25.423,151.1,87.136Z" transform="translate(-271.46 -14.483)" fill="#173d7a" opacity="0.5"/>
        <path id="Trazado_117221" data-name="Trazado 117221" d="M425.5,307.206a2.34,2.34,0,0,1-1.163-.31l-151.1-87.136a2.328,2.328,0,0,1,0-4.032L317.269,190.3a2.326,2.326,0,0,1,2.326,0l151.1,87.136a2.329,2.329,0,0,1,0,4.034l-44.035,25.423A2.332,2.332,0,0,1,425.5,307.206ZM279.056,217.741l146.44,84.45,39.379-22.735L318.434,195.007Z" transform="translate(-272.07 -20.962)" fill="#fff"/>
        <g id="Grupo_109316" data-name="Grupo 109316" transform="translate(5.316)">
          <g id="Grupo_109304" data-name="Grupo 109304" transform="translate(52.543 91.591)">
            <g id="Grupo_109303" data-name="Grupo 109303">
              <path id="Trazado_117222" data-name="Trazado 117222" d="M326.287,240.1a1.868,1.868,0,0,1-1.868-1.866V179.253a1.867,1.867,0,1,1,3.734,0v58.982A1.867,1.867,0,0,1,326.287,240.1Z" transform="translate(-311.325 -117.032)" fill="#396caa"/>
              <g id="Grupo_109302" data-name="Grupo 109302">
                <path id="Trazado_117223" data-name="Trazado 117223" d="M318.984,173.831v39.848h0c0,1.363.9,2.728,2.7,3.769a14.439,14.439,0,0,0,13.058,0c1.8-1.041,2.7-2.406,2.7-3.769V173.831Z" transform="translate(-313.256 -118.295)" fill="url(#radial-gradient-6)"/>
                <g id="Grupo_109301" data-name="Grupo 109301">
                  <path id="Trazado_117224" data-name="Trazado 117224" d="M318.984,179.155v13.485a23.885,23.885,0,0,0,18.466,0V179.155A23.891,23.891,0,0,0,318.984,179.155Z" transform="translate(-313.256 -117.063)" fill="#396caa"/>
                  <path id="Trazado_117225" data-name="Trazado 117225" d="M344.68,132.857H314.758v62.5h0c0,2.211,1.461,4.421,4.382,6.109,5.843,3.374,15.316,3.374,21.159,0,2.921-1.686,4.382-3.9,4.381-6.109h0Z" transform="translate(-314.758 -132.857)" fill="url(#radial-gradient-7)"/>
                </g>
              </g>
            </g>
            <path id="Trazado_117226" data-name="Trazado 117226" d="M325.392,200.169c0,1.833-1.286,2.575-2.873,1.659a6.354,6.354,0,0,1-2.875-4.978c0-1.832,1.288-2.575,2.875-1.659A6.351,6.351,0,0,1,325.392,200.169Z" transform="translate(-313.022 -110.844)" fill="#d4ecff"/>
          </g>
          <g id="Grupo_109308" data-name="Grupo 109308" transform="translate(110.563 125.128)">
            <g id="Grupo_109307" data-name="Grupo 109307">
              <path id="Trazado_117227" data-name="Trazado 117227" d="M369.093,264.847a1.869,1.869,0,0,1-1.868-1.868V204a1.868,1.868,0,0,1,3.735,0v58.982A1.869,1.869,0,0,1,369.093,264.847Z" transform="translate(-354.132 -141.776)" fill="#396caa"/>
              <g id="Grupo_109306" data-name="Grupo 109306">
                <path id="Trazado_117228" data-name="Trazado 117228" d="M361.792,198.575v39.847h0c0,1.365.9,2.728,2.7,3.769a14.428,14.428,0,0,0,13.056,0c1.8-1.041,2.7-2.4,2.7-3.769V198.575Z" transform="translate(-356.063 -143.039)" fill="url(#radial-gradient-8)"/>
                <g id="Grupo_109305" data-name="Grupo 109305">
                  <path id="Trazado_117229" data-name="Trazado 117229" d="M361.792,203.9v13.485a23.885,23.885,0,0,0,18.466,0V203.9A23.891,23.891,0,0,0,361.792,203.9Z" transform="translate(-356.063 -141.808)" fill="#396caa"/>
                  <path id="Trazado_117230" data-name="Trazado 117230" d="M387.488,157.6H357.565v62.5h0c0,2.211,1.461,4.421,4.383,6.107,5.842,3.374,15.314,3.374,21.157,0,2.921-1.686,4.382-3.9,4.382-6.107h0Z" transform="translate(-357.565 -157.601)" fill="url(#radial-gradient-9)"/>
                </g>
              </g>
            </g>
            <path id="Trazado_117231" data-name="Trazado 117231" d="M368.2,224.912c0,1.834-1.288,2.577-2.875,1.659a6.351,6.351,0,0,1-2.873-4.977c0-1.834,1.286-2.577,2.873-1.659A6.352,6.352,0,0,1,368.2,224.912Z" transform="translate(-355.828 -135.588)" fill="#d4ecff"/>
          </g>
          <g id="Grupo_109315" data-name="Grupo 109315">
            <g id="Grupo_109311" data-name="Grupo 109311">
              <path id="Trazado_117232" data-name="Trazado 117232" d="M283.486,105.473l39.72-22.852s-1.495,22.8-1.495,22.852-22.817,7.067-22.817,7.067Z" transform="translate(-273.329 -59.12)" fill="#5793ce"/>
              <path id="Trazado_117233" data-name="Trazado 117233" d="M488.518,243.159c0-16.037-11.261-35.54-25.149-43.558a25.027,25.027,0,0,0-8.594-3.185c-4-21.046-18.649-43.4-36.11-53.478a35.354,35.354,0,0,0-14.778-5c-2.384-25.51-20.121-54.5-41.659-66.936-11.251-6.5-21.46-7.264-28.993-3.287v-.019l-.365.21c-.192.107-.384.217-.572.329L308.878,82.067l7.783,6.147c-6.987,3.052-11.4,10.888-11.4,22.47,0,21.358,14.995,47.329,33.492,58.008l114.182,81.535,3.52,23.76,24.673-14.531.066-.039.148-.087,0,0C485.776,256.652,488.518,251.067,488.518,243.159Z" transform="translate(-265.591 -65.282)" fill="url(#radial-gradient-10)"/>
              <path id="Trazado_117234" data-name="Trazado 117234" d="M306.112,101.28l53.755-31.408c-10.435-5.442-19.865-5.891-26.936-2.158v-.019l-.365.21q-.289.161-.572.329L308.575,82.067l7.781,6.147C311.473,90.348,307.852,94.825,306.112,101.28Z" transform="translate(-265.288 -65.281)" fill="#5793ce"/>
              <path id="Trazado_117235" data-name="Trazado 117235" d="M390.087,173.857l39.222-23.017c-6.727-11.636-15.991-21.8-26.246-27.722q-2.037-1.175-4.016-2.067l-49.889,29.176Z" transform="translate(-249.99 -45.462)" fill="#5793ce"/>
              <path id="Trazado_117236" data-name="Trazado 117236" d="M316.082,84.37,333.561,94.46l32.011-18.853a63.659,63.659,0,0,0-7.192-4.874,44.946,44.946,0,0,0-11.186-4.7Z" transform="translate(-261.745 -65.014)" fill="#d4ecff"/>
              <path id="Trazado_117237" data-name="Trazado 117237" d="M413.309,138.032l-31.3,18.447,10.888,12.143,28.418-16.78A91.2,91.2,0,0,0,413.309,138.032Z" transform="translate(-238.317 -39.427)" fill="#d4ecff"/>
              <path id="Trazado_117238" data-name="Trazado 117238" d="M449.18,210.289a25.024,25.024,0,0,0-8.595-3.184c-4-21.046-18.649-43.4-36.11-53.478a35.334,35.334,0,0,0-14.778-5c-2.384-25.51-20.121-54.5-41.659-66.936C324.874,68.316,306.1,79.157,306.1,105.9c0,.907.026,1.822.069,2.742-16.94-7.856-30.174,1-30.174,21.06,0,21.358,14.995,47.329,33.492,58.008l139.7,80.653c13.889,8.02,25.149,1.519,25.149-14.519S463.069,218.309,449.18,210.289Z" transform="translate(-275.992 -61.486)" fill="url(#linear-gradient-2)"/>
              <g id="Grupo_109309" data-name="Grupo 109309" transform="translate(7.661 12.483)">
                <path id="Trazado_117239" data-name="Trazado 117239" d="M304.157,101.335c-.043-.92-.069-1.835-.069-2.742,0-.039,0-.076,0-.114-9.358-3.638-17.4-2.055-22.447,3.784C287.126,97.75,295.1,97.134,304.157,101.335Z" transform="translate(-281.644 -66.658)" fill="#fff"/>
                <path id="Trazado_117240" data-name="Trazado 117240" d="M440.9,208.819a25.011,25.011,0,0,0-8.593-3.185c-4-21.046-18.649-43.4-36.11-53.478a35.353,35.353,0,0,0-14.778-5c-2.384-25.51-20.121-54.5-41.659-66.936-14.432-8.332-27.159-7.262-34.7,1.2,7.688-6.571,19.458-6.823,32.659.8,21.538,12.436,39.275,41.426,41.659,66.936a35.354,35.354,0,0,1,14.778,5c17.461,10.081,32.106,32.43,36.11,53.478a25,25,0,0,1,8.595,3.185C452.742,218.831,464,238.334,464,254.371c0,5.787-1.484,10.31-4.011,13.379,3.767-2.9,6.056-8.163,6.056-15.373C466.047,236.34,454.787,216.837,440.9,208.819Z" transform="translate(-273.325 -74.492)" fill="#fff"/>
              </g>
              <g id="Grupo_109310" data-name="Grupo 109310" transform="translate(7.021 21.48)">
                <path id="Trazado_117241" data-name="Trazado 117241" d="M301.37,113.178l10.5,4.87-.534-11.563c-.038-.812-.061-1.618-.061-2.418,0-10.321,3.116-17.8,8.773-21.072s13.7-2.221,22.638,2.938c19.223,11.1,35.994,38.116,38.178,61.509l.552,5.893,5.9.454a28.383,28.383,0,0,1,11.805,4.081c15.268,8.815,29.031,29.3,32.723,48.71l.924,4.858,4.886.766a18.12,18.12,0,0,1,6.171,2.33c11.729,6.771,21.639,23.935,21.639,37.478,0,5.068-1.405,8.787-3.856,10.2s-6.372.771-10.762-1.762L311.152,179.8c-16.25-9.382-29.98-33.162-29.98-51.927,0-7.364,2.171-12.974,5.958-15.393a10.2,10.2,0,0,1,5.568-1.488A21.006,21.006,0,0,1,301.37,113.178Z" transform="translate(-281.172 -81.129)" fill="url(#radial-gradient-11)"/>
              </g>
            </g>
            <g id="Grupo_109314" data-name="Grupo 109314" transform="translate(66.473 89.36)">
              <path id="Trazado_117242" data-name="Trazado 117242" d="M347.514,170.578l3.685-1.85-3.628-2.748Z" transform="translate(-317.047 -118.855)" fill="#5793ce"/>
              <path id="Trazado_117243" data-name="Trazado 117243" d="M339.349,133.118l3.577-1.809.065,1.873Z" transform="translate(-319.949 -131.177)" fill="#5793ce"/>
              <path id="Trazado_117244" data-name="Trazado 117244" d="M356.176,163.071l3.734-1.877-7.186-6.835Z" transform="translate(-315.196 -122.985)" fill="#5793ce"/>
              <g id="Grupo_109312" data-name="Grupo 109312" transform="translate(3.742)">
                <path id="Trazado_117245" data-name="Trazado 117245" d="M354.432,176.68,336.984,166.4a3.722,3.722,0,0,1-1.6-2.934l.058-20.2L356.1,155.436l-.057,20.2C356.037,176.734,355.317,177.2,354.432,176.68Z" transform="translate(-325.099 -126.926)" fill="#5793ce"/>
                <path id="Trazado_117246" data-name="Trazado 117246" d="M346.993,131.367,328.15,143.492c-.8.515-.153,2.433,1.06,3.149l19.246,11.334L367.7,169.309c1.214.716,1.869-.436,1.075-1.889l-18.712-34.245C349.256,131.7,347.807,130.842,346.993,131.367Z" transform="translate(-327.796 -131.211)" fill="#5793ce"/>
              </g>
              <g id="Grupo_109313" data-name="Grupo 109313" transform="translate(0 1.884)">
                <path id="Trazado_117247" data-name="Trazado 117247" d="M351.67,178.07l-17.446-10.275a3.714,3.714,0,0,1-1.6-2.934l.057-20.2,20.655,12.165-.058,20.2C353.277,178.124,352.556,178.592,351.67,178.07Z" transform="translate(-322.338 -128.316)" fill="#d4ecff"/>
                <path id="Trazado_117248" data-name="Trazado 117248" d="M344.233,132.757l-18.844,12.125c-.8.515-.153,2.433,1.061,3.149l19.245,11.334L364.94,170.7c1.214.716,1.87-.436,1.076-1.889L347.3,134.565C346.495,133.086,345.047,132.232,344.233,132.757Z" transform="translate(-325.036 -132.601)" fill="#d4ecff"/>
              </g>
            </g>
          </g>
        </g>
      </g>
    </g>
  </g>
</svg>
