<svg xmlns="http://www.w3.org/2000/svg" width="464.824" height="453.926" viewBox="0 0 464.824 453.926">
  <g id="Grupo_896791" data-name="Grupo 896791" transform="translate(-17.588 -30.039)">
    <g id="Grupo_896265" data-name="Grupo 896265">
      <g id="Grupo_896254" data-name="Grupo 896254">
        <g id="Grupo_896253" data-name="Grupo 896253">
          <rect id="Rectángulo_300828" data-name="Rectángulo 300828" width="58.88" height="87.355" transform="matrix(0.135, -0.991, 0.991, 0.135, 361.53, 464.187)" fill="#ebebeb"/>
        </g>
      </g>
      <g id="Grupo_896258" data-name="Grupo 896258">
        <g id="Grupo_896257" data-name="Grupo 896257">
          <g id="Grupo_896256" data-name="Grupo 896256">
            <g id="Grupo_896255" data-name="Grupo 896255">
              <path id="Trazado_624397" data-name="Trazado 624397" d="M456.218,418.383a5.945,5.945,0,0,1-.911.666l-2.7,1.783-10.009,6.44-33.258,21.045-.274.174-.224-.236-.543-.569-27.441-28.95-8.25-8.836-2.214-2.43a6.229,6.229,0,0,1-.732-.885,6.438,6.438,0,0,1,.848.775l2.322,2.327,8.432,8.662,27.609,28.79.543.569-.5-.062L442.3,426.8l10.142-6.227,2.777-1.658A6.13,6.13,0,0,1,456.218,418.383Z" fill="#e0e0e0"/>
            </g>
          </g>
        </g>
      </g>
      <g id="Grupo_896261" data-name="Grupo 896261">
        <g id="Grupo_896260" data-name="Grupo 896260">
          <g id="Grupo_896259" data-name="Grupo 896259">
            <path id="Trazado_624398" data-name="Trazado 624398" d="M361.712,464.927c-.147-.163,7.452-7.273,16.97-15.879s17.357-15.455,17.5-15.292-7.45,7.271-16.972,15.88S361.859,465.089,361.712,464.927Z" fill="#e0e0e0"/>
          </g>
        </g>
      </g>
      <g id="Grupo_896264" data-name="Grupo 896264">
        <g id="Grupo_896263" data-name="Grupo 896263">
          <g id="Grupo_896262" data-name="Grupo 896262">
            <path id="Trazado_624399" data-name="Trazado 624399" d="M425.057,436.948c.189-.111,5.538,8.705,11.947,19.687s11.452,19.978,11.263,20.089-5.538-8.7-11.948-19.689S424.868,437.058,425.057,436.948Z" fill="#e0e0e0"/>
          </g>
        </g>
      </g>
    </g>
    <g id="Grupo_896333" data-name="Grupo 896333">
      <g id="Grupo_896284" data-name="Grupo 896284">
        <g id="Grupo_896274" data-name="Grupo 896274">
          <g id="Grupo_896273" data-name="Grupo 896273">
            <g id="Grupo_896272" data-name="Grupo 896272">
              <g id="Grupo_896271" data-name="Grupo 896271">
                <g id="Grupo_896270" data-name="Grupo 896270">
                  <g id="Grupo_896269" data-name="Grupo 896269">
                    <g id="Grupo_896268" data-name="Grupo 896268">
                      <g id="Grupo_896267" data-name="Grupo 896267">
                        <g id="Grupo_896266" data-name="Grupo 896266">
                          <path id="Trazado_624400" data-name="Trazado 624400" d="M322.325,114.267,278.15,102.433a5.722,5.722,0,0,1-4.046-7.008l16.379-61.143a5.723,5.723,0,0,1,7.008-4.047l28.016,7.505L341.2,65.9l-11.872,44.319A5.723,5.723,0,0,1,322.325,114.267Z" fill="#ebebeb"/>
                        </g>
                      </g>
                    </g>
                  </g>
                </g>
              </g>
            </g>
          </g>
        </g>
        <g id="Grupo_896283" data-name="Grupo 896283">
          <g id="Grupo_896282" data-name="Grupo 896282">
            <g id="Grupo_896281" data-name="Grupo 896281">
              <g id="Grupo_896280" data-name="Grupo 896280">
                <g id="Grupo_896279" data-name="Grupo 896279">
                  <g id="Grupo_896278" data-name="Grupo 896278">
                    <g id="Grupo_896277" data-name="Grupo 896277">
                      <g id="Grupo_896276" data-name="Grupo 896276">
                        <g id="Grupo_896275" data-name="Grupo 896275">
                          <path id="Trazado_624401" data-name="Trazado 624401" d="M325.507,37.74,320.9,54.949a5.322,5.322,0,0,0,3.763,6.518L341.2,65.9Z" fill="#e0e0e0"/>
                        </g>
                      </g>
                    </g>
                  </g>
                </g>
              </g>
            </g>
          </g>
        </g>
      </g>
      <g id="Grupo_896292" data-name="Grupo 896292">
        <g id="Grupo_896291" data-name="Grupo 896291">
          <g id="Grupo_896290" data-name="Grupo 896290">
            <g id="Grupo_896289" data-name="Grupo 896289">
              <g id="Grupo_896288" data-name="Grupo 896288">
                <g id="Grupo_896287" data-name="Grupo 896287">
                  <g id="Grupo_896286" data-name="Grupo 896286">
                    <g id="Grupo_896285" data-name="Grupo 896285">
                      <path id="Trazado_624402" data-name="Trazado 624402" d="M317.381,53.254c-.059.221-4.683-.825-10.326-2.337S296.884,48,296.944,47.779s4.681.825,10.326,2.337S317.44,53.033,317.381,53.254Z" fill="#fff"/>
                    </g>
                  </g>
                </g>
              </g>
            </g>
          </g>
        </g>
      </g>
      <g id="Grupo_896300" data-name="Grupo 896300">
        <g id="Grupo_896299" data-name="Grupo 896299">
          <g id="Grupo_896298" data-name="Grupo 896298">
            <g id="Grupo_896297" data-name="Grupo 896297">
              <g id="Grupo_896296" data-name="Grupo 896296">
                <g id="Grupo_896295" data-name="Grupo 896295">
                  <g id="Grupo_896294" data-name="Grupo 896294">
                    <g id="Grupo_896293" data-name="Grupo 896293">
                      <path id="Trazado_624403" data-name="Trazado 624403" d="M327.973,66.52c-.059.221-7.637-1.617-16.924-4.106s-16.771-4.684-16.712-4.905,7.636,1.616,16.926,4.1S328.033,66.3,327.973,66.52Z" fill="#fff"/>
                    </g>
                  </g>
                </g>
              </g>
            </g>
          </g>
        </g>
      </g>
      <g id="Grupo_896308" data-name="Grupo 896308">
        <g id="Grupo_896307" data-name="Grupo 896307">
          <g id="Grupo_896306" data-name="Grupo 896306">
            <g id="Grupo_896305" data-name="Grupo 896305">
              <g id="Grupo_896304" data-name="Grupo 896304">
                <g id="Grupo_896303" data-name="Grupo 896303">
                  <g id="Grupo_896302" data-name="Grupo 896302">
                    <g id="Grupo_896301" data-name="Grupo 896301">
                      <path id="Trazado_624404" data-name="Trazado 624404" d="M328.826,75.455c-.059.222-8.316-1.8-18.439-4.51s-18.285-5.09-18.226-5.312,8.314,1.8,18.44,4.511S328.885,75.235,328.826,75.455Z" fill="#fff"/>
                    </g>
                  </g>
                </g>
              </g>
            </g>
          </g>
        </g>
      </g>
      <g id="Grupo_896316" data-name="Grupo 896316">
        <g id="Grupo_896315" data-name="Grupo 896315">
          <g id="Grupo_896314" data-name="Grupo 896314">
            <g id="Grupo_896313" data-name="Grupo 896313">
              <g id="Grupo_896312" data-name="Grupo 896312">
                <g id="Grupo_896311" data-name="Grupo 896311">
                  <g id="Grupo_896310" data-name="Grupo 896310">
                    <g id="Grupo_896309" data-name="Grupo 896309">
                      <path id="Trazado_624405" data-name="Trazado 624405" d="M326.772,83.121c-.059.221-8.315-1.8-18.438-4.511s-18.286-5.09-18.227-5.312,8.314,1.8,18.441,4.512S326.832,82.9,326.772,83.121Z" fill="#fff"/>
                    </g>
                  </g>
                </g>
              </g>
            </g>
          </g>
        </g>
      </g>
      <g id="Grupo_896324" data-name="Grupo 896324">
        <g id="Grupo_896323" data-name="Grupo 896323">
          <g id="Grupo_896322" data-name="Grupo 896322">
            <g id="Grupo_896321" data-name="Grupo 896321">
              <g id="Grupo_896320" data-name="Grupo 896320">
                <g id="Grupo_896319" data-name="Grupo 896319">
                  <g id="Grupo_896318" data-name="Grupo 896318">
                    <g id="Grupo_896317" data-name="Grupo 896317">
                      <path id="Trazado_624406" data-name="Trazado 624406" d="M324.719,90.786c-.059.221-8.316-1.8-18.439-4.51s-18.285-5.091-18.226-5.312,8.314,1.8,18.441,4.511S324.778,90.565,324.719,90.786Z" fill="#fff"/>
                    </g>
                  </g>
                </g>
              </g>
            </g>
          </g>
        </g>
      </g>
      <g id="Grupo_896332" data-name="Grupo 896332">
        <g id="Grupo_896331" data-name="Grupo 896331">
          <g id="Grupo_896330" data-name="Grupo 896330">
            <g id="Grupo_896329" data-name="Grupo 896329">
              <g id="Grupo_896328" data-name="Grupo 896328">
                <g id="Grupo_896327" data-name="Grupo 896327">
                  <g id="Grupo_896326" data-name="Grupo 896326">
                    <g id="Grupo_896325" data-name="Grupo 896325">
                      <path id="Trazado_624407" data-name="Trazado 624407" d="M322.666,98.451c-.059.221-8.316-1.8-18.439-4.51S285.941,88.85,286,88.629s8.314,1.8,18.441,4.511S322.725,98.23,322.666,98.451Z" fill="#fff"/>
                    </g>
                  </g>
                </g>
              </g>
            </g>
          </g>
        </g>
      </g>
    </g>
    <g id="Grupo_896401" data-name="Grupo 896401">
      <g id="Grupo_896352" data-name="Grupo 896352">
        <g id="Grupo_896342" data-name="Grupo 896342">
          <g id="Grupo_896341" data-name="Grupo 896341">
            <g id="Grupo_896340" data-name="Grupo 896340">
              <g id="Grupo_896339" data-name="Grupo 896339">
                <g id="Grupo_896338" data-name="Grupo 896338">
                  <g id="Grupo_896337" data-name="Grupo 896337">
                    <g id="Grupo_896336" data-name="Grupo 896336">
                      <g id="Grupo_896335" data-name="Grupo 896335">
                        <g id="Grupo_896334" data-name="Grupo 896334">
                          <path id="Trazado_624408" data-name="Trazado 624408" d="M98.1,453.684l-42.082,17.9a5.722,5.722,0,0,1-7.5-3.025L23.729,410.318a5.722,5.722,0,0,1,3.025-7.506l26.688-11.355,29.719,12.5,17.963,42.219A5.721,5.721,0,0,1,98.1,453.684Z" fill="#ebebeb"/>
                        </g>
                      </g>
                    </g>
                  </g>
                </g>
              </g>
            </g>
          </g>
        </g>
        <g id="Grupo_896351" data-name="Grupo 896351">
          <g id="Grupo_896350" data-name="Grupo 896350">
            <g id="Grupo_896349" data-name="Grupo 896349">
              <g id="Grupo_896348" data-name="Grupo 896348">
                <g id="Grupo_896347" data-name="Grupo 896347">
                  <g id="Grupo_896346" data-name="Grupo 896346">
                    <g id="Grupo_896345" data-name="Grupo 896345">
                      <g id="Grupo_896344" data-name="Grupo 896344">
                        <g id="Grupo_896343" data-name="Grupo 896343">
                          <path id="Trazado_624409" data-name="Trazado 624409" d="M53.442,391.457l6.975,16.393a5.324,5.324,0,0,0,6.981,2.814l15.763-6.7Z" fill="#e0e0e0"/>
                        </g>
                      </g>
                    </g>
                  </g>
                </g>
              </g>
            </g>
          </g>
        </g>
      </g>
      <g id="Grupo_896360" data-name="Grupo 896360">
        <g id="Grupo_896359" data-name="Grupo 896359">
          <g id="Grupo_896358" data-name="Grupo 896358">
            <g id="Grupo_896357" data-name="Grupo 896357">
              <g id="Grupo_896356" data-name="Grupo 896356">
                <g id="Grupo_896355" data-name="Grupo 896355">
                  <g id="Grupo_896354" data-name="Grupo 896354">
                    <g id="Grupo_896353" data-name="Grupo 896353">
                      <path id="Trazado_624410" data-name="Trazado 624410" d="M56.6,408.682c.09.21-4.2,2.236-9.572,4.523s-9.807,3.971-9.9,3.761,4.2-2.236,9.573-4.524S56.514,408.471,56.6,408.682Z" fill="#fff"/>
                    </g>
                  </g>
                </g>
              </g>
            </g>
          </g>
        </g>
      </g>
      <g id="Grupo_896368" data-name="Grupo 896368">
        <g id="Grupo_896367" data-name="Grupo 896367">
          <g id="Grupo_896366" data-name="Grupo 896366">
            <g id="Grupo_896365" data-name="Grupo 896365">
              <g id="Grupo_896364" data-name="Grupo 896364">
                <g id="Grupo_896363" data-name="Grupo 896363">
                  <g id="Grupo_896362" data-name="Grupo 896362">
                    <g id="Grupo_896361" data-name="Grupo 896361">
                      <path id="Trazado_624411" data-name="Trazado 624411" d="M73.121,412.6c.09.21-7.011,3.433-15.858,7.2s-16.1,6.646-16.184,6.436,7.009-3.433,15.859-7.2S73.031,412.39,73.121,412.6Z" fill="#fff"/>
                    </g>
                  </g>
                </g>
              </g>
            </g>
          </g>
        </g>
      </g>
      <g id="Grupo_896376" data-name="Grupo 896376">
        <g id="Grupo_896375" data-name="Grupo 896375">
          <g id="Grupo_896374" data-name="Grupo 896374">
            <g id="Grupo_896373" data-name="Grupo 896373">
              <g id="Grupo_896372" data-name="Grupo 896372">
                <g id="Grupo_896371" data-name="Grupo 896371">
                  <g id="Grupo_896370" data-name="Grupo 896370">
                    <g id="Grupo_896369" data-name="Grupo 896369">
                      <path id="Trazado_624412" data-name="Trazado 624412" d="M79.3,419.112c.089.211-7.658,3.709-17.3,7.812s-17.538,7.26-17.627,7.05,7.655-3.708,17.3-7.813S79.21,418.9,79.3,419.112Z" fill="#fff"/>
                    </g>
                  </g>
                </g>
              </g>
            </g>
          </g>
        </g>
      </g>
      <g id="Grupo_896384" data-name="Grupo 896384">
        <g id="Grupo_896383" data-name="Grupo 896383">
          <g id="Grupo_896382" data-name="Grupo 896382">
            <g id="Grupo_896381" data-name="Grupo 896381">
              <g id="Grupo_896380" data-name="Grupo 896380">
                <g id="Grupo_896379" data-name="Grupo 896379">
                  <g id="Grupo_896378" data-name="Grupo 896378">
                    <g id="Grupo_896377" data-name="Grupo 896377">
                      <path id="Trazado_624413" data-name="Trazado 624413" d="M82.406,426.415c.09.21-7.657,3.708-17.3,7.811s-17.538,7.26-17.628,7.05,7.656-3.708,17.3-7.813S82.317,426.2,82.406,426.415Z" fill="#fff"/>
                    </g>
                  </g>
                </g>
              </g>
            </g>
          </g>
        </g>
      </g>
      <g id="Grupo_896392" data-name="Grupo 896392">
        <g id="Grupo_896391" data-name="Grupo 896391">
          <g id="Grupo_896390" data-name="Grupo 896390">
            <g id="Grupo_896389" data-name="Grupo 896389">
              <g id="Grupo_896388" data-name="Grupo 896388">
                <g id="Grupo_896387" data-name="Grupo 896387">
                  <g id="Grupo_896386" data-name="Grupo 896386">
                    <g id="Grupo_896385" data-name="Grupo 896385">
                      <path id="Trazado_624414" data-name="Trazado 624414" d="M85.513,433.717c.09.21-7.657,3.708-17.3,7.811s-17.538,7.26-17.627,7.05,7.655-3.708,17.3-7.813S85.424,433.506,85.513,433.717Z" fill="#fff"/>
                    </g>
                  </g>
                </g>
              </g>
            </g>
          </g>
        </g>
      </g>
      <g id="Grupo_896400" data-name="Grupo 896400">
        <g id="Grupo_896399" data-name="Grupo 896399">
          <g id="Grupo_896398" data-name="Grupo 896398">
            <g id="Grupo_896397" data-name="Grupo 896397">
              <g id="Grupo_896396" data-name="Grupo 896396">
                <g id="Grupo_896395" data-name="Grupo 896395">
                  <g id="Grupo_896394" data-name="Grupo 896394">
                    <g id="Grupo_896393" data-name="Grupo 896393">
                      <path id="Trazado_624415" data-name="Trazado 624415" d="M88.62,441.019c.09.21-7.657,3.708-17.3,7.811s-17.537,7.261-17.627,7.05,7.656-3.708,17.3-7.812S88.531,440.808,88.62,441.019Z" fill="#fff"/>
                    </g>
                  </g>
                </g>
              </g>
            </g>
          </g>
        </g>
      </g>
    </g>
    <g id="Grupo_896402" data-name="Grupo 896402">
      <path id="Trazado_624416" data-name="Trazado 624416" d="M474.505,199.765,458.16,164.016a12.231,12.231,0,0,0-15.174-6.452l-4.308,1.907-31.2,14.264-2.664-6.047A17.153,17.153,0,0,1,436,153.393l4.3-1.929a21.863,21.863,0,0,0-39.781,18.152l2.736,6.213a12.225,12.225,0,0,0-4.46,15.33l16.344,35.749a12.234,12.234,0,0,0,16.214,6.039l37.113-16.968A12.236,12.236,0,0,0,474.505,199.765Zm-38.382,6.791-1.69-7.7a6.5,6.5,0,1,1,6.363-3.044c1.929,2.4,5.034,6.309,5.034,6.309Z" fill="#f5f5f5"/>
    </g>
    <g id="Grupo_896415" data-name="Grupo 896415">
      <g id="Grupo_896410" data-name="Grupo 896410">
        <g id="Grupo_896404" data-name="Grupo 896404">
          <g id="Grupo_896403" data-name="Grupo 896403">
            <path id="Trazado_624417" data-name="Trazado 624417" d="M477.467,352.107A17.531,17.531,0,1,1,457.6,337.32,17.512,17.512,0,0,1,477.467,352.107Z" fill="#f5f5f5"/>
          </g>
        </g>
        <g id="Grupo_896406" data-name="Grupo 896406">
          <g id="Grupo_896405" data-name="Grupo 896405">
            <path id="Trazado_624418" data-name="Trazado 624418" d="M473.339,352.708A13.36,13.36,0,1,1,458.2,341.439,13.344,13.344,0,0,1,473.339,352.708Z" fill="#ebebeb"/>
          </g>
        </g>
        <g id="Grupo_896409" data-name="Grupo 896409">
          <g id="Grupo_896408" data-name="Grupo 896408">
            <g id="Grupo_896407" data-name="Grupo 896407">
              <path id="Trazado_624419" data-name="Trazado 624419" d="M473.276,352.294a7.887,7.887,0,0,1-.581-1.539,14.182,14.182,0,0,0-2.114-3.831,13.665,13.665,0,0,0-2.1-2.148,13.4,13.4,0,0,0-2.92-1.8,13.12,13.12,0,0,0-3.631-1.045,13.065,13.065,0,0,0-2-.117,13.088,13.088,0,0,0-4.048.718,13.078,13.078,0,0,0-1.836.8,13.025,13.025,0,0,0-3.05,2.232,13.323,13.323,0,0,0-2.119,2.7,13.722,13.722,0,0,0-1.232,2.74,14.176,14.176,0,0,0-.665,4.323,7.7,7.7,0,0,1-.015,1.644,3.937,3.937,0,0,1-.383-1.623,12.359,12.359,0,0,1,.368-4.547,13.4,13.4,0,0,1,3.377-5.9,12.9,12.9,0,0,1,1.495-1.32,13.1,13.1,0,0,1,1.75-1.13,13.523,13.523,0,0,1,1.976-.875,13.645,13.645,0,0,1,4.366-.775,13.58,13.58,0,0,1,2.156.142,13.573,13.573,0,0,1,3.89,1.183,13.389,13.389,0,0,1,5.2,4.377,12.36,12.36,0,0,1,1.912,4.142A3.932,3.932,0,0,1,473.276,352.294Z" fill="#e0e0e0"/>
            </g>
          </g>
        </g>
      </g>
      <g id="Grupo_896414" data-name="Grupo 896414">
        <g id="Grupo_896413" data-name="Grupo 896413">
          <g id="Grupo_896412" data-name="Grupo 896412">
            <g id="Grupo_896411" data-name="Grupo 896411">
              <path id="Trazado_624420" data-name="Trazado 624420" d="M462.76,362.3l.368,2.3-2.052.328-.358-2.236a9.844,9.844,0,0,1-5.371-.823l.727-2.684a8.4,8.4,0,0,0,4.214.819l-.549-3.426c-2.366-.189-5.031-.541-5.5-3.475-.348-2.175.933-4.294,4.115-5.182l-.365-2.278,2.052-.329.358,2.237a9.4,9.4,0,0,1,4.365.584l-.621,2.689a8.5,8.5,0,0,0-3.311-.565l.559,3.488c2.362.168,4.987.527,5.45,3.42C467.182,359.3,465.918,361.392,462.76,362.3Zm-3.5-8.74-.468-2.913c-1.047.42-1.383,1.085-1.274,1.762C457.63,353.123,458.308,353.415,459.257,353.557Zm4.32,4.38c-.115-.718-.772-1.013-1.7-1.18l.453,2.832C463.316,359.2,463.682,358.594,463.577,357.937Z" fill="#e0e0e0"/>
            </g>
          </g>
        </g>
      </g>
    </g>
    <g id="Grupo_896428" data-name="Grupo 896428">
      <g id="Grupo_896423" data-name="Grupo 896423">
        <g id="Grupo_896417" data-name="Grupo 896417">
          <g id="Grupo_896416" data-name="Grupo 896416">
            <path id="Trazado_624421" data-name="Trazado 624421" d="M169.5,141.252a28.187,28.187,0,1,1-7.023-39.192A28.158,28.158,0,0,1,169.5,141.252Z" fill="#f5f5f5"/>
          </g>
        </g>
        <g id="Grupo_896419" data-name="Grupo 896419">
          <g id="Grupo_896418" data-name="Grupo 896418">
            <path id="Trazado_624422" data-name="Trazado 624422" d="M164,137.414a21.48,21.48,0,1,1-5.351-29.867A21.455,21.455,0,0,1,164,137.414Z" fill="#ebebeb"/>
          </g>
        </g>
        <g id="Grupo_896422" data-name="Grupo 896422">
          <g id="Grupo_896421" data-name="Grupo 896421">
            <g id="Grupo_896420" data-name="Grupo 896420">
              <path id="Trazado_624423" data-name="Trazado 624423" d="M164.378,136.859a12.73,12.73,0,0,1,1.013-2.443,22.8,22.8,0,0,0,1.736-6.817,22,22,0,0,0-.1-4.828,21.518,21.518,0,0,0-1.437-5.328,21.095,21.095,0,0,0-3.108-5.221,20.866,20.866,0,0,0-2.215-2.335,21.012,21.012,0,0,0-5.536-3.612,20.88,20.88,0,0,0-3.03-1.085,21.043,21.043,0,0,0-6.032-.739,21.487,21.487,0,0,0-5.455.834,22.038,22.038,0,0,0-4.458,1.857,22.8,22.8,0,0,0-5.535,4.337c-1.15,1.226-1.718,1.985-1.827,1.912a6.3,6.3,0,0,1,1.337-2.324,19.847,19.847,0,0,1,5.434-4.927,21.516,21.516,0,0,1,10.45-3.2,21.892,21.892,0,0,1,6.5.7,21.882,21.882,0,0,1,3.279,1.148,22,22,0,0,1,5.972,3.9,22,22,0,0,1,2.372,2.538A21.942,21.942,0,0,1,167,116.882a21.541,21.541,0,0,1,1.285,10.855,19.905,19.905,0,0,1-2.316,6.961C165.108,136.2,164.458,136.913,164.378,136.859Z" fill="#e0e0e0"/>
            </g>
          </g>
        </g>
      </g>
      <g id="Grupo_896427" data-name="Grupo 896427">
        <g id="Grupo_896426" data-name="Grupo 896426">
          <g id="Grupo_896425" data-name="Grupo 896425">
            <g id="Grupo_896424" data-name="Grupo 896424">
              <path id="Trazado_624424" data-name="Trazado 624424" d="M141.043,137.019l-2.1,3.1-2.767-1.872,2.041-3.016a15.826,15.826,0,0,1-5.392-6.874l3.805-2.347a13.5,13.5,0,0,0,4.039,5.6l3.126-4.622c-2.566-2.824-5.3-6.169-2.627-10.126,1.985-2.933,5.818-4.009,10.526-1.549l2.079-3.072,2.767,1.872-2.041,3.016a15.119,15.119,0,0,1,4.475,5.487l-3.686,2.469a13.7,13.7,0,0,0-3.26-4.3l-3.183,4.7c2.585,2.8,5.268,6.1,2.629,10.006C149.53,138.365,145.743,139.432,141.043,137.019Zm5.508-14.1,2.657-3.929c-1.69-.66-2.814-.25-3.432.663C145.121,120.619,145.6,121.707,146.551,122.917Zm.248,9.889c.655-.969.208-2.037-.7-3.258l-2.583,3.819C145.1,134,146.2,133.691,146.8,132.806Z" fill="#e0e0e0"/>
            </g>
          </g>
        </g>
      </g>
    </g>
    <g id="Grupo_896430" data-name="Grupo 896430">
      <g id="Grupo_896429" data-name="Grupo 896429">
        <path id="Trazado_624425" data-name="Trazado 624425" d="M482.412,483.7c0,.144-104.063.26-232.4.26-128.383,0-232.423-.116-232.423-.26s104.04-.261,232.423-.261C378.349,483.444,482.412,483.561,482.412,483.7Z" fill="#263238"/>
      </g>
    </g>
    <g id="Grupo_896488" data-name="Grupo 896488">
      <g id="Grupo_896487" data-name="Grupo 896487">
        <g id="Grupo_896466" data-name="Grupo 896466">
          <g id="Grupo_896453" data-name="Grupo 896453">
            <g id="Grupo_896452" data-name="Grupo 896452">
              <g id="Grupo_896451" data-name="Grupo 896451">
                <g id="Grupo_896450" data-name="Grupo 896450">
                  <g id="Grupo_896434" data-name="Grupo 896434">
                    <g id="Grupo_896433" data-name="Grupo 896433">
                      <g id="Grupo_896432" data-name="Grupo 896432">
                        <g id="Grupo_896431" data-name="Grupo 896431">
                          <path id="Trazado_624426" data-name="Trazado 624426" d="M83.384,272.395A25.725,25.725,0,1,1,51.62,254.659,25.725,25.725,0,0,1,83.384,272.395Z" fill="#ff725e"/>
                        </g>
                      </g>
                    </g>
                  </g>
                  <g id="Grupo_896437" data-name="Grupo 896437" opacity="0.1">
                    <g id="Grupo_896436" data-name="Grupo 896436">
                      <g id="Grupo_896435" data-name="Grupo 896435">
                        <path id="Trazado_624427" data-name="Trazado 624427" d="M51.62,254.659a25.723,25.723,0,0,0-17.736,31.764s17.612-4.15,19.811-12.34S51.62,254.659,51.62,254.659Z" fill="#fff"/>
                      </g>
                    </g>
                  </g>
                  <g id="Grupo_896440" data-name="Grupo 896440">
                    <g id="Grupo_896439" data-name="Grupo 896439">
                      <g id="Grupo_896438" data-name="Grupo 896438">
                        <path id="Trazado_624428" data-name="Trazado 624428" d="M76.946,273.8A19.556,19.556,0,1,1,52.8,260.313,19.556,19.556,0,0,1,76.946,273.8Z" fill="#ff725e"/>
                      </g>
                    </g>
                  </g>
                  <g id="Grupo_896443" data-name="Grupo 896443" opacity="0.2">
                    <g id="Grupo_896442" data-name="Grupo 896442">
                      <g id="Grupo_896441" data-name="Grupo 896441">
                        <path id="Trazado_624429" data-name="Trazado 624429" d="M76.946,273.8A19.556,19.556,0,1,1,52.8,260.313,19.556,19.556,0,0,1,76.946,273.8Z"/>
                      </g>
                    </g>
                  </g>
                  <g id="Grupo_896446" data-name="Grupo 896446">
                    <g id="Grupo_896445" data-name="Grupo 896445">
                      <g id="Grupo_896444" data-name="Grupo 896444">
                        <path id="Trazado_624430" data-name="Trazado 624430" d="M77.7,274.43a19.294,19.294,0,1,1-23.823-13.3A19.292,19.292,0,0,1,77.7,274.43Z" fill="#ff725e"/>
                      </g>
                    </g>
                  </g>
                  <g id="Grupo_896449" data-name="Grupo 896449" opacity="0.2">
                    <g id="Grupo_896448" data-name="Grupo 896448">
                      <g id="Grupo_896447" data-name="Grupo 896447">
                        <path id="Trazado_624431" data-name="Trazado 624431" d="M77.7,274.43a19.294,19.294,0,1,1-23.823-13.3A19.292,19.292,0,0,1,77.7,274.43Z" fill="#fff"/>
                      </g>
                    </g>
                  </g>
                </g>
              </g>
            </g>
          </g>
          <g id="Grupo_896465" data-name="Grupo 896465">
            <g id="Grupo_896457" data-name="Grupo 896457">
              <g id="Grupo_896456" data-name="Grupo 896456">
                <g id="Grupo_896455" data-name="Grupo 896455">
                  <g id="Grupo_896454" data-name="Grupo 896454">
                    <path id="Trazado_624432" data-name="Trazado 624432" d="M59.42,277.871l-1.346-4.749.023-.006a10.089,10.089,0,0,1,2.711-.058,8.314,8.314,0,0,1,1.394.411l.021-.165.248-1.917.057-.441-1.1-.649-.355.3a9.252,9.252,0,0,0-3.722-.018l-.74-2.612-1-.424.186.655-1.117.316.754,2.659c-3.571,1.393-4.718,3.981-4.038,6.381.927,3.27,3.967,3.324,6.758,3.219l1.334,4.706a9.39,9.39,0,0,1-5.213-.455l-.385,2.677a10.71,10.71,0,0,0,6.318.319l.559,1.972-.914.276,1.1.364,1.93-.547-.747-2.635c3.587-1.424,4.765-3.994,4.085-6.394C65.292,277.783,62.212,277.766,59.42,277.871Zm-2.069.053c-1.479-.013-2.637-.244-2.957-1.374-.293-1.035.173-2.082,1.77-2.814Zm.722-4.806Zm3.334,11.765-1.18-4.165c1.525,0,2.714.248,3.04,1.4C63.554,283.131,63.051,284.137,61.407,284.883Z" fill="#ff725e"/>
                  </g>
                </g>
              </g>
            </g>
            <g id="Grupo_896461" data-name="Grupo 896461" opacity="0.3">
              <g id="Grupo_896460" data-name="Grupo 896460">
                <g id="Grupo_896459" data-name="Grupo 896459">
                  <g id="Grupo_896458" data-name="Grupo 896458">
                    <path id="Trazado_624433" data-name="Trazado 624433" d="M59.42,277.871l-1.346-4.749.023-.006a10.089,10.089,0,0,1,2.711-.058,8.314,8.314,0,0,1,1.394.411l.021-.165.248-1.917.057-.441-1.1-.649-.355.3a9.252,9.252,0,0,0-3.722-.018l-.74-2.612-1-.424.186.655-1.117.316.754,2.659c-3.571,1.393-4.718,3.981-4.038,6.381.927,3.27,3.967,3.324,6.758,3.219l1.334,4.706a9.39,9.39,0,0,1-5.213-.455l-.385,2.677a10.71,10.71,0,0,0,6.318.319l.559,1.972-.914.276,1.1.364,1.93-.547-.747-2.635c3.587-1.424,4.765-3.994,4.085-6.394C65.292,277.783,62.212,277.766,59.42,277.871Zm-2.069.053c-1.479-.013-2.637-.244-2.957-1.374-.293-1.035.173-2.082,1.77-2.814Zm.722-4.806Zm3.334,11.765-1.18-4.165c1.525,0,2.714.248,3.04,1.4C63.554,283.131,63.051,284.137,61.407,284.883Z"/>
                  </g>
                </g>
              </g>
            </g>
            <g id="Grupo_896464" data-name="Grupo 896464">
              <g id="Grupo_896463" data-name="Grupo 896463">
                <g id="Grupo_896462" data-name="Grupo 896462">
                  <path id="Trazado_624434" data-name="Trazado 624434" d="M61.153,287.029l.747,2.636-1.929.547L59.23,287.6a10.712,10.712,0,0,1-6.319-.32L53.3,284.6a9.391,9.391,0,0,0,5.213.455l-1.334-4.707c-2.792.1-5.832.051-6.759-3.22-.681-2.4.467-4.988,4.038-6.381l-.753-2.659,1.929-.547.74,2.612a10.488,10.488,0,0,1,5.185.081l-.292,2.651a10.107,10.107,0,0,0-4.172-.191l1.347,4.754c2.792-.1,5.873-.088,6.8,3.183C65.92,283.034,64.741,285.605,61.153,287.029ZM56.369,277.5l-1.187-4.189c-1.6.732-2.063,1.779-1.77,2.815C53.732,277.259,54.891,277.49,56.369,277.5Zm5.918,4.2c-.327-1.154-1.516-1.4-3.041-1.4l1.181,4.165C62.071,283.718,62.574,282.711,62.287,281.7Z" fill="#ff725e"/>
                </g>
              </g>
            </g>
          </g>
        </g>
        <g id="Grupo_896470" data-name="Grupo 896470">
          <g id="Grupo_896469" data-name="Grupo 896469">
            <g id="Grupo_896468" data-name="Grupo 896468">
              <g id="Grupo_896467" data-name="Grupo 896467">
                <path id="Trazado_624435" data-name="Trazado 624435" d="M40.847,296.994a1.073,1.073,0,0,1-.17-.159c-.118-.125-.271-.284-.459-.481s-.44-.469-.695-.791-.569-.671-.863-1.1l-.477-.657c-.164-.23-.314-.483-.48-.738-.341-.505-.648-1.079-.984-1.675a25.562,25.562,0,0,1-2.752-8.427c-.082-.68-.172-1.324-.195-1.933-.016-.3-.044-.6-.048-.879s0-.553,0-.812c-.014-.518.03-.985.05-1.395a10.5,10.5,0,0,1,.094-1.049c.036-.27.065-.488.087-.659a1.1,1.1,0,0,1,.043-.228,1.008,1.008,0,0,1-.005.233c-.013.171-.03.39-.05.661-.028.287-.057.638-.062,1.048s-.044.873-.021,1.388c.005.258.011.527.016.807s.039.572.059.874c.03.6.125,1.244.211,1.918a26.335,26.335,0,0,0,2.734,8.37c.329.6.629,1.168.962,1.673.162.255.308.509.468.74l.463.661c.286.429.587.784.837,1.108s.476.594.668.809c.176.207.32.374.432.505A1.046,1.046,0,0,1,40.847,296.994Z" fill="#fff"/>
              </g>
            </g>
          </g>
        </g>
        <g id="Grupo_896474" data-name="Grupo 896474">
          <g id="Grupo_896473" data-name="Grupo 896473">
            <g id="Grupo_896472" data-name="Grupo 896472">
              <g id="Grupo_896471" data-name="Grupo 896471">
                <path id="Trazado_624436" data-name="Trazado 624436" d="M52.583,278.644a1.627,1.627,0,0,1-.7-.388,3.026,3.026,0,0,1-.871-3.555,1.629,1.629,0,0,1,.441-.668c.027.019-.155.265-.315.718a3.134,3.134,0,0,0,.834,3.4C52.323,278.481,52.6,278.614,52.583,278.644Z" fill="#fff"/>
              </g>
            </g>
          </g>
        </g>
        <g id="Grupo_896478" data-name="Grupo 896478">
          <g id="Grupo_896477" data-name="Grupo 896477">
            <g id="Grupo_896476" data-name="Grupo 896476">
              <g id="Grupo_896475" data-name="Grupo 896475">
                <path id="Trazado_624437" data-name="Trazado 624437" d="M54.743,270.248c-.051.014-.191-.321-.312-.748a1.769,1.769,0,0,1-.127-.8c.051-.014.191.32.312.748A1.769,1.769,0,0,1,54.743,270.248Z" fill="#fff"/>
              </g>
            </g>
          </g>
        </g>
        <g id="Grupo_896482" data-name="Grupo 896482">
          <g id="Grupo_896481" data-name="Grupo 896481">
            <g id="Grupo_896480" data-name="Grupo 896480">
              <g id="Grupo_896479" data-name="Grupo 896479">
                <path id="Trazado_624438" data-name="Trazado 624438" d="M54.362,259.347a3.935,3.935,0,0,1-.612.147c-.2.039-.439.09-.716.165s-.6.142-.939.254-.723.217-1.119.368c-.4.133-.817.314-1.257.5a20.154,20.154,0,0,0-5.213,3.3c-.352.32-.693.618-.986.924s-.57.587-.811.855-.447.521-.631.74-.336.415-.455.577a4.06,4.06,0,0,1-.4.49,3.844,3.844,0,0,1,.334-.534c.111-.169.252-.374.432-.6s.369-.494.613-.763.5-.576.8-.878.63-.618.982-.945a19.169,19.169,0,0,1,5.26-3.33c.446-.178.866-.355,1.274-.483.4-.146.785-.253,1.135-.348s.671-.165.952-.228.526-.106.727-.134A3.974,3.974,0,0,1,54.362,259.347Z" fill="#fff"/>
              </g>
            </g>
          </g>
        </g>
        <g id="Grupo_896486" data-name="Grupo 896486">
          <g id="Grupo_896485" data-name="Grupo 896485">
            <g id="Grupo_896484" data-name="Grupo 896484">
              <g id="Grupo_896483" data-name="Grupo 896483">
                <path id="Trazado_624439" data-name="Trazado 624439" d="M68.3,302.025a2.216,2.216,0,0,1-.407.245c-.267.149-.665.342-1.167.559a18.588,18.588,0,0,1-8.356,1.464c-.546-.033-.987-.079-1.289-.129a2.188,2.188,0,0,1-.466-.092,2.283,2.283,0,0,1,.475.018c.3.027.742.052,1.285.068a20.827,20.827,0,0,0,8.3-1.454c.505-.2.91-.373,1.186-.5A2.237,2.237,0,0,1,68.3,302.025Z" fill="#fff"/>
              </g>
            </g>
          </g>
        </g>
      </g>
    </g>
    <g id="Grupo_896492" data-name="Grupo 896492">
      <g id="Grupo_896491" data-name="Grupo 896491">
        <g id="Grupo_896490" data-name="Grupo 896490">
          <g id="Grupo_896489" data-name="Grupo 896489">
            <path id="Trazado_624440" data-name="Trazado 624440" d="M400.432,128.1A17.8,17.8,0,1,0,367.29,137.1h-.01l.051.067c.683,1.15,1.538,1.973,2.4,3.181l10.334,13.69a3.214,3.214,0,0,0,5.131,0l10.163-13.464a38.231,38.231,0,0,0,2.585-3.426l.037-.048h-.007A17.7,17.7,0,0,0,400.432,128.1Zm-17.8,7.75a7.833,7.833,0,1,1,7.833-7.833A7.834,7.834,0,0,1,382.633,135.854Z" fill="#ff725e"/>
          </g>
        </g>
      </g>
    </g>
    <g id="Grupo_896498" data-name="Grupo 896498">
      <g id="Grupo_896497" data-name="Grupo 896497">
        <g id="Grupo_896496" data-name="Grupo 896496">
          <g id="Grupo_896495" data-name="Grupo 896495">
            <g id="Grupo_896494" data-name="Grupo 896494">
              <g id="Grupo_896493" data-name="Grupo 896493">
                <path id="Trazado_624441" data-name="Trazado 624441" d="M468.142,252.167a8.348,8.348,0,0,0,6.8-6.18,7.847,7.847,0,1,0-15.113-4.108,8.337,8.337,0,0,0,2.811,8.82c-12.111-1.353-14.96,11.442-14.96,11.442l27.5,7.474S479.218,256.99,468.142,252.167Z" fill="#ff725e"/>
              </g>
            </g>
          </g>
        </g>
      </g>
    </g>
    <g id="Grupo_896539" data-name="Grupo 896539">
      <g id="Grupo_896519" data-name="Grupo 896519">
        <g id="Grupo_896499" data-name="Grupo 896499">
          <path id="Trazado_624442" data-name="Trazado 624442" d="M212.355,172.663c-3.5-10.636-6.967-21.353-8.589-32.434s-1.332-22.64,2.527-33.154c.585-1.593,5.584-12.289,7.275-12.129,1.208.114-1.859,10.086-1.243,11.132,5.867,9.983,7.5,22.012,6.616,33.559a151.649,151.649,0,0,1-6.586,33.026" fill="#263238"/>
        </g>
        <g id="Grupo_896500" data-name="Grupo 896500">
          <path id="Trazado_624443" data-name="Trazado 624443" d="M275.423,234.477c.051-7.91.116-14.154.177-14.155,0,0,27.129-2.851,28.8-29.752.8-12.99.285-39.873-.468-64.2a50.22,50.22,0,0,0-47.711-48.609l-2.6-.129c-28.086.248-43.567,24.24-42.542,52.308l.46,98.292,19.153,22.641c15.267,18.045,44.743,7.241,44.731-16.4Z" fill="#ffbf9d"/>
        </g>
        <g id="Grupo_896501" data-name="Grupo 896501">
          <path id="Trazado_624444" data-name="Trazado 624444" d="M275.6,220.323s-17.015.154-34.533-12.1c0,0,7.575,20,34.554,18.907Z" fill="#ff9a6c"/>
        </g>
        <g id="Grupo_896502" data-name="Grupo 896502">
          <path id="Trazado_624445" data-name="Trazado 624445" d="M292.721,148.8a3.849,3.849,0,0,1-3.9,3.695,3.68,3.68,0,0,1-3.79-3.662,3.851,3.851,0,0,1,3.894-3.7A3.685,3.685,0,0,1,292.721,148.8Z" fill="#263238"/>
        </g>
        <g id="Grupo_896503" data-name="Grupo 896503">
          <path id="Trazado_624446" data-name="Trazado 624446" d="M297.62,137.235c-.5.477-3.306-1.822-7.443-2.016-4.13-.253-7.271,1.724-7.7,1.2-.209-.234.321-1.116,1.691-2.013a10.559,10.559,0,0,1,6.19-1.577,10.141,10.141,0,0,1,5.894,2.231C297.48,136.094,297.867,137.021,297.62,137.235Z" fill="#263238"/>
        </g>
        <g id="Grupo_896504" data-name="Grupo 896504">
          <path id="Trazado_624447" data-name="Trazado 624447" d="M255.908,149.986a3.848,3.848,0,0,1-3.9,3.694,3.679,3.679,0,0,1-3.79-3.662,3.851,3.851,0,0,1,3.9-3.7A3.683,3.683,0,0,1,255.908,149.986Z" fill="#263238"/>
        </g>
        <g id="Grupo_896505" data-name="Grupo 896505">
          <path id="Trazado_624448" data-name="Trazado 624448" d="M259.04,136.787c-.5.477-3.312-1.821-7.446-2.016-4.129-.253-7.27,1.725-7.695,1.2-.208-.236.317-1.116,1.692-2.012a10.56,10.56,0,0,1,6.19-1.579,10.157,10.157,0,0,1,5.894,2.231C258.895,135.646,259.284,136.574,259.04,136.787Z" fill="#263238"/>
        </g>
        <g id="Grupo_896506" data-name="Grupo 896506">
          <path id="Trazado_624449" data-name="Trazado 624449" d="M270.283,169.42c-.008-.236,2.585-.553,6.778-.879,1.062-.056,2.072-.217,2.285-.929.287-.751-.1-1.911-.549-3.166q-1.3-3.907-2.725-8.2c-3.771-11.666-6.444-21.237-5.973-21.386s3.909,9.189,7.68,20.855q1.356,4.314,2.591,8.24c.339,1.22.96,2.616.342,4.173a2.651,2.651,0,0,1-1.813,1.458,7.154,7.154,0,0,1-1.806.16C272.889,169.766,270.287,169.656,270.283,169.42Z" fill="#263238"/>
        </g>
        <g id="Grupo_896507" data-name="Grupo 896507">
          <path id="Trazado_624450" data-name="Trazado 624450" d="M262.978,132.64c-.873.82-4.322-1.524-8.922-3.195-4.566-1.764-8.7-2.265-8.823-3.456-.039-.562,1.05-1.2,2.955-1.455a16.466,16.466,0,0,1,13.519,5.067C262.974,131.047,263.376,132.242,262.978,132.64Z" fill="#263238"/>
        </g>
        <g id="Grupo_896508" data-name="Grupo 896508">
          <path id="Trazado_624451" data-name="Trazado 624451" d="M298.18,120.234c-.675,1.041-3.951.5-7.738.97-3.8.35-6.9,1.577-7.765.7-.387-.429-.011-1.431,1.268-2.5a11.7,11.7,0,0,1,6.073-2.382,11.568,11.568,0,0,1,6.419,1.035C297.9,118.831,298.472,119.731,298.18,120.234Z" fill="#263238"/>
        </g>
        <g id="Grupo_896509" data-name="Grupo 896509">
          <path id="Trazado_624452" data-name="Trazado 624452" d="M212.29,149.981c-.449-.222-18.224-6.388-18.548,12.044s18.247,14.955,18.288,14.427S212.29,149.981,212.29,149.981Z" fill="#ffbf9d"/>
        </g>
        <g id="Grupo_896510" data-name="Grupo 896510">
          <path id="Trazado_624453" data-name="Trazado 624453" d="M206.523,169.37c-.08-.061-.326.219-.872.458a3.208,3.208,0,0,1-2.4.007c-1.935-.748-3.52-3.869-3.551-7.192a10.631,10.631,0,0,1,.979-4.581,3.713,3.713,0,0,1,2.459-2.423,1.637,1.637,0,0,1,1.88.914c.238.519.114.885.212.919.05.047.4-.3.265-1.066a2.049,2.049,0,0,0-.705-1.168,2.425,2.425,0,0,0-1.767-.5c-1.423.073-2.726,1.358-3.4,2.8a10.889,10.889,0,0,0-1.2,5.118c.053,3.716,1.893,7.226,4.544,8.043a3.443,3.443,0,0,0,2.945-.437C206.482,169.815,206.586,169.4,206.523,169.37Z" fill="#ff9a6c"/>
        </g>
        <g id="Grupo_896511" data-name="Grupo 896511">
          <path id="Trazado_624454" data-name="Trazado 624454" d="M292.269,95.706c3-1.619-5.87-11.359-13.173-14.75-11.036-5.124-27.929-8.368-38.17-5.561-12.331,3.38-22.6,9.41-28.878,20.551s-8.709,24.165-8.462,36.948c.075,3.9.443,7.969,2.5,11.285,2.539,4.1,7.456,6.708,7.19,12.328a7.719,7.719,0,0,0,1.866,5.644c3.341,3.618,7.5.283,9.423-3.08,4.115-7.185,4.643-15.8,5.072-24.069.3-5.877.6-11.88-1.013-17.542-.875-3.08-2.3-6-3-9.12s-.577-6.662,1.387-9.191a11.484,11.484,0,0,1,1.51-1.5,19.227,19.227,0,0,1,19.1-3.463c10.348,3.763,28.026,9.4,32.687,5.921,6.706-5.009,8.327-8.3,8.327-8.3Z" fill="#263238"/>
        </g>
        <g id="Grupo_896512" data-name="Grupo 896512">
          <path id="Trazado_624455" data-name="Trazado 624455" d="M271.493,178.119l-.5-.227a93.519,93.519,0,0,0-10.906-4.127,3.578,3.578,0,0,0-1.761-.227,3.092,3.092,0,0,0-2,2.268A8.884,8.884,0,0,0,258.5,184.8a8.166,8.166,0,0,0,9.037,1.458A7.559,7.559,0,0,0,271.493,178.119Z" fill="#ff9a6c"/>
        </g>
        <g id="Grupo_896514" data-name="Grupo 896514">
          <g id="Grupo_896513" data-name="Grupo 896513">
            <path id="Trazado_624456" data-name="Trazado 624456" d="M271.493,178.119a1.615,1.615,0,0,1,.132.45,6.33,6.33,0,0,1,.117,1.343,7.768,7.768,0,0,1-1.739,4.6,7.374,7.374,0,0,1-2.735,2.1,7.976,7.976,0,0,1-3.912.617,8.677,8.677,0,0,1-4.116-1.491,8.278,8.278,0,0,1-2.9-3.694,9.358,9.358,0,0,1-.616-4.654,8.086,8.086,0,0,1,.571-2.186,3.384,3.384,0,0,1,1.435-1.7,2.752,2.752,0,0,1,2.122-.047l1.8.582c1.158.389,2.228.775,3.2,1.144,1.94.739,3.481,1.408,4.534,1.894.527.243.932.439,1.2.579a1.575,1.575,0,0,1,.4.238,13.427,13.427,0,0,1-1.687-.631c-1.075-.427-2.633-1.042-4.582-1.734-.974-.346-2.046-.71-3.2-1.08l-1.8-.552a2.3,2.3,0,0,0-1.774.032,2.925,2.925,0,0,0-1.2,1.475,7.68,7.68,0,0,0-.521,2.049,8.924,8.924,0,0,0,.592,4.395,7.811,7.811,0,0,0,2.71,3.473,8.245,8.245,0,0,0,3.867,1.431,7.606,7.606,0,0,0,3.7-.535,7.081,7.081,0,0,0,2.623-1.941,7.832,7.832,0,0,0,1.82-4.372C271.609,178.759,271.438,178.128,271.493,178.119Z" fill="#263238"/>
          </g>
        </g>
        <g id="Grupo_896516" data-name="Grupo 896516">
          <g id="Grupo_896515" data-name="Grupo 896515">
            <path id="Trazado_624457" data-name="Trazado 624457" d="M252.038,160.828c-.077.042-.467-.7-1.344-1.682a10.4,10.4,0,0,0-9.2-3.458c-1.309.163-2.089.462-2.119.38a4.85,4.85,0,0,1,2.062-.744,9.767,9.767,0,0,1,9.54,3.586A4.875,4.875,0,0,1,252.038,160.828Z" fill="#ff9a6c"/>
          </g>
        </g>
        <g id="Grupo_896518" data-name="Grupo 896518">
          <g id="Grupo_896517" data-name="Grupo 896517">
            <path id="Trazado_624458" data-name="Trazado 624458" d="M293.137,159.283a13.308,13.308,0,0,0-10.647-2.744,3.831,3.831,0,0,1,1.632-.5,10.394,10.394,0,0,1,7.828,2.018C292.785,158.713,293.18,159.243,293.137,159.283Z" fill="#ff9a6c"/>
          </g>
        </g>
      </g>
      <g id="Grupo_896538" data-name="Grupo 896538">
        <g id="Grupo_896520" data-name="Grupo 896520">
          <path id="Trazado_624459" data-name="Trazado 624459" d="M304.8,121.92c-.815.992-10.066-24.359-39.393-22.047-21.367,1.686-37.444,17.9-44.877,27.464-5.72,7.358-15.173,21.4-15.173,21.4s-12.921-7.651-5.818-26.852c2.408-6.511,16.179-28.833,34.232-38.636,24.144-13.11,43.127-11.924,56.293-3.2C302.144,88.049,313.342,111.525,304.8,121.92Z" fill="#455a64"/>
        </g>
        <g id="Grupo_896521" data-name="Grupo 896521">
          <path id="Trazado_624460" data-name="Trazado 624460" d="M235.538,65.162c5-.671,25.464-.868,37.768,10.661l-53.078,30.783-13.689,15.609s-11.8-25.624,9.571-47.325C216.11,74.89,222.548,66.9,235.538,65.162Z" fill="#455a64"/>
        </g>
        <g id="Grupo_896523" data-name="Grupo 896523">
          <g id="Grupo_896522" data-name="Grupo 896522">
            <path id="Trazado_624461" data-name="Trazado 624461" d="M277.3,74.359a1.006,1.006,0,0,1-.261,0l-.762-.046-2.92-.225c-1.266-.115-2.823-.125-4.625-.214-.9-.042-1.867,0-2.89,0l-1.577.011c-.539.017-1.092.061-1.659.091a59.135,59.135,0,0,0-15.614,2.857A63.746,63.746,0,0,0,229.926,86.1a96.659,96.659,0,0,0-14.678,12.83,89.135,89.135,0,0,0-9.8,12.55,74.055,74.055,0,0,0-5.167,9.423c-.557,1.143-.9,2.068-1.179,2.679-.125.283-.226.513-.308.7a1.009,1.009,0,0,1-.121.232.942.942,0,0,1,.072-.251l.26-.716c.243-.625.56-1.564,1.091-2.723a68.269,68.269,0,0,1,5.041-9.539A86.818,86.818,0,0,1,214.9,98.6a95.192,95.192,0,0,1,14.725-12.925,63.382,63.382,0,0,1,17.221-9.3,58.254,58.254,0,0,1,15.749-2.769c.57-.025,1.126-.063,1.668-.074l1.584.007c1.027.017,2-.014,2.9.042,1.807.117,3.367.157,4.633.3l2.915.323.757.1A.963.963,0,0,1,277.3,74.359Z" fill="#263238"/>
          </g>
        </g>
        <g id="Grupo_896525" data-name="Grupo 896525">
          <g id="Grupo_896524" data-name="Grupo 896524">
            <path id="Trazado_624462" data-name="Trazado 624462" d="M213.8,137.745a3.986,3.986,0,0,1-.932-.469,8.327,8.327,0,0,1-1.033-.657,14.037,14.037,0,0,1-1.294-.982,20.791,20.791,0,0,1-2.964-3.019,22.194,22.194,0,0,1-4.391-9.316,20.776,20.776,0,0,1-.442-4.208,14.13,14.13,0,0,1,.067-1.623,8.477,8.477,0,0,1,.15-1.215,4.025,4.025,0,0,1,.232-1.017c.1.014-.166,1.478-.08,3.847a22.839,22.839,0,0,0,.542,4.114,23.286,23.286,0,0,0,4.3,9.122,22.849,22.849,0,0,0,2.827,3.036C212.555,136.932,213.857,137.655,213.8,137.745Z" fill="#263238"/>
          </g>
        </g>
        <g id="Grupo_896527" data-name="Grupo 896527">
          <g id="Grupo_896526" data-name="Grupo 896526">
            <path id="Trazado_624463" data-name="Trazado 624463" d="M222.3,124.011a3.172,3.172,0,0,1-.772-.525,19.947,19.947,0,0,1-1.906-1.683,28.524,28.524,0,0,1-7.87-14.6,20.105,20.105,0,0,1-.359-2.517,3.21,3.21,0,0,1-.014-.933c.091-.01.235,1.306.732,3.371a32.046,32.046,0,0,0,7.775,14.421C221.334,123.1,222.354,123.941,222.3,124.011Z" fill="#263238"/>
          </g>
        </g>
        <g id="Grupo_896529" data-name="Grupo 896529">
          <g id="Grupo_896528" data-name="Grupo 896528">
            <path id="Trazado_624464" data-name="Trazado 624464" d="M235.311,112.048a29.832,29.832,0,0,1-1.8-3.052c-1.082-1.9-2.618-4.5-4.444-7.283s-3.6-5.23-4.91-6.979a29.987,29.987,0,0,1-2.08-2.87c.028-.023.269.216.683.669s.994,1.125,1.688,1.974a85.263,85.263,0,0,1,9.387,14.313c.5.975.89,1.773,1.138,2.335A3.394,3.394,0,0,1,235.311,112.048Z" fill="#263238"/>
          </g>
        </g>
        <g id="Grupo_896531" data-name="Grupo 896531">
          <g id="Grupo_896530" data-name="Grupo 896530">
            <path id="Trazado_624465" data-name="Trazado 624465" d="M276.578,74.167a6.9,6.9,0,0,1,1.114.8,13.684,13.684,0,0,1,1.228,1.042c.458.429,1,.894,1.534,1.485a33.337,33.337,0,0,1,3.508,4.314,34.8,34.8,0,0,1,5.32,12.473,33.235,33.235,0,0,1,.685,5.518c.06.79.017,1.507.01,2.135a13.522,13.522,0,0,1-.1,1.607,6.943,6.943,0,0,1-.191,1.359c-.109-.007.115-1.953-.089-5.081a36.455,36.455,0,0,0-.786-5.436,36.56,36.56,0,0,0-5.249-12.308,36.622,36.622,0,0,0-3.379-4.33C278.068,75.436,276.509,74.251,276.578,74.167Z" fill="#263238"/>
          </g>
        </g>
        <g id="Grupo_896533" data-name="Grupo 896533">
          <g id="Grupo_896532" data-name="Grupo 896532">
            <path id="Trazado_624466" data-name="Trazado 624466" d="M256.821,73.938a4.812,4.812,0,0,1,.9.749c.553.509,1.337,1.26,2.288,2.209s2.068,2.091,3.266,3.4a32.6,32.6,0,0,1,3.61,4.546,27.349,27.349,0,0,1,3.446,9.921c.23,1.325.376,2.4.471,3.146a5.078,5.078,0,0,1,.092,1.166,5,5,0,0,1-.292-1.132c-.171-.843-.382-1.882-.632-3.11a29.443,29.443,0,0,0-3.527-9.715,34.992,34.992,0,0,0-3.525-4.5c-1.172-1.324-2.261-2.49-3.174-3.471q-1.284-1.374-2.166-2.321A5.3,5.3,0,0,1,256.821,73.938Z" fill="#263238"/>
          </g>
        </g>
        <g id="Grupo_896535" data-name="Grupo 896535">
          <g id="Grupo_896534" data-name="Grupo 896534">
            <path id="Trazado_624467" data-name="Trazado 624467" d="M252.24,103.316c-.083.026-.56-1.436-1.507-3.724a57.081,57.081,0,0,0-10.22-16.3c-1.647-1.848-2.755-2.914-2.7-2.977a4.258,4.258,0,0,1,.849.674c.527.455,1.254,1.155,2.118,2.054a48.578,48.578,0,0,1,10.291,16.409c.434,1.169.747,2.128.927,2.8A4.361,4.361,0,0,1,252.24,103.316Z" fill="#263238"/>
          </g>
        </g>
        <g id="Grupo_896537" data-name="Grupo 896537" opacity="0.3">
          <g id="Grupo_896536" data-name="Grupo 896536">
            <path id="Trazado_624468" data-name="Trazado 624468" d="M203.9,112.866a51.391,51.391,0,0,1,57.728-39.927c-9.018.23-18.772,4.26-26.318,9.2C224.692,89.1,216.14,95.956,203.9,112.866"/>
          </g>
        </g>
      </g>
    </g>
    <g id="Grupo_896569" data-name="Grupo 896569">
      <g id="Grupo_896568" data-name="Grupo 896568">
        <g id="Grupo_896564" data-name="Grupo 896564">
          <g id="Grupo_896554" data-name="Grupo 896554">
            <g id="Grupo_896550" data-name="Grupo 896550">
              <g id="Grupo_896544" data-name="Grupo 896544">
                <g id="Grupo_896543" data-name="Grupo 896543">
                  <g id="Grupo_896542" data-name="Grupo 896542">
                    <g id="Grupo_896541" data-name="Grupo 896541">
                      <g id="Grupo_896540" data-name="Grupo 896540">
                        <path id="Trazado_624469" data-name="Trazado 624469" d="M418.808,189.084H85.266a10.411,10.411,0,0,0-10.411,10.411V435.084A10.412,10.412,0,0,0,85.266,445.5H213.279s8.143,25.18-17.1,38.209h119.7s-28.5-9.771-21.173-38.209h124.1a10.411,10.411,0,0,0,10.411-10.411V199.5A10.411,10.411,0,0,0,418.808,189.084Z" fill="#455a64"/>
                      </g>
                    </g>
                  </g>
                </g>
              </g>
              <g id="Grupo_896549" data-name="Grupo 896549">
                <g id="Grupo_896548" data-name="Grupo 896548">
                  <g id="Grupo_896547" data-name="Grupo 896547">
                    <g id="Grupo_896546" data-name="Grupo 896546">
                      <g id="Grupo_896545" data-name="Grupo 896545">
                        <path id="Trazado_624470" data-name="Trazado 624470" d="M256.491,420.719c4.537,6.484-2.564,13.586-9.05,9.05a2.333,2.333,0,0,1-.558-.559c-4.524-6.484,2.568-13.576,9.05-9.049A2.292,2.292,0,0,1,256.491,420.719Z" fill="#263238"/>
                      </g>
                    </g>
                  </g>
                </g>
              </g>
            </g>
            <g id="Grupo_896553" data-name="Grupo 896553">
              <g id="Grupo_896552" data-name="Grupo 896552">
                <g id="Grupo_896551" data-name="Grupo 896551">
                  <path id="Rectángulo_300829" data-name="Rectángulo 300829" d="M9.7,0H333.182a9.7,9.7,0,0,1,9.7,9.7V209a0,0,0,0,1,0,0H0a0,0,0,0,1,0,0V9.7A9.7,9.7,0,0,1,9.7,0Z" transform="translate(80.598 193.4)" fill="#fff"/>
                </g>
              </g>
            </g>
          </g>
          <g id="Grupo_896556" data-name="Grupo 896556">
            <g id="Grupo_896555" data-name="Grupo 896555">
              <path id="Rectángulo_300830" data-name="Rectángulo 300830" d="M9.154,0h326.21a7.516,7.516,0,0,1,7.516,7.516v9.85a0,0,0,0,1,0,0H0a0,0,0,0,1,0,0V9.154A9.154,9.154,0,0,1,9.154,0Z" transform="translate(80.598 193.4)" fill="#ebebeb"/>
            </g>
          </g>
          <g id="Grupo_896563" data-name="Grupo 896563">
            <g id="Grupo_896558" data-name="Grupo 896558">
              <g id="Grupo_896557" data-name="Grupo 896557">
                <circle id="Elipse_6246" data-name="Elipse 6246" cx="2.409" cy="2.409" r="2.409" transform="translate(89.108 200.039)" fill="#e0e0e0"/>
              </g>
            </g>
            <g id="Grupo_896560" data-name="Grupo 896560">
              <g id="Grupo_896559" data-name="Grupo 896559">
                <circle id="Elipse_6247" data-name="Elipse 6247" cx="2.409" cy="2.409" r="2.409" transform="translate(96.289 200.039)" fill="#e0e0e0"/>
              </g>
            </g>
            <g id="Grupo_896562" data-name="Grupo 896562">
              <g id="Grupo_896561" data-name="Grupo 896561">
                <circle id="Elipse_6248" data-name="Elipse 6248" cx="2.409" cy="2.409" r="2.409" transform="translate(103.117 200.039)" fill="#e0e0e0"/>
              </g>
            </g>
          </g>
        </g>
        <g id="Grupo_896567" data-name="Grupo 896567">
          <g id="Grupo_896566" data-name="Grupo 896566">
            <g id="Grupo_896565" data-name="Grupo 896565">
              <path id="Trazado_624471" data-name="Trazado 624471" d="M359.177,445.529c0,.11-47.464.2-106,.2-58.556,0-106.009-.09-106.009-.2s47.453-.2,106.009-.2C311.713,445.329,359.177,445.418,359.177,445.529Z" fill="#263238"/>
            </g>
          </g>
        </g>
      </g>
    </g>
    <g id="Grupo_896599" data-name="Grupo 896599">
      <g id="Grupo_896570" data-name="Grupo 896570">
        <path id="Trazado_624472" data-name="Trazado 624472" d="M130.842,169.385c-.327-3.98-3.289-7.42-6.9-9.114a21.25,21.25,0,0,0-11.741-1.342c-3.96.516-7.8,1.672-11.706,2.521-9.149,1.99-19.18,2.514-26.512,8.337-7.293,5.793-10.914,14.256-7.5,22.921l47.265-.238,15.706-10.6Z" fill="#455a64"/>
      </g>
      <g id="Grupo_896598" data-name="Grupo 896598">
        <g id="Grupo_896571" data-name="Grupo 896571">
          <path id="Trazado_624473" data-name="Trazado 624473" d="M135.476,171.51a14.758,14.758,0,0,0-9.1-7.847,22.647,22.647,0,0,0-12.231-.131c-6.789,1.655-13.258,6.037-15.759,12.561a13.7,13.7,0,0,0-.641,8.2c.686,2.7,1.9,5.542,4.375,6.824s7.564,1.993,11.628,1.355L133.81,183.1A11.009,11.009,0,0,0,135.476,171.51Z" fill="#263238"/>
        </g>
        <g id="Grupo_896585" data-name="Grupo 896585">
          <g id="Grupo_896575" data-name="Grupo 896575">
            <g id="Grupo_896572" data-name="Grupo 896572">
              <path id="Trazado_624474" data-name="Trazado 624474" d="M91.553,232.878l22.534,47.479a10.242,10.242,0,0,0,13.041,5.123L207.2,253.6a10.755,10.755,0,0,0,5.842-14.378l-21.214-47.49a10.754,10.754,0,0,0-13.86-5.581L96.957,219A10.241,10.241,0,0,0,91.553,232.878Z" fill="#ebebeb"/>
            </g>
            <g id="Grupo_896574" data-name="Grupo 896574">
              <g id="Grupo_896573" data-name="Grupo 896573">
                <path id="Trazado_624475" data-name="Trazado 624475" d="M91.553,232.878s-.131-.27-.364-.812A10.12,10.12,0,0,1,91,225.319a10.417,10.417,0,0,1,1.149-2.463,11.167,11.167,0,0,1,2.049-2.325c1.7-1.461,4.1-2.139,6.507-3.187l7.979-3.258,19.456-7.931c14.435-5.854,31.552-12.892,50.7-20.562a11.032,11.032,0,0,1,13.337,6.3q3.3,7.377,6.731,15.051c4.569,10.226,9.3,20.812,14.145,31.655a11.2,11.2,0,0,1,.508,8.792,10.956,10.956,0,0,1-5.974,6.322l-15.877,6.335L161.69,271.978l-27.164,10.789-6.27,2.489a15.091,15.091,0,0,1-3.162,1,10.066,10.066,0,0,1-3.267.03,10.462,10.462,0,0,1-5.638-2.727,10.631,10.631,0,0,1-1.892-2.413c-.5-.892-.872-1.788-1.3-2.666-6.64-14.072-12.015-25.46-15.736-33.346-1.843-3.933-3.275-6.99-4.254-9.077l-1.094-2.367c-.244-.534-.357-.814-.357-.814s.145.265.4.791.643,1.323,1.141,2.345l4.342,9.035,15.885,33.275c.429.868.819,1.794,1.3,2.637a10.249,10.249,0,0,0,1.829,2.319,10.061,10.061,0,0,0,5.433,2.61,9.675,9.675,0,0,0,3.139-.035,14.712,14.712,0,0,0,3.076-.987l6.265-2.5,27.146-10.834,30.005-11.962,15.86-6.336a10.447,10.447,0,0,0,5.691-6.026,10.675,10.675,0,0,0-.495-8.4l-14.136-31.659q-3.423-7.671-6.719-15.057a10.544,10.544,0,0,0-12.744-6.039l-50.7,20.444-19.485,7.858-8,3.219c-2.43,1.038-4.814,1.7-6.471,3.113a11.051,11.051,0,0,0-2.028,2.266,10.38,10.38,0,0,0-1.152,2.414,9.977,9.977,0,0,0-.468,4.154A11.8,11.8,0,0,0,91.553,232.878Z" fill="#263238"/>
              </g>
            </g>
          </g>
          <g id="Grupo_896576" data-name="Grupo 896576">
            <path id="Trazado_624476" data-name="Trazado 624476" d="M161.986,259.41l-35.274,15.008a2.822,2.822,0,0,1-3.7-1.492h0a2.821,2.821,0,0,1,1.492-3.7l35.274-15.008a2.82,2.82,0,0,1,3.7,1.491h0A2.82,2.82,0,0,1,161.986,259.41Z" fill="#455a64"/>
          </g>
          <g id="Grupo_896577" data-name="Grupo 896577">
            <path id="Trazado_624477" data-name="Trazado 624477" d="M200.465,238.12a6,6,0,1,1-7.875-3.174A6,6,0,0,1,200.465,238.12Z" fill="#fff"/>
          </g>
          <g id="Grupo_896578" data-name="Grupo 896578">
            <circle id="Elipse_6249" data-name="Elipse 6249" cx="6.004" cy="6.004" r="6.004" transform="translate(182.932 237.062)" fill="#ff725e"/>
          </g>
          <g id="Grupo_896579" data-name="Grupo 896579">
            <path id="Trazado_624478" data-name="Trazado 624478" d="M115.255,232.745l-6.558,2.79a3.747,3.747,0,0,1-4.914-1.98h0a3.746,3.746,0,0,1,1.981-4.914l6.557-2.79a3.746,3.746,0,0,1,4.914,1.98h0A3.747,3.747,0,0,1,115.255,232.745Z" fill="#ff725e"/>
          </g>
          <g id="Grupo_896580" data-name="Grupo 896580">
            <rect id="Rectángulo_300831" data-name="Rectángulo 300831" width="14.619" height="5.1" transform="translate(172.065 199.696) rotate(-23.049)" fill="#e0e0e0"/>
          </g>
          <g id="Grupo_896581" data-name="Grupo 896581">
            <rect id="Rectángulo_300832" data-name="Rectángulo 300832" width="12.305" height="9.14" transform="translate(111.406 248.001) rotate(-23.049)" fill="#e0e0e0"/>
          </g>
          <g id="Grupo_896582" data-name="Grupo 896582">
            <rect id="Rectángulo_300833" data-name="Rectángulo 300833" width="18.353" height="9.14" transform="translate(128.998 240.941) rotate(-23.049)" fill="#fff"/>
          </g>
          <g id="Grupo_896583" data-name="Grupo 896583">
            <rect id="Rectángulo_300834" data-name="Rectángulo 300834" width="18.353" height="9.14" transform="translate(150.717 231.275) rotate(-23.049)" fill="#fff"/>
          </g>
          <g id="Grupo_896584" data-name="Grupo 896584">
            <rect id="Rectángulo_300835" data-name="Rectángulo 300835" width="21.929" height="9.14" transform="translate(172.436 221.608) rotate(-23.049)" fill="#fff"/>
          </g>
        </g>
        <g id="Grupo_896595" data-name="Grupo 896595">
          <g id="Grupo_896586" data-name="Grupo 896586">
            <path id="Trazado_624479" data-name="Trazado 624479" d="M127.12,168.05s40.782,7.93,42.2,8.78,20.958,15.293,21.241,20.391-6.8,27.755-6.8,27.755-6.8.849-7.08-11.329l-.283-12.178-9.063-6.8s3.682,13.311,2.832,17.276-7.638,13.9-11.324,13.041a10.772,10.772,0,0,1-5.669-3.412s-3.4,8.911-12.744,3.464c0,0-6.231,2.484-11.045-.065s-9.063-10.479-9.063-10.479a4.216,4.216,0,0,1,4.814-4.531c5.1.283,9.63,3.965,9.63,3.965l.566-5.1s-5.947-7.518-12.178-11.406-26.367-8.9-20.64-22.811l6.078-3.156Z" fill="#263238"/>
          </g>
          <g id="Grupo_896588" data-name="Grupo 896588">
            <g id="Grupo_896587" data-name="Grupo 896587">
              <path id="Trazado_624480" data-name="Trazado 624480" d="M142.475,220.85" fill="none" stroke="#ffe1d3" stroke-miterlimit="10" stroke-width="1"/>
            </g>
          </g>
          <g id="Grupo_896590" data-name="Grupo 896590">
            <g id="Grupo_896589" data-name="Grupo 896589">
              <path id="Trazado_624481" data-name="Trazado 624481" d="M145.707,201.55a3.6,3.6,0,0,1,.534.9,16.108,16.108,0,0,1,1.02,2.671,18.392,18.392,0,0,1-4.214,17.649,15.915,15.915,0,0,1-2.117,1.922,3.6,3.6,0,0,1-.883.564c-.062-.077,1.168-.932,2.726-2.731a19.117,19.117,0,0,0,4.132-17.309C146.329,202.909,145.617,201.59,145.707,201.55Z" fill="#455a64"/>
            </g>
          </g>
          <g id="Grupo_896592" data-name="Grupo 896592">
            <g id="Grupo_896591" data-name="Grupo 896591">
              <path id="Trazado_624482" data-name="Trazado 624482" d="M155.285,194.53a4.606,4.606,0,0,1,.559.972,10.248,10.248,0,0,1,.549,1.2,17.291,17.291,0,0,1,.614,1.633,25.568,25.568,0,0,1,1.048,4.42,26.942,26.942,0,0,1-.7,11.052,25.629,25.629,0,0,1-1.6,4.253c-.258.593-.568,1.092-.815,1.541a10.36,10.36,0,0,1-.7,1.116,4.611,4.611,0,0,1-.678.894c-.087-.056.821-1.371,1.854-3.705a28.4,28.4,0,0,0,1.469-4.223,28.472,28.472,0,0,0,.69-10.863,28.558,28.558,0,0,0-.923-4.375C155.926,195.994,155.191,194.574,155.285,194.53Z" fill="#455a64"/>
            </g>
          </g>
          <g id="Grupo_896594" data-name="Grupo 896594">
            <g id="Grupo_896593" data-name="Grupo 896593">
              <path id="Trazado_624483" data-name="Trazado 624483" d="M165.474,185.264c.039-.044.524.294,1.1,1.042a8.237,8.237,0,0,1,1.36,7.026,3.031,3.031,0,0,1-.635,1.379,10.375,10.375,0,0,0-1.829-9.447Z" fill="#455a64"/>
            </g>
          </g>
        </g>
        <g id="Grupo_896597" data-name="Grupo 896597">
          <g id="Grupo_896596" data-name="Grupo 896596">
            <path id="Trazado_624484" data-name="Trazado 624484" d="M130.879,169.389a27.111,27.111,0,0,0-5.433-1.626,20.183,20.183,0,0,0-6.112-.051,19.027,19.027,0,0,0-7.02,2.482,17.582,17.582,0,0,0-5.5,5,11.144,11.144,0,0,0-2.056,5.647,12.127,12.127,0,0,0,.481,4.076,9.84,9.84,0,0,1,.466,1.458,7.786,7.786,0,0,1-.658-1.394,10.832,10.832,0,0,1,1.37-10.058,17.646,17.646,0,0,1,5.627-5.175,19,19,0,0,1,7.221-2.511,19.657,19.657,0,0,1,6.243.163,17.4,17.4,0,0,1,4.015,1.253,10.671,10.671,0,0,1,1.019.517C130.772,169.3,130.887,169.373,130.879,169.389Z" fill="#455a64"/>
          </g>
        </g>
      </g>
    </g>
    <g id="Grupo_896610" data-name="Grupo 896610">
      <g id="Grupo_896605" data-name="Grupo 896605">
        <g id="Grupo_896601" data-name="Grupo 896601" opacity="0.3">
          <g id="Grupo_896600" data-name="Grupo 896600">
            <path id="Trazado_624485" data-name="Trazado 624485" d="M415.236,276.163c3.389,11.337,1.729,25.6,5.119,36.936.506,1.693,1.006,3.554.317,5.182-.828,1.957-3.084,2.876-5.179,3.224a21.078,21.078,0,0,1-16.439-4.74,29.764,29.764,0,0,1-9.341-14.647c-1.352-4.526-1.811-9.512-.084-13.909C392.644,280.534,407.042,275.234,415.236,276.163Z"/>
          </g>
        </g>
        <g id="Grupo_896604" data-name="Grupo 896604">
          <g id="Grupo_896603" data-name="Grupo 896603">
            <g id="Grupo_896602" data-name="Grupo 896602">
              <path id="Trazado_624486" data-name="Trazado 624486" d="M399.561,323.7s9.093,6.017,13.019,6.57,17.874-2.47,17.874-2.47,6.948-6.057,2.333-9.675a18.094,18.094,0,0,0,4-2.753c2.476-2.321,2.958-3.533.457-9.387,0,0,3.889-4.984,3.5-7.566a10.94,10.94,0,0,0-2.949-5.873s3.946-7.2-2.921-10.562a9.025,9.025,0,0,1-3.492-4.082,12.2,12.2,0,0,0-7.224-6.2,25.287,25.287,0,0,0-8.767-.907l0,10.276s-24.431.006-26.88,1.954c-5.348,4.256,3.128,8.665,3.128,8.665s-5.3,5.341.191,7.739c0,0-3.947,5.206,1.7,7.97,3.317,1.624,27.518,9.093,27.518,9.093l-12.2,1.223s-8.5-4.141-10.035-1.415S399.561,323.7,399.561,323.7Z" fill="#263238"/>
            </g>
          </g>
        </g>
      </g>
      <g id="Grupo_896607" data-name="Grupo 896607">
        <g id="Grupo_896606" data-name="Grupo 896606">
          <path id="Trazado_624487" data-name="Trazado 624487" d="M426.275,304.98a7.031,7.031,0,0,1-1.376-.189l-3.715-.681c-3.135-.58-7.469-1.359-12.272-2.123s-9.167-1.365-12.328-1.785l-3.743-.5a7.065,7.065,0,0,1-1.367-.246,7.073,7.073,0,0,1,1.389.045c.89.06,2.177.176,3.764.34,3.176.326,7.554.872,12.367,1.635s9.142,1.6,12.262,2.277c1.561.336,2.82.625,3.685.844A7.085,7.085,0,0,1,426.275,304.98Z" fill="#455a64"/>
        </g>
      </g>
      <g id="Grupo_896609" data-name="Grupo 896609">
        <g id="Grupo_896608" data-name="Grupo 896608">
          <path id="Trazado_624488" data-name="Trazado 624488" d="M429.359,293.439a8.225,8.225,0,0,1-1.484-.159l-4.017-.554c-3.393-.446-8.1-.943-13.312-1.183s-9.947-.168-13.366-.033l-4.051.186a8.268,8.268,0,0,1-1.492.023,8.175,8.175,0,0,1,1.475-.225c.953-.115,2.336-.238,4.049-.352a123.171,123.171,0,0,1,26.749,1.22c1.7.269,3.062.517,4,.718A8.188,8.188,0,0,1,429.359,293.439Z" fill="#455a64"/>
        </g>
      </g>
    </g>
    <g id="Grupo_896668" data-name="Grupo 896668">
      <g id="Grupo_896667" data-name="Grupo 896667">
        <g id="Grupo_896646" data-name="Grupo 896646">
          <g id="Grupo_896633" data-name="Grupo 896633">
            <g id="Grupo_896632" data-name="Grupo 896632">
              <g id="Grupo_896631" data-name="Grupo 896631">
                <g id="Grupo_896630" data-name="Grupo 896630">
                  <g id="Grupo_896614" data-name="Grupo 896614">
                    <g id="Grupo_896613" data-name="Grupo 896613">
                      <g id="Grupo_896612" data-name="Grupo 896612">
                        <g id="Grupo_896611" data-name="Grupo 896611">
                          <path id="Trazado_624489" data-name="Trazado 624489" d="M395.414,366.475A25.725,25.725,0,1,1,375,336.364,25.725,25.725,0,0,1,395.414,366.475Z" fill="#ff725e"/>
                        </g>
                      </g>
                    </g>
                  </g>
                  <g id="Grupo_896617" data-name="Grupo 896617" opacity="0.1">
                    <g id="Grupo_896616" data-name="Grupo 896616">
                      <g id="Grupo_896615" data-name="Grupo 896615">
                        <path id="Trazado_624490" data-name="Trazado 624490" d="M375,336.364a25.725,25.725,0,0,0-30.111,20.417s17.6,4.2,23.243-2.13S375,336.364,375,336.364Z" fill="#fff"/>
                      </g>
                    </g>
                  </g>
                  <g id="Grupo_896620" data-name="Grupo 896620">
                    <g id="Grupo_896619" data-name="Grupo 896619">
                      <g id="Grupo_896618" data-name="Grupo 896618">
                        <path id="Trazado_624491" data-name="Trazado 624491" d="M389.032,364.836a19.556,19.556,0,1,1-15.521-22.891A19.556,19.556,0,0,1,389.032,364.836Z" fill="#ff725e"/>
                      </g>
                    </g>
                  </g>
                  <g id="Grupo_896623" data-name="Grupo 896623" opacity="0.2">
                    <g id="Grupo_896622" data-name="Grupo 896622">
                      <g id="Grupo_896621" data-name="Grupo 896621">
                        <path id="Trazado_624492" data-name="Trazado 624492" d="M389.032,364.836a19.556,19.556,0,1,1-15.521-22.891A19.556,19.556,0,0,1,389.032,364.836Z"/>
                      </g>
                    </g>
                  </g>
                  <g id="Grupo_896626" data-name="Grupo 896626">
                    <g id="Grupo_896625" data-name="Grupo 896625">
                      <g id="Grupo_896624" data-name="Grupo 896624">
                        <path id="Trazado_624493" data-name="Trazado 624493" d="M389.421,365.74a19.294,19.294,0,1,1-15.313-22.583A19.293,19.293,0,0,1,389.421,365.74Z" fill="#ff725e"/>
                      </g>
                    </g>
                  </g>
                  <g id="Grupo_896629" data-name="Grupo 896629" opacity="0.2">
                    <g id="Grupo_896628" data-name="Grupo 896628">
                      <g id="Grupo_896627" data-name="Grupo 896627">
                        <path id="Trazado_624494" data-name="Trazado 624494" d="M389.421,365.74a19.294,19.294,0,1,1-15.313-22.583A19.293,19.293,0,0,1,389.421,365.74Z" fill="#fff"/>
                      </g>
                    </g>
                  </g>
                </g>
              </g>
            </g>
          </g>
          <g id="Grupo_896645" data-name="Grupo 896645">
            <g id="Grupo_896637" data-name="Grupo 896637">
              <g id="Grupo_896636" data-name="Grupo 896636">
                <g id="Grupo_896635" data-name="Grupo 896635">
                  <g id="Grupo_896634" data-name="Grupo 896634">
                    <path id="Trazado_624495" data-name="Trazado 624495" d="M371.543,360.607l.93-4.847.023,0a10.1,10.1,0,0,1,2.448,1.166,8.218,8.218,0,0,1,1.061.993l.093-.138,1.083-1.6.249-.368-.69-1.073-.452.107a9.222,9.222,0,0,0-3.317-1.687l.512-2.667-.7-.828-.129.669-1.139-.218-.52,2.714c-3.817-.359-6,1.438-6.474,3.888-.64,3.338,2.052,4.751,4.593,5.911l-.921,4.8a9.407,9.407,0,0,1-4.454-2.747l-1.546,2.218a10.708,10.708,0,0,0,5.5,3.123l-.386,2.013-.941-.164.816.817,1.969.378.516-2.691c3.845.34,6.052-1.428,6.522-3.878C376.829,363.165,374.084,361.767,371.543,360.607Zm-1.873-.882c-1.315-.676-2.246-1.4-2.025-2.555.2-1.057,1.089-1.783,2.845-1.72Zm2.8-3.97h0Zm-2.3,12.01.815-4.252c1.363.685,2.314,1.44,2.088,2.617C372.875,367.163,371.974,367.837,370.17,367.765Z" fill="#ff725e"/>
                  </g>
                </g>
              </g>
            </g>
            <g id="Grupo_896641" data-name="Grupo 896641" opacity="0.3">
              <g id="Grupo_896640" data-name="Grupo 896640">
                <g id="Grupo_896639" data-name="Grupo 896639">
                  <g id="Grupo_896638" data-name="Grupo 896638">
                    <path id="Trazado_624496" data-name="Trazado 624496" d="M371.543,360.607l.93-4.847.023,0a10.1,10.1,0,0,1,2.448,1.166,8.218,8.218,0,0,1,1.061.993l.093-.138,1.083-1.6.249-.368-.69-1.073-.452.107a9.222,9.222,0,0,0-3.317-1.687l.512-2.667-.7-.828-.129.669-1.139-.218-.52,2.714c-3.817-.359-6,1.438-6.474,3.888-.64,3.338,2.052,4.751,4.593,5.911l-.921,4.8a9.407,9.407,0,0,1-4.454-2.747l-1.546,2.218a10.708,10.708,0,0,0,5.5,3.123l-.386,2.013-.941-.164.816.817,1.969.378.516-2.691c3.845.34,6.052-1.428,6.522-3.878C376.829,363.165,374.084,361.767,371.543,360.607Zm-1.873-.882c-1.315-.676-2.246-1.4-2.025-2.555.2-1.057,1.089-1.783,2.845-1.72Zm2.8-3.97h0Zm-2.3,12.01.815-4.252c1.363.685,2.314,1.44,2.088,2.617C372.875,367.163,371.974,367.837,370.17,367.765Z"/>
                  </g>
                </g>
              </g>
            </g>
            <g id="Grupo_896644" data-name="Grupo 896644">
              <g id="Grupo_896643" data-name="Grupo 896643">
                <g id="Grupo_896642" data-name="Grupo 896642">
                  <path id="Trazado_624497" data-name="Trazado 624497" d="M368.979,369.568l-.516,2.691-1.97-.378.512-2.667a10.711,10.711,0,0,1-5.5-3.123l1.546-2.219a9.4,9.4,0,0,0,4.455,2.748l.921-4.8c-2.542-1.16-5.234-2.573-4.594-5.912.47-2.45,2.658-4.247,6.474-3.889l.521-2.714,1.97.378-.512,2.666a10.489,10.489,0,0,1,4.6,2.4l-1.45,2.237a10.115,10.115,0,0,0-3.643-2.043l-.931,4.852c2.542,1.16,5.287,2.559,4.647,5.9C375.032,368.139,372.824,369.907,368.979,369.568Zm0-10.659.82-4.276c-1.756-.063-2.642.664-2.845,1.72C366.735,357.506,367.667,358.233,368.982,358.909Zm3.4,6.406c.226-1.177-.725-1.932-2.088-2.617l-.815,4.252C371.286,367.022,372.187,366.348,372.385,365.315Z" fill="#ff725e"/>
                </g>
              </g>
            </g>
          </g>
        </g>
        <g id="Grupo_896650" data-name="Grupo 896650">
          <g id="Grupo_896649" data-name="Grupo 896649">
            <g id="Grupo_896648" data-name="Grupo 896648">
              <g id="Grupo_896647" data-name="Grupo 896647">
                <path id="Trazado_624498" data-name="Trazado 624498" d="M346.361,369.353a1,1,0,0,1-.081-.218c-.05-.165-.114-.376-.194-.636a10.5,10.5,0,0,1-.266-1.019c-.087-.4-.208-.854-.279-1.367-.042-.256-.085-.524-.13-.8s-.064-.573-.1-.875c-.077-.6-.1-1.254-.126-1.938a25.491,25.491,0,0,1,1.324-8.765c.232-.645.441-1.261.694-1.815.122-.279.228-.553.352-.807s.246-.495.361-.728c.22-.468.469-.866.67-1.224s.392-.656.556-.894l.374-.55a1,1,0,0,1,.141-.185,1.139,1.139,0,0,1-.109.206l-.343.569c-.154.243-.337.544-.526.907s-.431.762-.641,1.232c-.112.232-.228.476-.349.728s-.221.529-.339.807c-.245.554-.447,1.168-.673,1.809a26.369,26.369,0,0,0-1.316,8.706c.027.679.038,1.326.108,1.927.031.3.047.593.087.871s.079.544.117.8c.062.511.172.964.249,1.366s.159.744.234,1.023c.065.264.118.477.16.644A1.121,1.121,0,0,1,346.361,369.353Z" fill="#fff"/>
              </g>
            </g>
          </g>
        </g>
        <g id="Grupo_896654" data-name="Grupo 896654">
          <g id="Grupo_896653" data-name="Grupo 896653">
            <g id="Grupo_896652" data-name="Grupo 896652">
              <g id="Grupo_896651" data-name="Grupo 896651">
                <path id="Trazado_624499" data-name="Trazado 624499" d="M365.087,358.227a1.611,1.611,0,0,1-.452-.661,3.027,3.027,0,0,1,.817-3.568,1.632,1.632,0,0,1,.7-.4c.016.029-.258.167-.6.5a3.138,3.138,0,0,0-.783,3.416C364.928,357.965,365.114,358.208,365.087,358.227Z" fill="#fff"/>
              </g>
            </g>
          </g>
        </g>
        <g id="Grupo_896658" data-name="Grupo 896658">
          <g id="Grupo_896657" data-name="Grupo 896657">
            <g id="Grupo_896656" data-name="Grupo 896656">
              <g id="Grupo_896655" data-name="Grupo 896655">
                <path id="Trazado_624500" data-name="Trazado 624500" d="M370.787,351.7a3.411,3.411,0,1,1,.246-.772A1.778,1.778,0,0,1,370.787,351.7Z" fill="#fff"/>
              </g>
            </g>
          </g>
        </g>
        <g id="Grupo_896662" data-name="Grupo 896662">
          <g id="Grupo_896661" data-name="Grupo 896661">
            <g id="Grupo_896660" data-name="Grupo 896660">
              <g id="Grupo_896659" data-name="Grupo 896659">
                <path id="Trazado_624501" data-name="Trazado 624501" d="M375.341,341.784a3.888,3.888,0,0,1-.612-.143c-.2-.054-.433-.117-.714-.174s-.6-.142-.953-.2-.744-.131-1.165-.174c-.42-.061-.872-.086-1.347-.121a20.1,20.1,0,0,0-6.139.608c-.458.128-.9.24-1.3.383-.4.125-.773.268-1.108.4s-.633.265-.9.378-.486.22-.666.311a4.05,4.05,0,0,1-.572.261,3.857,3.857,0,0,1,.538-.327c.175-.1.393-.221.655-.342s.552-.275.89-.406.7-.292,1.109-.425c.4-.15.841-.269,1.3-.4a19.112,19.112,0,0,1,6.2-.614c.478.041.934.072,1.356.14.424.051.814.127,1.17.2s.674.154.953.224.517.141.71.207A4.01,4.01,0,0,1,375.341,341.784Z" fill="#fff"/>
              </g>
            </g>
          </g>
        </g>
        <g id="Grupo_896666" data-name="Grupo 896666">
          <g id="Grupo_896665" data-name="Grupo 896665">
            <g id="Grupo_896664" data-name="Grupo 896664">
              <g id="Grupo_896663" data-name="Grupo 896663">
                <path id="Trazado_624502" data-name="Trazado 624502" d="M368.631,386.176a2.32,2.32,0,0,1-.474.036c-.306.013-.749.007-1.3-.025a18.571,18.571,0,0,1-8.123-2.444c-.473-.275-.846-.514-1.093-.694a2.291,2.291,0,0,1-.376-.291,2.2,2.2,0,0,1,.416.229c.259.16.641.38,1.119.638a20.817,20.817,0,0,0,8.067,2.427c.541.049.981.076,1.285.085A2.252,2.252,0,0,1,368.631,386.176Z" fill="#fff"/>
              </g>
            </g>
          </g>
        </g>
      </g>
    </g>
    <g id="Grupo_896739" data-name="Grupo 896739">
      <g id="Grupo_896681" data-name="Grupo 896681">
        <g id="Grupo_896680" data-name="Grupo 896680">
          <g id="Grupo_896679" data-name="Grupo 896679">
            <g id="Grupo_896678" data-name="Grupo 896678">
              <g id="Grupo_896677" data-name="Grupo 896677">
                <g id="Grupo_896676" data-name="Grupo 896676">
                  <g id="Grupo_896675" data-name="Grupo 896675">
                    <g id="Grupo_896674" data-name="Grupo 896674">
                      <g id="Grupo_896673" data-name="Grupo 896673">
                        <g id="Grupo_896672" data-name="Grupo 896672">
                          <g id="Grupo_896669" data-name="Grupo 896669">
                            <path id="Trazado_624503" data-name="Trazado 624503" d="M347.313,304.126,283.157,271.3a9.016,9.016,0,0,1-3.921-12.134l45.429-88.8a9.017,9.017,0,0,1,12.134-3.922l40.689,20.816,14.889,48.576L359.448,300.2A9.018,9.018,0,0,1,347.313,304.126Z" fill="#fafafa"/>
                          </g>
                          <g id="Grupo_896671" data-name="Grupo 896671">
                            <g id="Grupo_896670" data-name="Grupo 896670">
                              <path id="Trazado_624504" data-name="Trazado 624504" d="M347.313,304.126s.128.045.37.147a7.511,7.511,0,0,0,1.1.4,8.949,8.949,0,0,0,10.295-4.023c1.368-2.569,2.859-5.6,4.578-8.949l28.528-55.965-.014.162c-4.514-14.692-9.548-31.078-14.92-48.566l.125.149-23.482-12L341.609,169.2l-3.116-1.594a23.1,23.1,0,0,0-3.146-1.466,8.764,8.764,0,0,0-6.679.567,8.644,8.644,0,0,0-3.458,3.239c-.788,1.4-1.506,2.9-2.258,4.343q-2.232,4.36-4.432,8.661-4.4,8.6-8.667,16.933L293.461,231.89q-3.92,7.648-7.636,14.9l-3.659,7.139-1.788,3.487a20.661,20.661,0,0,0-1.582,3.46,8.82,8.82,0,0,0,3.435,9.621,33.681,33.681,0,0,0,3.119,1.7l12.1,6.21L333.96,297.18l9.913,5.127,2.572,1.345c.578.3.868.474.868.474s-.306-.137-.892-.427l-2.6-1.3-9.958-5.039-36.582-18.622-12.118-6.181A33.258,33.258,0,0,1,282,270.836a9.16,9.16,0,0,1-2.558-2.686,9.255,9.255,0,0,1-1.059-7.389,20.983,20.983,0,0,1,1.607-3.542q.883-1.731,1.781-3.49,1.8-3.518,3.648-7.145,3.705-7.251,7.617-14.912L309.4,199.651l8.66-16.937,4.431-8.662c.76-1.454,1.452-2.911,2.275-4.375a9.17,9.17,0,0,1,3.664-3.433,9.288,9.288,0,0,1,7.077-.6,23.319,23.319,0,0,1,3.225,1.5l3.116,1.594,12.28,6.285L377.6,187.04l.094.049.031.1,14.858,48.585.026.084-.04.079c-11.925,23.226-21.8,42.45-28.692,55.881-1.738,3.35-3.238,6.352-4.635,8.934a9.052,9.052,0,0,1-5.921,4.225,8.955,8.955,0,0,1-4.56-.236,6.8,6.8,0,0,1-1.093-.438C347.43,304.191,347.313,304.126,347.313,304.126Z" fill="#263238"/>
                            </g>
                          </g>
                        </g>
                      </g>
                    </g>
                  </g>
                </g>
              </g>
            </g>
          </g>
        </g>
      </g>
      <g id="Grupo_896689" data-name="Grupo 896689">
        <g id="Grupo_896688" data-name="Grupo 896688">
          <g id="Grupo_896687" data-name="Grupo 896687">
            <g id="Grupo_896686" data-name="Grupo 896686">
              <g id="Grupo_896685" data-name="Grupo 896685">
                <g id="Grupo_896684" data-name="Grupo 896684">
                  <g id="Grupo_896683" data-name="Grupo 896683">
                    <g id="Grupo_896682" data-name="Grupo 896682">
                      <path id="Trazado_624505" data-name="Trazado 624505" d="M359.844,208.483c-.164.321-6.942-2.818-15.138-7.011S330,193.62,330.162,193.3s6.941,2.817,15.139,7.011S360.008,208.162,359.844,208.483Z" fill="#263238"/>
                    </g>
                  </g>
                </g>
              </g>
            </g>
          </g>
        </g>
      </g>
      <g id="Grupo_896697" data-name="Grupo 896697">
        <g id="Grupo_896696" data-name="Grupo 896696">
          <g id="Grupo_896695" data-name="Grupo 896695">
            <g id="Grupo_896694" data-name="Grupo 896694">
              <g id="Grupo_896693" data-name="Grupo 896693">
                <g id="Grupo_896692" data-name="Grupo 896692">
                  <g id="Grupo_896691" data-name="Grupo 896691">
                    <g id="Grupo_896690" data-name="Grupo 896690">
                      <path id="Trazado_624506" data-name="Trazado 624506" d="M371.785,232.421c-.165.321-11.234-5.014-24.722-11.914s-24.294-12.757-24.13-13.078,11.232,5.012,24.725,11.915S371.949,232.1,371.785,232.421Z" fill="#263238"/>
                    </g>
                  </g>
                </g>
              </g>
            </g>
          </g>
        </g>
      </g>
      <g id="Grupo_896705" data-name="Grupo 896705">
        <g id="Grupo_896704" data-name="Grupo 896704">
          <g id="Grupo_896703" data-name="Grupo 896703">
            <g id="Grupo_896702" data-name="Grupo 896702">
              <g id="Grupo_896701" data-name="Grupo 896701">
                <g id="Grupo_896700" data-name="Grupo 896700">
                  <g id="Grupo_896699" data-name="Grupo 896699">
                    <g id="Grupo_896698" data-name="Grupo 896698">
                      <path id="Trazado_624507" data-name="Trazado 624507" d="M370.148,246.471c-.165.321-12.219-5.518-26.922-13.039s-26.494-13.882-26.329-14.2,12.216,5.516,26.924,13.04S370.312,246.15,370.148,246.471Z" fill="#263238"/>
                    </g>
                  </g>
                </g>
              </g>
            </g>
          </g>
        </g>
      </g>
      <g id="Grupo_896713" data-name="Grupo 896713">
        <g id="Grupo_896712" data-name="Grupo 896712">
          <g id="Grupo_896711" data-name="Grupo 896711">
            <g id="Grupo_896710" data-name="Grupo 896710">
              <g id="Grupo_896709" data-name="Grupo 896709">
                <g id="Grupo_896708" data-name="Grupo 896708">
                  <g id="Grupo_896707" data-name="Grupo 896707">
                    <g id="Grupo_896706" data-name="Grupo 896706">
                      <path id="Trazado_624508" data-name="Trazado 624508" d="M364.452,257.6c-.164.322-12.219-5.517-26.921-13.038s-26.494-13.882-26.33-14.2,12.217,5.517,26.925,13.041S364.617,257.282,364.452,257.6Z" fill="#263238"/>
                    </g>
                  </g>
                </g>
              </g>
            </g>
          </g>
        </g>
      </g>
      <g id="Grupo_896721" data-name="Grupo 896721">
        <g id="Grupo_896720" data-name="Grupo 896720">
          <g id="Grupo_896719" data-name="Grupo 896719">
            <g id="Grupo_896718" data-name="Grupo 896718">
              <g id="Grupo_896717" data-name="Grupo 896717">
                <g id="Grupo_896716" data-name="Grupo 896716">
                  <g id="Grupo_896715" data-name="Grupo 896715">
                    <g id="Grupo_896714" data-name="Grupo 896714">
                      <path id="Trazado_624509" data-name="Trazado 624509" d="M358.757,268.736c-.164.321-12.219-5.517-26.921-13.038s-26.494-13.883-26.33-14.2,12.217,5.516,26.925,13.04S358.921,268.415,358.757,268.736Z" fill="#263238"/>
                    </g>
                  </g>
                </g>
              </g>
            </g>
          </g>
        </g>
      </g>
      <g id="Grupo_896729" data-name="Grupo 896729">
        <g id="Grupo_896728" data-name="Grupo 896728">
          <g id="Grupo_896727" data-name="Grupo 896727">
            <g id="Grupo_896726" data-name="Grupo 896726">
              <g id="Grupo_896725" data-name="Grupo 896725">
                <g id="Grupo_896724" data-name="Grupo 896724">
                  <g id="Grupo_896723" data-name="Grupo 896723">
                    <g id="Grupo_896722" data-name="Grupo 896722">
                      <path id="Trazado_624510" data-name="Trazado 624510" d="M353.062,279.869c-.164.321-12.219-5.517-26.922-13.039s-26.493-13.882-26.329-14.2,12.216,5.516,26.924,13.04S353.226,279.548,353.062,279.869Z" fill="#263238"/>
                    </g>
                  </g>
                </g>
              </g>
            </g>
          </g>
        </g>
      </g>
      <g id="Grupo_896738" data-name="Grupo 896738">
        <g id="Grupo_896737" data-name="Grupo 896737">
          <g id="Grupo_896736" data-name="Grupo 896736">
            <g id="Grupo_896735" data-name="Grupo 896735">
              <g id="Grupo_896734" data-name="Grupo 896734">
                <g id="Grupo_896733" data-name="Grupo 896733">
                  <g id="Grupo_896732" data-name="Grupo 896732">
                    <g id="Grupo_896731" data-name="Grupo 896731">
                      <g id="Grupo_896730" data-name="Grupo 896730">
                        <path id="Trazado_624511" data-name="Trazado 624511" d="M376.988,186.935,364.2,211.928a8.387,8.387,0,0,0,3.645,11.285l24.029,12.3Z" fill="#e0e0e0"/>
                      </g>
                    </g>
                  </g>
                </g>
              </g>
            </g>
          </g>
        </g>
      </g>
    </g>
    <g id="Grupo_896760" data-name="Grupo 896760">
      <g id="Grupo_896759" data-name="Grupo 896759">
        <g id="Grupo_896747" data-name="Grupo 896747">
          <g id="Grupo_896746" data-name="Grupo 896746">
            <g id="Grupo_896745" data-name="Grupo 896745">
              <g id="Grupo_896744" data-name="Grupo 896744">
                <g id="Grupo_896743" data-name="Grupo 896743">
                  <g id="Grupo_896742" data-name="Grupo 896742">
                    <g id="Grupo_896741" data-name="Grupo 896741">
                      <g id="Grupo_896740" data-name="Grupo 896740">
                        <path id="Trazado_624512" data-name="Trazado 624512" d="M259.049,252.415l-31.519-.054-2.818-5.265a10.873,10.873,0,0,0-9.638-5.568l-30.808.015c-5.483,0-9.927,4.167-9.924,9.3v3.593l.045,94.548c0,5.835,5.056,10.563,11.286,10.56l125.145-.059c6.231,0,11.279-4.736,11.276-10.571l-.043-89.317a7.215,7.215,0,0,0-7.218-7.212Z" fill="#ff725e"/>
                      </g>
                    </g>
                  </g>
                </g>
              </g>
            </g>
          </g>
        </g>
        <g id="Grupo_896750" data-name="Grupo 896750">
          <g id="Grupo_896749" data-name="Grupo 896749">
            <g id="Grupo_896748" data-name="Grupo 896748">
              <rect id="Rectángulo_300836" data-name="Rectángulo 300836" width="74.479" height="31.336" transform="translate(214.813 286.959)" fill="#fff"/>
            </g>
          </g>
        </g>
        <g id="Grupo_896754" data-name="Grupo 896754">
          <g id="Grupo_896753" data-name="Grupo 896753">
            <g id="Grupo_896752" data-name="Grupo 896752">
              <g id="Grupo_896751" data-name="Grupo 896751">
                <path id="Trazado_624513" data-name="Trazado 624513" d="M277.822,300.76c0,.277-11.457.508-25.587.514s-25.589-.212-25.589-.49,11.454-.506,25.589-.513S277.821,300.483,277.822,300.76Z" fill="#263238"/>
              </g>
            </g>
          </g>
        </g>
        <g id="Grupo_896758" data-name="Grupo 896758">
          <g id="Grupo_896757" data-name="Grupo 896757">
            <g id="Grupo_896756" data-name="Grupo 896756">
              <g id="Grupo_896755" data-name="Grupo 896755">
                <path id="Trazado_624514" data-name="Trazado 624514" d="M277.825,307.435c0,.277-11.457.507-25.587.514s-25.589-.212-25.589-.489,11.454-.507,25.589-.515S277.825,307.158,277.825,307.435Z" fill="#263238"/>
              </g>
            </g>
          </g>
        </g>
      </g>
    </g>
    <g id="Grupo_896769" data-name="Grupo 896769">
      <g id="Grupo_896768" data-name="Grupo 896768">
        <g id="Grupo_896765" data-name="Grupo 896765">
          <g id="Grupo_896764" data-name="Grupo 896764">
            <g id="Grupo_896761" data-name="Grupo 896761">
              <path id="Trazado_624515" data-name="Trazado 624515" d="M326.082,417.347a23.616,23.616,0,1,1-3.33-33.231A23.616,23.616,0,0,1,326.082,417.347Z" fill="#fff"/>
            </g>
            <g id="Grupo_896763" data-name="Grupo 896763">
              <g id="Grupo_896762" data-name="Grupo 896762">
                <path id="Trazado_624516" data-name="Trazado 624516" d="M326.082,417.347a2.086,2.086,0,0,1,.206-.325l.645-.919.48-.672c.165-.255.321-.55.5-.86a17.133,17.133,0,0,0,1.152-2.2,22.556,22.556,0,0,0,1.92-6.5,23.406,23.406,0,0,0-15.452-25.516,21.468,21.468,0,0,0-6.591-1.278,21.371,21.371,0,0,0-6.964.715,22.6,22.6,0,0,0-6.658,2.869,23.161,23.161,0,0,0-9.334,11.409,22.63,22.63,0,0,0-1.491,7.1,21.375,21.375,0,0,0,.68,6.969,21.481,21.481,0,0,0,2.561,6.208,23.465,23.465,0,0,0,28.076,10.081,22.538,22.538,0,0,0,5.985-3.17,17.33,17.33,0,0,0,1.925-1.565c.268-.241.526-.452.743-.664l.564-.6.772-.814a2.114,2.114,0,0,1,.278-.267,2.145,2.145,0,0,1-.237.3l-.737.851q-.248.283-.548.624c-.212.22-.466.438-.73.687a16.776,16.776,0,0,1-1.909,1.614,22.366,22.366,0,0,1-6.007,3.281,23.771,23.771,0,0,1-19.527-1.4,23.881,23.881,0,0,1-9.061-8.707,21.891,21.891,0,0,1-2.63-6.331,21.832,21.832,0,0,1-.708-7.118,23.093,23.093,0,0,1,1.517-7.255,23.63,23.63,0,0,1,9.541-11.662,23.083,23.083,0,0,1,6.808-2.925,21.819,21.819,0,0,1,7.115-.718,21.907,21.907,0,0,1,6.726,1.322,23.872,23.872,0,0,1,10.331,7.152,23.78,23.78,0,0,1,5.25,18.86,22.34,22.34,0,0,1-2.024,6.539,16.675,16.675,0,0,1-1.2,2.192c-.191.308-.355.6-.528.852l-.5.661-.688.891A2.1,2.1,0,0,1,326.082,417.347Z" fill="#263238"/>
              </g>
            </g>
          </g>
        </g>
        <g id="Grupo_896767" data-name="Grupo 896767">
          <g id="Grupo_896766" data-name="Grupo 896766">
            <path id="Trazado_624517" data-name="Trazado 624517" d="M322.624,405.753a1.352,1.352,0,0,1-.6,2.262l-11.848,3.617-11.879,3.192a1.831,1.831,0,0,1-1.688-2.078l3.175-11.884,3.175-11.884a1.352,1.352,0,0,1,2.261-.608l8.7,8.692Z" fill="#e0e0e0"/>
          </g>
        </g>
      </g>
    </g>
    <g id="Grupo_896775" data-name="Grupo 896775">
      <g id="Grupo_896774" data-name="Grupo 896774">
        <g id="Grupo_896773" data-name="Grupo 896773">
          <g id="Grupo_896772" data-name="Grupo 896772">
            <g id="Grupo_896771" data-name="Grupo 896771">
              <g id="Grupo_896770" data-name="Grupo 896770">
                <path id="Trazado_624518" data-name="Trazado 624518" d="M190.194,401.138a12.58,12.58,0,0,0,5.71-12.611c-.989-6.878-7.02-11.706-13.472-10.781s-10.875,7.25-9.886,14.128a12.563,12.563,0,0,0,9.158,10.521c-17.561,5.365-13.856,24.765-13.856,24.765l42.5-6.093S208.4,401.19,190.194,401.138Z" fill="#ff725e"/>
              </g>
            </g>
          </g>
        </g>
      </g>
    </g>
    <g id="Grupo_896790" data-name="Grupo 896790">
      <g id="Grupo_896781" data-name="Grupo 896781">
        <g id="Grupo_896780" data-name="Grupo 896780">
          <g id="Grupo_896779" data-name="Grupo 896779">
            <g id="Grupo_896776" data-name="Grupo 896776">
              <rect id="Rectángulo_300837" data-name="Rectángulo 300837" width="86.752" height="58.474" rx="4.206" transform="translate(45.584 334.642) rotate(-11.518)" fill="#ebebeb"/>
            </g>
            <g id="Grupo_896778" data-name="Grupo 896778">
              <g id="Grupo_896777" data-name="Grupo 896777">
                <path id="Trazado_624519" data-name="Trazado 624519" d="M138.144,375.456c-.006-.022.246-.051.69-.236a4.221,4.221,0,0,0,1.685-1.257,4.142,4.142,0,0,0,.866-3.222c-.279-1.352-.6-2.909-.962-4.659-1.454-7.034-3.551-17.184-6.141-29.722l-2.025-9.85q-.531-2.564-1.084-5.228a4.006,4.006,0,0,0-3.874-2.991,22.265,22.265,0,0,0-2.76.485l-2.837.582-5.809,1.19-12.127,2.483-54,11.025a3.976,3.976,0,0,0-2.676,1.97,3.864,3.864,0,0,0-.476,1.624,5.983,5.983,0,0,0,.2,1.725q.723,3.547,1.435,7.048,1.425,7,2.805,13.78c1.835,9.035,3.606,17.75,5.293,26.053l.317,1.549a3.867,3.867,0,0,0,.569,1.361,3.975,3.975,0,0,0,3.79,1.751c.472-.063,1-.193,1.487-.285l2.971-.6,11.444-2.318,20.543-4.154,29.753-5.979,8.094-1.6,2.108-.4c.475-.088.721-.12.721-.12s-.239.067-.711.172l-2.1.454-8.075,1.7-29.72,6.141-20.53,4.216-11.439,2.344-2.97.608c-.508.1-.978.218-1.522.294a4.444,4.444,0,0,1-4.242-1.952A4.345,4.345,0,0,1,56.2,387.9l-.32-1.553c-1.7-8.3-3.477-17.014-5.323-26.047q-1.383-6.775-2.812-13.779-.714-3.5-1.438-7.047a6.516,6.516,0,0,1-.211-1.864,4.375,4.375,0,0,1,.539-1.839,4.5,4.5,0,0,1,3.028-2.23l54.01-10.986L115.8,320.1l5.812-1.178,2.839-.576,1.4-.283a7.221,7.221,0,0,1,1.444-.2,4.431,4.431,0,0,1,4.279,3.319l1.074,5.252q1.038,5.141,1.991,9.857c2.523,12.552,4.564,22.712,5.979,29.754.346,1.76.672,3.312.917,4.678a4.245,4.245,0,0,1-.938,3.311,4.163,4.163,0,0,1-1.747,1.24A2.733,2.733,0,0,1,138.144,375.456Z" fill="#263238"/>
              </g>
            </g>
          </g>
        </g>
      </g>
      <g id="Grupo_896785" data-name="Grupo 896785">
        <g id="Grupo_896782" data-name="Grupo 896782">
          <path id="Trazado_624520" data-name="Trazado 624520" d="M46.479,336.864,95.7,360.619l31.971-42.527" fill="#ebebeb"/>
        </g>
        <g id="Grupo_896784" data-name="Grupo 896784">
          <g id="Grupo_896783" data-name="Grupo 896783">
            <path id="Trazado_624521" data-name="Trazado 624521" d="M127.673,318.092a1.14,1.14,0,0,1-.143.235l-.463.658-1.82,2.5-6.775,9.15L95.91,360.776l-.128.171-.194-.093-.65-.314L60.624,343.895l-10.373-5.1-2.808-1.409-.725-.379a1.121,1.121,0,0,1-.239-.145,1.119,1.119,0,0,1,.262.1l.747.332,2.851,1.322,10.445,4.948,34.38,16.508.651.314-.321.078,22.685-30.047,6.907-9.051,1.9-2.443.5-.627A1.14,1.14,0,0,1,127.673,318.092Z" fill="#263238"/>
          </g>
        </g>
      </g>
      <g id="Grupo_896787" data-name="Grupo 896787">
        <g id="Grupo_896786" data-name="Grupo 896786">
          <path id="Trazado_624522" data-name="Trazado 624522" d="M77.586,352.072c.129.064-4.043,8.751-9.316,19.4s-9.655,19.234-9.784,19.17,4.041-8.748,9.317-19.4S77.457,352.008,77.586,352.072Z" fill="#263238"/>
        </g>
      </g>
      <g id="Grupo_896789" data-name="Grupo 896789">
        <g id="Grupo_896788" data-name="Grupo 896788">
          <path id="Trazado_624523" data-name="Trazado 624523" d="M105.929,347.016c.086-.115,8.122,5.764,17.947,13.129s17.722,13.432,17.636,13.548-8.121-5.763-17.949-13.131S105.842,347.131,105.929,347.016Z" fill="#263238"/>
        </g>
      </g>
    </g>
  </g>
</svg>
